<?xml version="1.0" standalone="no"?>
<!DOCTYPE svg PUBLIC "-//W3C//DTD SVG 20010904//EN"
 "http://www.w3.org/TR/2001/REC-SVG-20010904/DTD/svg10.dtd">
<svg version="1.0" xmlns="http://www.w3.org/2000/svg"
 width="1080.000000pt" height="1080.000000pt" viewBox="0 0 1080.000000 1080.000000"
 preserveAspectRatio="xMidYMid meet">
<metadata>
Created by potrace 1.14, written by Peter Selinger 2001-2017
</metadata>
<g transform="translate(0.000000,1080.000000) scale(0.100000,-0.100000)"
fill="#000000" stroke="none">
<path d="M3495 7064 c-16 -2 -77 -9 -135 -15 -58 -6 -158 -24 -222 -40 -633
-154 -988 -586 -938 -1140 19 -213 83 -360 215 -494 216 -220 409 -299 1096
-450 248 -54 348 -85 412 -128 55 -37 83 -95 73 -150 -6 -34 -51 -84 -94 -106
-46 -24 -176 -41 -312 -41 -324 0 -649 77 -960 227 -74 36 -136 61 -137 56 -2
-4 -82 -185 -177 -401 l-174 -392 62 -35 c331 -185 833 -295 1347 -295 392 0
642 47 908 171 477 222 713 681 600 1169 -40 170 -129 304 -289 433 -190 152
-445 244 -954 342 -197 38 -377 85 -426 110 -120 62 -142 179 -50 258 77 65
216 93 423 83 238 -10 485 -72 738 -185 62 -28 114 -49 116 -48 1 2 76 181
166 397 l164 395 -81 41 c-187 95 -454 175 -741 219 -95 15 -557 29 -630 19z"/>
<path d="M5417 6993 c-4 -3 -7 -739 -7 -1635 l0 -1628 545 0 545 0 0 406 0
406 122 135 c96 106 124 132 132 121 6 -7 190 -251 409 -541 l398 -527 635 0
c506 0 634 3 628 13 -5 6 -311 417 -682 911 -636 848 -674 901 -661 921 8 12
298 333 644 714 347 381 632 697 633 702 2 5 -244 9 -591 9 l-595 0 -533 -589
-534 -590 -3 590 -2 589 -538 0 c-296 0 -542 -3 -545 -7z"/>
</g>
</svg>
