<?xml version="1.0" encoding="UTF-8"?>
<!DOCTYPE svg PUBLIC "-//W3C//DTD SVG 1.1//EN" "http://www.w3.org/Graphics/SVG/1.1/DTD/svg11.dtd">
<svg xmlns="http://www.w3.org/2000/svg" version="1.1" width="1316px" height="1316px" style="shape-rendering:geometricPrecision; text-rendering:geometricPrecision; image-rendering:optimizeQuality; fill-rule:evenodd; clip-rule:evenodd" xmlns:xlink="http://www.w3.org/1999/xlink">
<g><path style="opacity:0.996" fill="#fe0000" d="M -0.5,-0.5 C 7.5,-0.5 15.5,-0.5 23.5,-0.5C 202.935,8.8176 354.768,77.8176 479,206.5C 595.959,333.444 655.459,483.777 657.5,657.5C 856.381,661.048 1021.88,736.381 1154,883.5C 1254.39,1001.02 1308.22,1137.35 1315.5,1292.5C 1315.5,1300.17 1315.5,1307.83 1315.5,1315.5C 1221.83,1315.5 1128.17,1315.5 1034.5,1315.5C 1032.5,1201.7 989.502,1106.86 905.5,1031C 833.995,970.208 750.995,939.041 656.5,937.5C 656.5,844.5 656.5,751.5 656.5,658.5C 563.5,658.5 470.5,658.5 377.5,658.5C 373.974,529.603 320.974,426.769 218.5,350C 152.967,303.88 79.967,280.714 -0.5,280.5C -0.5,186.833 -0.5,93.1667 -0.5,-0.5 Z"/></g>
<g><path style="opacity:0.995" fill="#fe0000" d="M 656.5,-0.5 C 664.5,-0.5 672.5,-0.5 680.5,-0.5C 872.414,10.0474 1031.58,87.0474 1158,230.5C 1256.75,348.208 1309.25,484.208 1315.5,638.5C 1315.5,645.167 1315.5,651.833 1315.5,658.5C 1221.83,658.5 1128.17,658.5 1034.5,658.5C 1031.41,528.81 978.079,425.644 874.5,349C 809.091,303.589 736.425,280.755 656.5,280.5C 656.5,186.833 656.5,93.1667 656.5,-0.5 Z"/></g>
<g><path style="opacity:0.997" fill="#fe0000" d="M -0.5,657.5 C 196.38,660.88 360.88,734.88 493,879.5C 601.072,1004.15 655.905,1149.48 657.5,1315.5C 564.167,1315.5 470.833,1315.5 377.5,1315.5C 373.587,1186.49 320.253,1083.66 217.5,1007C 152.139,961.493 79.4722,938.326 -0.5,937.5C -0.5,844.167 -0.5,750.833 -0.5,657.5 Z"/></g>
</svg>
