<?xml version="1.0" encoding="UTF-8"?>
<!DOCTYPE svg PUBLIC "-//W3C//DTD SVG 1.1//EN" "http://www.w3.org/Graphics/SVG/1.1/DTD/svg11.dtd">
<svg xmlns="http://www.w3.org/2000/svg" version="1.1" width="1899px" height="1001px" style="shape-rendering:geometricPrecision; text-rendering:geometricPrecision; image-rendering:optimizeQuality; fill-rule:evenodd; clip-rule:evenodd" xmlns:xlink="http://www.w3.org/1999/xlink">
<g><path style="opacity:1" fill="#fefefe" d="M -0.5,-0.5 C 632.5,-0.5 1265.5,-0.5 1898.5,-0.5C 1898.5,333.167 1898.5,666.833 1898.5,1000.5C 1265.5,1000.5 632.5,1000.5 -0.5,1000.5C -0.5,666.833 -0.5,333.167 -0.5,-0.5 Z"/></g>
<g><path style="opacity:1" fill="#1e1f1e" d="M 692.5,46.5 C 693.826,50.6139 694.493,55.1139 694.5,60C 694.167,64.5 693.833,69 693.5,73.5C 692.502,64.5246 692.168,55.5246 692.5,46.5 Z"/></g>
<g><path style="opacity:1" fill="#222122" d="M 905.5,73.5 C 905.666,68.4889 905.499,63.4889 905,58.5C 904.617,57.944 904.117,57.6107 903.5,57.5C 900.635,57.0548 898.135,57.7215 896,59.5C 895.828,64.2018 895.328,68.8685 894.5,73.5C 893.167,64.5 893.167,55.5 894.5,46.5C 895.325,50.1224 895.825,53.789 896,57.5C 899.667,53.5 903.333,53.5 907,57.5C 907.167,60.1667 907.333,62.8333 907.5,65.5C 907.478,68.5902 906.812,71.2568 905.5,73.5 Z"/></g>
<g><path style="opacity:1" fill="#42333f" d="M 1062.5,71.5 C 1061.83,71.5 1061.17,71.5 1060.5,71.5C 1063.64,67.6341 1064.3,63.3007 1062.5,58.5C 1062.5,58.1667 1062.5,57.8333 1062.5,57.5C 1063.48,54.0381 1063.81,50.3714 1063.5,46.5C 1064.5,46.5 1065.5,46.5 1066.5,46.5C 1066.5,55.5 1066.5,64.5 1066.5,73.5C 1064.8,73.4729 1063.47,72.8062 1062.5,71.5 Z"/></g>
<g><path style="opacity:1" fill="#2c2930" d="M 1093.5,46.5 C 1095.26,49.7006 1096.09,53.3673 1096,57.5C 1100.29,53.399 1104.29,53.7324 1108,58.5C 1108.5,63.4889 1108.67,68.4889 1108.5,73.5C 1107.5,73.5 1106.5,73.5 1105.5,73.5C 1105.67,68.4889 1105.5,63.4889 1105,58.5C 1101.84,57.0813 1098.84,57.4146 1096,59.5C 1095.83,64.2018 1095.33,68.8685 1094.5,73.5C 1093.5,64.5246 1093.17,55.5246 1093.5,46.5 Z"/></g>
<g><path style="opacity:1" fill="#473933" d="M 1113.5,46.5 C 1114.5,46.5 1115.5,46.5 1116.5,46.5C 1116.5,47.8333 1116.5,49.1667 1116.5,50.5C 1113.05,50.7332 1112.05,49.3999 1113.5,46.5 Z"/></g>
<g><path style="opacity:1" fill="#42333f" d="M 1235.5,71.5 C 1234.83,71.5 1234.17,71.5 1233.5,71.5C 1236.64,67.6341 1237.3,63.3007 1235.5,58.5C 1235.5,58.1667 1235.5,57.8333 1235.5,57.5C 1236.48,54.0381 1236.81,50.3714 1236.5,46.5C 1237.5,46.5 1238.5,46.5 1239.5,46.5C 1239.5,55.5 1239.5,64.5 1239.5,73.5C 1237.8,73.4729 1236.47,72.8062 1235.5,71.5 Z"/></g>
<g><path style="opacity:1" fill="#2a252c" d="M 761.5,48.5 C 763.275,52.3864 764.108,56.7197 764,61.5C 767.5,57.3333 771,53.1667 774.5,49C 775.5,48.3333 776.5,48.3333 777.5,49C 774.642,52.3579 771.975,55.8579 769.5,59.5C 772.088,63.6756 774.921,67.6756 778,71.5C 778.591,72.4835 778.257,73.1501 777,73.5C 773.641,69.8021 770.641,65.8021 768,61.5C 764.265,64.5463 762.432,68.5463 762.5,73.5C 761.502,65.1932 761.169,56.8599 761.5,48.5 Z"/></g>
<g><path style="opacity:1" fill="#221f2c" d="M 1245.5,48.5 C 1246.81,50.9151 1247.48,53.7485 1247.5,57C 1247.17,59.8333 1246.83,62.6667 1246.5,65.5C 1245.5,59.8722 1245.17,54.2055 1245.5,48.5 Z"/></g>
<g><path style="opacity:1" fill="#201f1f" d="M 702.5,50.5 C 704.256,51.5521 704.923,53.2188 704.5,55.5C 709.833,56.1667 709.833,56.8333 704.5,57.5C 704.334,61.8461 704.501,66.1794 705,70.5C 706.205,71.0712 707.372,71.7379 708.5,72.5C 706.389,73.8485 704.555,73.5152 703,71.5C 702.501,66.8452 702.334,62.1785 702.5,57.5C 698.5,56.8333 698.5,56.1667 702.5,55.5C 702.5,53.8333 702.5,52.1667 702.5,50.5 Z"/></g>
<g><path style="opacity:1" fill="#452537" d="M 822.5,50.5 C 823.5,50.5 824.5,50.5 825.5,50.5C 825.5,52.1667 825.5,53.8333 825.5,55.5C 830.833,56.1667 830.833,56.8333 825.5,57.5C 825.334,61.8461 825.501,66.1794 826,70.5C 827.205,71.0712 828.372,71.7379 829.5,72.5C 827.051,73.9097 824.884,73.5763 823,71.5C 822.501,66.8452 822.334,62.1785 822.5,57.5C 818.5,56.8333 818.5,56.1667 822.5,55.5C 822.5,53.8333 822.5,52.1667 822.5,50.5 Z"/></g>
<g><path style="opacity:1" fill="#201f1f" d="M 1082.5,50.5 C 1084.26,51.5521 1084.92,53.2188 1084.5,55.5C 1089.83,56.1667 1089.83,56.8333 1084.5,57.5C 1084.33,61.8461 1084.5,66.1794 1085,70.5C 1086.21,71.0712 1087.37,71.7379 1088.5,72.5C 1086.39,73.8485 1084.56,73.5152 1083,71.5C 1082.5,66.8452 1082.33,62.1785 1082.5,57.5C 1078.5,56.8333 1078.5,56.1667 1082.5,55.5C 1082.5,53.8333 1082.5,52.1667 1082.5,50.5 Z"/></g>
<g><path style="opacity:1" fill="#342b30" d="M 655.5,48.5 C 658.518,48.3354 661.518,48.502 664.5,49C 667.059,50.3234 667.725,52.1567 666.5,54.5C 664.064,50.9204 660.73,49.7538 656.5,51C 653.833,53.3333 653.833,55.6667 656.5,58C 659.5,59 662.5,60 665.5,61C 669.105,64.3153 669.439,67.982 666.5,72C 662.02,74.1469 657.687,73.9802 653.5,71.5C 652.643,70.2643 651.977,68.931 651.5,67.5C 652.325,66.6143 653.325,66.281 654.5,66.5C 654.792,70.004 656.792,71.6707 660.5,71.5C 665.821,70.7468 667.154,68.2468 664.5,64C 660.013,62.3972 655.846,60.2305 652,57.5C 650.665,53.3919 651.832,50.3919 655.5,48.5 Z"/></g>
<g><path style="opacity:1" fill="#353031" d="M 716.5,54.5 C 720.192,53.9712 723.358,54.9712 726,57.5C 726.829,62.8643 726.663,68.1977 725.5,73.5C 724.808,72.9747 724.308,72.3081 724,71.5C 720.264,74.0893 716.598,74.0893 713,71.5C 712.321,63.732 715.821,61.0654 723.5,63.5C 725.126,59.5758 723.793,57.5758 719.5,57.5C 717.311,57.5939 715.311,58.2606 713.5,59.5C 712.479,58.9984 712.312,58.3317 713,57.5C 714.145,56.3636 715.312,55.3636 716.5,54.5 Z"/></g>
<g><path style="opacity:1" fill="#3d363e" d="M 785.5,54.5 C 789.803,53.7962 793.303,55.1295 796,58.5C 796.499,63.4889 796.666,68.4889 796.5,73.5C 794.876,73.6399 793.71,72.9733 793,71.5C 789.826,73.6208 786.493,73.9542 783,72.5C 780.428,68.3382 781.262,65.1716 785.5,63C 788.099,62.231 790.599,62.3977 793,63.5C 793.743,61.5594 793.576,59.7261 792.5,58C 789.208,57.0643 786.208,57.5643 783.5,59.5C 783.167,59.1667 782.833,58.8333 782.5,58.5C 783.524,57.1482 784.524,55.8149 785.5,54.5 Z"/></g>
<g><path style="opacity:1" fill="#383131" d="M 855.5,54.5 C 859.569,54.0139 862.736,55.3472 865,58.5C 865.829,63.533 865.662,68.533 864.5,73.5C 863.346,71.1441 862.013,70.9774 860.5,73C 853.481,74.798 850.481,72.298 851.5,65.5C 854.676,62.4256 858.342,61.7589 862.5,63.5C 864.06,59.7103 862.727,57.7103 858.5,57.5C 855.994,57.3352 854.161,58.3352 853,60.5C 852.308,59.9747 851.808,59.3081 851.5,58.5C 852.549,56.7844 853.882,55.4511 855.5,54.5 Z"/></g>
<g><path style="opacity:1" fill="#40323a" d="M 916.5,54.5 C 920.115,54.2055 923.282,55.2055 926,57.5C 927.339,62.7364 927.839,68.0698 927.5,73.5C 925.876,73.6399 924.71,72.9733 924,71.5C 920.02,74.4198 916.354,74.0865 913,70.5C 912.034,65.1243 914.368,62.4576 920,62.5C 924.456,64.2112 925.623,62.7112 923.5,58C 921.167,57.3333 918.833,57.3333 916.5,58C 915.874,58.7504 915.374,59.5838 915,60.5C 914.667,60.1667 914.333,59.8333 914,59.5C 914.058,57.5646 914.891,55.8979 916.5,54.5 Z"/></g>
<g><path style="opacity:1" fill="#40323a" d="M 981.5,54.5 C 985.115,54.2055 988.282,55.2055 991,57.5C 992.339,62.7364 992.839,68.0698 992.5,73.5C 990.876,73.6399 989.71,72.9733 989,71.5C 985.02,74.4198 981.354,74.0865 978,70.5C 977.034,65.1243 979.368,62.4576 985,62.5C 989.456,64.2112 990.623,62.7112 988.5,58C 986.167,57.3333 983.833,57.3333 981.5,58C 980.874,58.7504 980.374,59.5838 980,60.5C 979.667,60.1667 979.333,59.8333 979,59.5C 979.058,57.5646 979.891,55.8979 981.5,54.5 Z"/></g>
<g><path style="opacity:1" fill="#4a3040" d="M 1016.5,54.5 C 1019.75,54.4152 1022.58,55.4152 1025,57.5C 1025.5,62.8229 1025.67,68.1563 1025.5,73.5C 1024.5,73.5 1023.5,73.5 1022.5,73.5C 1022.67,68.4889 1022.5,63.4889 1022,58.5C 1019.08,56.9865 1016.42,57.3199 1014,59.5C 1013.5,64.1548 1013.33,68.8215 1013.5,73.5C 1012.5,73.5 1011.5,73.5 1010.5,73.5C 1010.5,67.5 1010.5,61.5 1010.5,55.5C 1012.12,55.3601 1013.29,56.0267 1014,57.5C 1015.04,56.6266 1015.88,55.6266 1016.5,54.5 Z"/></g>
<g><path style="opacity:1" fill="#362c30" d="M 1124.5,54.5 C 1128.54,53.6597 1131.54,54.993 1133.5,58.5C 1133.17,58.8333 1132.83,59.1667 1132.5,59.5C 1130.13,57.6048 1127.47,57.1048 1124.5,58C 1123.17,59.3333 1123.17,60.6667 1124.5,62C 1127.83,62.7889 1131,63.9556 1134,65.5C 1134.32,72.8191 1130.82,75.3191 1123.5,73C 1122.26,71.8455 1121.26,70.5122 1120.5,69C 1122.73,69.7595 1125.06,70.5928 1127.5,71.5C 1132.06,71.172 1133.06,69.3387 1130.5,66C 1127.2,65.5133 1124.2,64.3466 1121.5,62.5C 1119.77,58.7733 1120.77,56.1067 1124.5,54.5 Z"/></g>
<g><path style="opacity:1" fill="#383131" d="M 1151.5,54.5 C 1155.57,54.0139 1158.74,55.3472 1161,58.5C 1161.83,63.533 1161.66,68.533 1160.5,73.5C 1159.35,71.1441 1158.01,70.9774 1156.5,73C 1149.48,74.798 1146.48,72.298 1147.5,65.5C 1150.68,62.4256 1154.34,61.7589 1158.5,63.5C 1160.06,59.7103 1158.73,57.7103 1154.5,57.5C 1151.99,57.3352 1150.16,58.3352 1149,60.5C 1148.31,59.9747 1147.81,59.3081 1147.5,58.5C 1148.55,56.7844 1149.88,55.4511 1151.5,54.5 Z"/></g>
<g><path style="opacity:1" fill="#3d363e" d="M 1195.5,54.5 C 1199.8,53.7962 1203.3,55.1295 1206,58.5C 1206.5,63.4889 1206.67,68.4889 1206.5,73.5C 1204.88,73.6399 1203.71,72.9733 1203,71.5C 1199.83,73.6208 1196.49,73.9542 1193,72.5C 1190.43,68.3382 1191.26,65.1716 1195.5,63C 1198.1,62.231 1200.6,62.3977 1203,63.5C 1203.74,61.5594 1203.58,59.7261 1202.5,58C 1199.21,57.0643 1196.21,57.5643 1193.5,59.5C 1193.17,59.1667 1192.83,58.8333 1192.5,58.5C 1193.52,57.1482 1194.52,55.8149 1195.5,54.5 Z"/></g>
<g><path style="opacity:1" fill="#3d3a44" d="M 672.5,55.5 C 673.5,55.5 674.5,55.5 675.5,55.5C 675.334,60.5111 675.501,65.5111 676,70.5C 679.206,72.1244 681.872,71.4578 684,68.5C 684.499,64.1794 684.666,59.8461 684.5,55.5C 685.5,55.5 686.5,55.5 687.5,55.5C 687.5,61.5 687.5,67.5 687.5,73.5C 685.876,73.6399 684.71,72.9733 684,71.5C 680.465,74.1217 676.965,74.1217 673.5,71.5C 672.505,66.2079 672.172,60.8746 672.5,55.5 Z"/></g>
<g><path style="opacity:1" fill="#272330" d="M 737.5,54.5 C 740.862,54.0695 743.695,55.0695 746,57.5C 746.829,62.8643 746.663,68.1977 745.5,73.5C 744.672,68.8685 744.172,64.2018 744,59.5C 741,56.8333 738,56.8333 735,59.5C 734.828,64.2018 734.328,68.8685 733.5,73.5C 732.167,67.5 732.167,61.5 733.5,55.5C 735.03,57.7615 736.363,57.4282 737.5,54.5 Z"/></g>
<g><path style="opacity:1" fill="#242121" d="M 801.5,55.5 C 803.28,59.7274 804.114,64.3941 804,69.5C 807.294,72.3112 810.294,71.9779 813,68.5C 813.172,64.1289 813.672,59.7956 814.5,55.5C 815.833,61.5 815.833,67.5 814.5,73.5C 813.833,72.8333 813.167,72.1667 812.5,71.5C 809.532,73.6618 806.366,73.9952 803,72.5C 801.596,66.9562 801.096,61.2896 801.5,55.5 Z"/></g>
<g><path style="opacity:1" fill="#242328" d="M 876.5,54.5 C 877.833,54.5 879.167,54.5 880.5,54.5C 880.5,55.5 880.5,56.5 880.5,57.5C 877.956,57.1043 875.789,57.771 874,59.5C 873.828,64.2018 873.328,68.8685 872.5,73.5C 871.167,67.5 871.167,61.5 872.5,55.5C 874.03,57.7615 875.363,57.4282 876.5,54.5 Z"/></g>
<g><path style="opacity:1" fill="#40313a" d="M 1003.5,54.5 C 1004.5,54.5 1005.5,54.5 1006.5,54.5C 1006.5,55.5 1006.5,56.5 1006.5,57.5C 1004.28,57.178 1002.44,57.8446 1001,59.5C 1000.5,64.1548 1000.33,68.8215 1000.5,73.5C 999.5,73.5 998.5,73.5 997.5,73.5C 997.5,67.5 997.5,61.5 997.5,55.5C 998.822,55.33 999.989,55.6634 1001,56.5C 1001.99,55.9341 1002.83,55.2674 1003.5,54.5 Z"/></g>
<g><path style="opacity:1" fill="#3f323f" d="M 1113.5,55.5 C 1114.5,55.5 1115.5,55.5 1116.5,55.5C 1116.5,61.5 1116.5,67.5 1116.5,73.5C 1115.5,73.5 1114.5,73.5 1113.5,73.5C 1113.5,67.5 1113.5,61.5 1113.5,55.5 Z"/></g>
<g><path style="opacity:1" fill="#252226" d="M 1216.5,54.5 C 1217.83,54.5 1219.17,54.5 1220.5,54.5C 1220.5,55.5 1220.5,56.5 1220.5,57.5C 1218.17,57.2471 1216.17,57.9137 1214.5,59.5C 1213.83,64.1667 1213.17,68.8333 1212.5,73.5C 1211.17,67.5 1211.17,61.5 1212.5,55.5C 1214.03,57.7615 1215.36,57.4282 1216.5,54.5 Z"/></g>
<g><path style="opacity:1" fill="#342f36" d="M 836.5,54.5 C 840.741,53.7498 844.074,55.0831 846.5,58.5C 845.424,59.6559 844.424,59.4892 843.5,58C 841.19,57.5034 838.857,57.3367 836.5,57.5C 836.286,59.1439 836.62,60.6439 837.5,62C 840.56,62.8476 843.56,63.8476 846.5,65C 848.124,68.2056 847.458,70.8723 844.5,73C 840.409,74.2272 836.909,73.3939 834,70.5C 833.312,69.6683 833.479,69.0016 834.5,68.5C 838.009,72.4235 841.342,72.4235 844.5,68.5C 844.167,67.8333 843.833,67.1667 843.5,66.5C 840.668,65.4195 837.835,64.4195 835,63.5C 832.788,60.0213 833.288,57.0213 836.5,54.5 Z"/></g>
<g><path style="opacity:1" fill="#342f36" d="M 934.5,54.5 C 938.741,53.7498 942.074,55.0831 944.5,58.5C 943.424,59.6559 942.424,59.4892 941.5,58C 939.19,57.5034 936.857,57.3367 934.5,57.5C 934.286,59.1439 934.62,60.6439 935.5,62C 938.56,62.8476 941.56,63.8476 944.5,65C 946.124,68.2056 945.458,70.8723 942.5,73C 938.409,74.2272 934.909,73.3939 932,70.5C 931.312,69.6683 931.479,69.0016 932.5,68.5C 936.009,72.4235 939.342,72.4235 942.5,68.5C 942.167,67.8333 941.833,67.1667 941.5,66.5C 938.668,65.4195 935.835,64.4195 933,63.5C 930.788,60.0213 931.288,57.0213 934.5,54.5 Z"/></g>
<g><path style="opacity:1" fill="#322b30" d="M 1035.5,54.5 C 1042.55,54.216 1045.88,57.5493 1045.5,64.5C 1041.17,64.5 1036.83,64.5 1032.5,64.5C 1032.64,69.8128 1035.31,71.9794 1040.5,71C 1041.77,68.7391 1043.44,68.2391 1045.5,69.5C 1044.69,70.8139 1043.69,71.9805 1042.5,73C 1032.17,74.5891 1028,70.0891 1030,59.5C 1031.73,57.5981 1033.56,55.9314 1035.5,54.5 Z"/></g>
<g><path style="opacity:1" fill="#f3efea" d="M 1034.5,57.5 C 1036.86,57.3367 1039.19,57.5034 1041.5,58C 1043.04,59.1096 1043.7,60.6096 1043.5,62.5C 1039.83,62.5 1036.17,62.5 1032.5,62.5C 1032.39,60.4862 1033.06,58.8195 1034.5,57.5 Z"/></g>
<g><path style="opacity:1" fill="#f9f8f4" d="M 1062.5,58.5 C 1064.3,63.3007 1063.64,67.6341 1060.5,71.5C 1052.88,71.0537 1050.38,67.0537 1053,59.5C 1055.89,57.161 1059.05,56.8276 1062.5,58.5 Z"/></g>
<g><path style="opacity:1" fill="#f9f8f4" d="M 1235.5,58.5 C 1237.3,63.3007 1236.64,67.6341 1233.5,71.5C 1225.88,71.0537 1223.38,67.0537 1226,59.5C 1228.89,57.161 1232.05,56.8276 1235.5,58.5 Z"/></g>
<g><path style="opacity:1" fill="#30282a" d="M 962.5,54.5 C 970.059,53.7301 973.726,57.0635 973.5,64.5C 968.833,64.5 964.167,64.5 959.5,64.5C 959.81,70.3034 962.81,72.4701 968.5,71C 969.543,69.0244 970.877,68.5244 972.5,69.5C 967.751,74.809 962.918,74.809 958,69.5C 956.374,63.3488 957.874,58.3488 962.5,54.5 Z"/></g>
<g><path style="opacity:1" fill="#fafaf6" d="M 962.5,57.5 C 964.92,57.2924 967.253,57.6258 969.5,58.5C 970.429,59.6888 970.762,61.0222 970.5,62.5C 967.167,62.5 963.833,62.5 960.5,62.5C 960.392,60.4862 961.058,58.8195 962.5,57.5 Z"/></g>
<g><path style="opacity:1" fill="#f7c58a" d="M 903.5,57.5 C 904.117,57.6107 904.617,57.944 905,58.5C 905.499,63.4889 905.666,68.4889 905.5,73.5C 904.741,68.3021 904.075,62.9687 903.5,57.5 Z"/></g>
<g><path style="opacity:1" fill="#f0efee" d="M 715.5,65.5 C 718.5,65.5 721.5,65.5 724.5,65.5C 723.669,70.989 720.669,72.6557 715.5,70.5C 714.334,68.8327 714.334,67.166 715.5,65.5 Z"/></g>
<g><path style="opacity:1" fill="#f6f4ee" d="M 784.5,65.5 C 787.5,65.5 790.5,65.5 793.5,65.5C 792.987,70.846 790.153,72.5127 785,70.5C 784.506,68.8659 784.34,67.1992 784.5,65.5 Z"/></g>
<g><path style="opacity:1" fill="#f0ede9" d="M 854.5,65.5 C 857.5,65.5 860.5,65.5 863.5,65.5C 862.524,71.2009 859.357,72.8676 854,70.5C 853.36,68.735 853.527,67.0683 854.5,65.5 Z"/></g>
<g><path style="opacity:1" fill="#f7f6f3" d="M 916.5,65.5 C 919.167,65.5 921.833,65.5 924.5,65.5C 923.987,70.846 921.153,72.5127 916,70.5C 915.36,68.735 915.527,67.0683 916.5,65.5 Z"/></g>
<g><path style="opacity:1" fill="#f7f6f3" d="M 981.5,65.5 C 984.167,65.5 986.833,65.5 989.5,65.5C 988.987,70.846 986.153,72.5127 981,70.5C 980.36,68.735 980.527,67.0683 981.5,65.5 Z"/></g>
<g><path style="opacity:1" fill="#f0ede9" d="M 1150.5,65.5 C 1153.5,65.5 1156.5,65.5 1159.5,65.5C 1158.52,71.2009 1155.36,72.8676 1150,70.5C 1149.36,68.735 1149.53,67.0683 1150.5,65.5 Z"/></g>
<g><path style="opacity:1" fill="#daa66b" d="M 1166.5,62.5 C 1168.28,65.5046 1169.28,68.8379 1169.5,72.5C 1167.72,69.4954 1166.72,66.1621 1166.5,62.5 Z"/></g>
<g><path style="opacity:1" fill="#f6f4ee" d="M 1194.5,65.5 C 1197.5,65.5 1200.5,65.5 1203.5,65.5C 1202.99,70.846 1200.15,72.5127 1195,70.5C 1194.51,68.8659 1194.34,67.1992 1194.5,65.5 Z"/></g>
<g><path style="opacity:1" fill="#372f3b" d="M 1169.5,72.5 C 1169.28,68.8379 1168.28,65.5046 1166.5,62.5C 1166.57,60.5992 1166.23,58.7659 1165.5,57C 1166.01,55.1739 1166.84,55.0072 1168,56.5C 1168.53,60.9434 1169.53,65.2768 1171,69.5C 1173.01,64.9801 1174.51,60.3134 1175.5,55.5C 1176.82,55.33 1177.99,55.6634 1179,56.5C 1182.38,71.1537 1184.55,70.8204 1185.5,55.5C 1186.5,55.5 1187.5,55.5 1188.5,55.5C 1186.96,61.4537 1185.63,67.4537 1184.5,73.5C 1183.32,73.719 1182.32,73.3857 1181.5,72.5C 1180,67.8276 1178.5,63.161 1177,58.5C 1174.42,63.1359 1172.92,68.1359 1172.5,73.5C 1171.21,73.7373 1170.21,73.404 1169.5,72.5 Z"/></g>
<g><path style="opacity:1" fill="#3f353d" d="M 1062.5,57.5 C 1062.5,57.8333 1062.5,58.1667 1062.5,58.5C 1059.05,56.8276 1055.89,57.161 1053,59.5C 1050.38,67.0537 1052.88,71.0537 1060.5,71.5C 1061.17,71.5 1061.83,71.5 1062.5,71.5C 1054.88,75.7975 1050.54,73.4642 1049.5,64.5C 1049.15,60.3307 1050.82,57.164 1054.5,55C 1057.82,54.0228 1060.48,54.8562 1062.5,57.5 Z"/></g>
<g><path style="opacity:1" fill="#3f353d" d="M 1235.5,57.5 C 1235.5,57.8333 1235.5,58.1667 1235.5,58.5C 1232.05,56.8276 1228.89,57.161 1226,59.5C 1223.38,67.0537 1225.88,71.0537 1233.5,71.5C 1234.17,71.5 1234.83,71.5 1235.5,71.5C 1227.88,75.7975 1223.54,73.4642 1222.5,64.5C 1222.15,60.3307 1223.82,57.164 1227.5,55C 1230.82,54.0228 1233.48,54.8562 1235.5,57.5 Z"/></g>
<g><path style="opacity:1" fill="#342836" d="M 1244.5,69.5 C 1246.35,69.2222 1247.68,69.8888 1248.5,71.5C 1247.68,73.1112 1246.35,73.7778 1244.5,73.5C 1244.5,72.1667 1244.5,70.8333 1244.5,69.5 Z"/></g>
<g><path style="opacity:1" fill="#1f73e8" d="M 790.5,88.5 C 792.337,88.6395 792.67,89.3061 791.5,90.5C 790.702,90.0431 790.369,89.3764 790.5,88.5 Z"/></g>
<g><path style="opacity:1" fill="#5875e8" d="M 863.5,87.5 C 864.812,89.7432 865.478,92.4098 865.5,95.5C 865.167,98.1667 864.833,100.833 864.5,103.5C 863.505,98.2079 863.172,92.8746 863.5,87.5 Z"/></g>
<g><path style="opacity:1" fill="#2d73e8" d="M 868.5,88.5 C 870.337,88.6395 870.67,89.3061 869.5,90.5C 868.702,90.0431 868.369,89.3764 868.5,88.5 Z"/></g>
<g><path style="opacity:1" fill="#3194ee" d="M 934.5,87.5 C 935.812,89.7432 936.478,92.4098 936.5,95.5C 936.167,98.1667 935.833,100.833 935.5,103.5C 934.505,98.2079 934.172,92.8746 934.5,87.5 Z"/></g>
<g><path style="opacity:1" fill="#5875e8" d="M 1010.5,87.5 C 1011.81,89.7432 1012.48,92.4098 1012.5,95.5C 1012.17,98.1667 1011.83,100.833 1011.5,103.5C 1010.51,98.2079 1010.17,92.8746 1010.5,87.5 Z"/></g>
<g><path style="opacity:1" fill="#608beb" d="M 929.5,87.5 C 931.625,88.3676 931.791,89.3676 930,90.5C 928.317,89.8235 928.15,88.8235 929.5,87.5 Z"/></g>
<g><path style="opacity:1" fill="#517ee9" d="M 924.5,92.5 C 926.265,93.4614 928.265,93.7947 930.5,93.5C 930.5,96.8333 930.5,100.167 930.5,103.5C 928.612,101.012 927.945,98.0122 928.5,94.5C 927.167,94.5 925.833,94.5 924.5,94.5C 924.817,97.5719 924.484,100.572 923.5,103.5C 922.978,99.9655 921.978,96.6321 920.5,93.5C 921.752,91.9991 922.752,90.3325 923.5,88.5C 924.891,87.3554 926.224,87.3554 927.5,88.5C 926.675,89.3857 925.675,89.719 924.5,89.5C 924.5,90.5 924.5,91.5 924.5,92.5 Z"/></g>
<g><path style="opacity:1" fill="#387ce9" d="M 958.5,87.5 C 962.5,88.1667 962.5,88.8333 958.5,89.5C 958.227,91.451 958.893,92.951 960.5,94C 958.961,96.8782 957.961,100.045 957.5,103.5C 956.978,99.9655 955.978,96.6321 954.5,93.5C 955.857,91.4346 957.19,89.4346 958.5,87.5 Z"/></g>
<g><path style="opacity:1" fill="#5e7be8" d="M 1018.5,90.5 C 1018.36,92.1238 1019.03,93.2904 1020.5,94C 1019.34,95.0086 1018.68,96.3419 1018.5,98C 1018.51,99.3847 1018.85,100.551 1019.5,101.5C 1022.08,102.092 1022.08,102.758 1019.5,103.5C 1018.56,103.392 1017.72,103.059 1017,102.5C 1016.78,99.5738 1016.28,96.7405 1015.5,94C 1015.97,92.2714 1016.97,91.1047 1018.5,90.5 Z"/></g>
<g><path style="opacity:1" fill="#4174e9" d="M 1088.5,90.5 C 1089.93,91.4458 1091.26,92.6125 1092.5,94C 1089.89,96.749 1089.89,99.5823 1092.5,102.5C 1091.35,103.731 1090.18,103.731 1089,102.5C 1088.13,98.3596 1087.97,94.3596 1088.5,90.5 Z"/></g>
<g><path style="opacity:1" fill="#4475ea" d="M 790.5,92.5 C 791.787,93.8714 792.453,95.7047 792.5,98C 792.167,99.8333 791.833,101.667 791.5,103.5C 790.511,99.8927 790.177,96.226 790.5,92.5 Z"/></g>
<g><path style="opacity:1" fill="#5a7ee9" d="M 805.5,92.5 C 806.496,92.4142 807.329,92.7476 808,93.5C 808.202,95.2556 808.702,96.9223 809.5,98.5C 812.26,90.5986 814.426,90.9319 816,99.5C 816.543,97.3686 817.376,95.3686 818.5,93.5C 818.833,94 819.167,94.5 819.5,95C 818.313,97.7236 817.647,100.557 817.5,103.5C 816.5,103.5 815.5,103.5 814.5,103.5C 813.761,94.5111 812.094,94.5111 809.5,103.5C 807.173,100.215 805.84,96.5484 805.5,92.5 Z"/></g>
<g><path style="opacity:1" fill="#4a7cea" d="M 839.5,92.5 C 841.388,94.9878 842.055,97.9878 841.5,101.5C 843.144,101.714 844.644,101.38 846,100.5C 846.182,97.7737 846.682,95.1071 847.5,92.5C 848.833,96.1667 848.833,99.8333 847.5,103.5C 845.071,103.579 842.571,103.245 840,102.5C 839.502,99.1832 839.335,95.8499 839.5,92.5 Z"/></g>
<g><path style="opacity:1" fill="#457be9" d="M 851.5,87.5 C 853.036,89.0251 854.036,91.0251 854.5,93.5C 857.245,92.0247 859.412,92.6913 861,95.5C 861.782,98.2569 861.282,100.757 859.5,103C 857.005,103.157 854.672,103.324 852.5,103.5C 851.505,98.2079 851.172,92.8746 851.5,87.5 Z"/></g>
<g><path style="opacity:1" fill="#5975e8" d="M 868.5,92.5 C 869.787,93.8714 870.453,95.7047 870.5,98C 870.167,99.8333 869.833,101.667 869.5,103.5C 868.511,99.8927 868.177,96.226 868.5,92.5 Z"/></g>
<g><path style="opacity:1" fill="#e5bae9" d="M 891.5,93.5 C 890.514,97.97 890.181,102.637 890.5,107.5C 889.186,102.652 889.186,97.6523 890.5,92.5C 891.107,92.6236 891.44,92.9569 891.5,93.5 Z"/></g>
<g><path style="opacity:1" fill="#4781ea" d="M 890.5,107.5 C 890.181,102.637 890.514,97.97 891.5,93.5C 896.412,91.2142 899.079,92.7142 899.5,98C 899.418,102.575 897.085,104.408 892.5,103.5C 892.843,105.483 892.176,106.817 890.5,107.5 Z"/></g>
<g><path style="opacity:1" fill="#4a7be9" d="M 912.5,92.5 C 919.575,93.3269 921.242,96.8269 917.5,103C 911,104.5 908.5,102 910,95.5C 910.698,94.3094 911.531,93.3094 912.5,92.5 Z"/></g>
<g><path style="opacity:1" fill="#78b6f2" d="M 924.5,92.5 C 926.833,92.5 929.167,92.5 931.5,92.5C 931.815,96.3714 931.482,100.038 930.5,103.5C 930.5,100.167 930.5,96.8333 930.5,93.5C 928.265,93.7947 926.265,93.4614 924.5,92.5 Z"/></g>
<g><path style="opacity:1" fill="#5a7de8" d="M 964.5,92.5 C 971.03,92.2435 973.197,95.2435 971,101.5C 967.661,104.299 964.661,103.966 962,100.5C 961.018,97.2253 961.851,94.5586 964.5,92.5 Z"/></g>
<g><path style="opacity:1" fill="#5779e8" d="M 998.5,92.5 C 1000.22,94.6581 1001.05,97.3248 1001,100.5C 1002.33,101.833 1003.67,101.833 1005,100.5C 1005.18,97.7737 1005.68,95.1071 1006.5,92.5C 1007.83,96.1667 1007.83,99.8333 1006.5,103.5C 1004.66,103.245 1002.66,103.078 1000.5,103C 1000,102.5 999.5,102 999,101.5C 998.502,98.5184 998.335,95.5184 998.5,92.5 Z"/></g>
<g><path style="opacity:1" fill="#6784e9" d="M 1034.5,92.5 C 1037.14,92.8579 1039.81,93.1912 1042.5,93.5C 1043.83,96.8333 1043.83,100.167 1042.5,103.5C 1041.68,100.893 1041.18,98.2263 1041,95.5C 1040,94.1667 1039,94.1667 1038,95.5C 1037.5,98.146 1037.34,100.813 1037.5,103.5C 1036.5,103.5 1035.5,103.5 1034.5,103.5C 1034.5,99.8333 1034.5,96.1667 1034.5,92.5 Z"/></g>
<g><path style="opacity:1" fill="#5779e8" d="M 1075.5,92.5 C 1077.22,94.6581 1078.05,97.3248 1078,100.5C 1079.33,101.833 1080.67,101.833 1082,100.5C 1082.18,97.7737 1082.68,95.1071 1083.5,92.5C 1084.83,96.1667 1084.83,99.8333 1083.5,103.5C 1081.66,103.245 1079.66,103.078 1077.5,103C 1077,102.5 1076.5,102 1076,101.5C 1075.5,98.5184 1075.34,95.5184 1075.5,92.5 Z"/></g>
<g><path style="opacity:1" fill="#467aea" d="M 902.5,92.5 C 904.458,92.908 906.458,93.2413 908.5,93.5C 907.372,94.2621 906.205,94.9288 905,95.5C 904.818,98.2263 904.318,100.893 903.5,103.5C 902.511,99.8927 902.177,96.226 902.5,92.5 Z"/></g>
<g><path style="opacity:1" fill="#487be9" d="M 941.5,92.5 C 945.693,92.3617 948.027,94.3617 948.5,98.5C 945.753,98.1866 943.086,98.52 940.5,99.5C 940.709,100.086 941.043,100.586 941.5,101C 943.657,101.078 945.657,101.245 947.5,101.5C 947.291,102.086 946.957,102.586 946.5,103C 941.859,104.651 939.193,103.151 938.5,98.5C 938.628,96.0452 939.628,94.0452 941.5,92.5 Z"/></g>
<g><path style="opacity:1" fill="#467aea" d="M 974.5,92.5 C 976.458,92.908 978.458,93.2413 980.5,93.5C 979.372,94.2621 978.205,94.9288 977,95.5C 976.818,98.2263 976.318,100.893 975.5,103.5C 974.511,99.8927 974.177,96.226 974.5,92.5 Z"/></g>
<g><path style="opacity:1" fill="#5283ea" d="M 1025.5,92.5 C 1027.83,92.2471 1029.83,92.9137 1031.5,94.5C 1032.41,97.4212 1032.74,100.421 1032.5,103.5C 1029.55,103.777 1026.72,103.444 1024,102.5C 1023.04,98.0748 1024.88,96.4082 1029.5,97.5C 1029.5,96.5 1029.5,95.5 1029.5,94.5C 1027.74,94.3573 1026.07,94.6906 1024.5,95.5C 1024.17,95.3333 1023.83,95.1667 1023.5,95C 1024.38,94.2917 1025.05,93.4584 1025.5,92.5 Z"/></g>
<g><path style="opacity:1" fill="#4e7be9" d="M 1051.5,89.5 C 1053.04,91.0251 1054.04,93.0251 1054.5,95.5C 1056.25,92.5399 1058.59,90.7066 1061.5,90C 1060.04,91.7448 1058.71,93.5781 1057.5,95.5C 1064.3,105.004 1063.64,105.671 1055.5,97.5C 1054.01,99.1493 1053.01,101.149 1052.5,103.5C 1051.51,98.8804 1051.17,94.2137 1051.5,89.5 Z"/></g>
<g><path style="opacity:1" fill="#5885ea" d="M 1066.5,92.5 C 1068.83,92.2471 1070.83,92.9137 1072.5,94.5C 1073.41,97.4212 1073.74,100.421 1073.5,103.5C 1069.99,104.006 1066.83,103.34 1064,101.5C 1063.49,100.004 1063.99,98.8373 1065.5,98C 1067.13,97.5065 1068.8,97.3398 1070.5,97.5C 1070.5,96.5 1070.5,95.5 1070.5,94.5C 1068.74,94.3573 1067.07,94.6906 1065.5,95.5C 1065.17,95.3333 1064.83,95.1667 1064.5,95C 1065.38,94.2917 1066.05,93.4584 1066.5,92.5 Z"/></g>
<g><path style="opacity:1" fill="#467aea" d="M 1117.5,92.5 C 1119.46,92.908 1121.46,93.2413 1123.5,93.5C 1122.37,94.2621 1121.21,94.9288 1120,95.5C 1119.82,98.2263 1119.32,100.893 1118.5,103.5C 1117.51,99.8927 1117.18,96.226 1117.5,92.5 Z"/></g>
<g><path style="opacity:1" fill="#5880e9" d="M 797.5,92.5 C 802.186,91.984 804.519,93.984 804.5,98.5C 802.167,98.5 799.833,98.5 797.5,98.5C 797.5,99.5 797.5,100.5 797.5,101.5C 799.869,101.149 802.203,100.982 804.5,101C 802.051,103.603 799.218,104.103 796,102.5C 793.729,98.6965 794.229,95.3632 797.5,92.5 Z"/></g>
<g><path style="opacity:1" fill="#f4f4fb" d="M 854.5,94.5 C 858.935,94.7521 860.268,96.9188 858.5,101C 853.57,101.427 852.237,99.2604 854.5,94.5 Z"/></g>
<g><path style="opacity:1" fill="#f6f8fc" d="M 893.5,94.5 C 894.822,94.33 895.989,94.6634 897,95.5C 897.495,97.4727 897.662,99.4727 897.5,101.5C 895.833,101.5 894.167,101.5 892.5,101.5C 892.298,99.0504 892.631,96.717 893.5,94.5 Z"/></g>
<g><path style="opacity:1" fill="#f5f6fb" d="M 912.5,94.5 C 916.935,94.7521 918.268,96.9188 916.5,101C 911.57,101.427 910.237,99.2604 912.5,94.5 Z"/></g>
<g><path style="opacity:1" fill="#edf3fb" d="M 965.5,94.5 C 966.822,94.33 967.989,94.6634 969,95.5C 969.495,97.4727 969.662,99.4727 969.5,101.5C 963.347,101.873 962.014,99.5394 965.5,94.5 Z"/></g>
<g><path style="opacity:1" fill="#8fc5f8" d="M 1018.5,90.5 C 1019.63,91.4695 1020.63,92.6362 1021.5,94C 1019.91,96.2562 1019.25,98.7562 1019.5,101.5C 1018.85,100.551 1018.51,99.3847 1018.5,98C 1018.68,96.3419 1019.34,95.0086 1020.5,94C 1019.03,93.2904 1018.36,92.1238 1018.5,90.5 Z"/></g>
<g><path style="opacity:1" fill="#dadbf3" d="M 798.5,94.5 C 800.346,94.2222 801.68,94.8888 802.5,96.5C 800.833,97.8333 799.167,97.8333 797.5,96.5C 797.863,95.8165 798.196,95.1499 798.5,94.5 Z"/></g>
<g><path style="opacity:1" fill="#ccd3f3" d="M 941.5,94.5 C 943.665,94.1159 945.332,94.7826 946.5,96.5C 944.5,97.8333 942.5,97.8333 940.5,96.5C 940.863,95.8165 941.196,95.1499 941.5,94.5 Z"/></g>
<g><path style="opacity:1" fill="#517be8" d="M 989.5,88.5 C 992.599,88.0923 994.933,89.259 996.5,92C 994.744,92.1405 993.078,91.6405 991.5,90.5C 990.328,90.9186 989.328,91.5853 988.5,92.5C 990.003,94.4216 992.003,95.5883 994.5,96C 997.671,100.143 996.671,102.643 991.5,103.5C 989.078,103.743 987.412,102.743 986.5,100.5C 986.833,100.167 987.167,99.8333 987.5,99.5C 989.51,101.171 991.843,101.838 994.5,101.5C 994.67,100.178 994.337,99.0113 993.5,98C 986.379,96.8058 985.046,93.6391 989.5,88.5 Z"/></g>
<g><path style="opacity:1" fill="#4a79e9" d="M 1107.5,92.5 C 1110.04,92.1043 1112.21,92.771 1114,94.5C 1114.82,97.5541 1114.65,100.554 1113.5,103.5C 1111.07,103.579 1108.57,103.245 1106,102.5C 1105.28,100.888 1105.45,99.3876 1106.5,98C 1108.58,97.8078 1110.58,97.3078 1112.5,96.5C 1111.25,94.31 1109.59,93.9766 1107.5,95.5C 1106.44,94.5754 1106.44,93.5754 1107.5,92.5 Z"/></g>
<g><path style="opacity:1" fill="#527ee9" d="M 777.5,89.5 C 778.376,89.3691 779.043,89.7025 779.5,90.5C 780.569,93.5394 781.735,96.5394 783,99.5C 784,96.5 785,93.5 786,90.5C 786.893,89.2888 787.726,89.2888 788.5,90.5C 786.355,94.5997 785.022,98.933 784.5,103.5C 783.325,103.719 782.325,103.386 781.5,102.5C 779.758,98.2746 778.424,93.9413 777.5,89.5 Z"/></g>
<g><path style="opacity:1" fill="#e0e4f7" d="M 1025.5,98.5 C 1026.83,98.5 1028.17,98.5 1029.5,98.5C 1029.83,101.5 1028.5,102.833 1025.5,102.5C 1025.5,101.167 1025.5,99.8333 1025.5,98.5 Z"/></g>
<g><path style="opacity:1" fill="#ecedf9" d="M 1066.5,98.5 C 1067.83,98.5 1069.17,98.5 1070.5,98.5C 1070.5,99.5 1070.5,100.5 1070.5,101.5C 1069.17,101.5 1067.83,101.5 1066.5,101.5C 1066.5,100.5 1066.5,99.5 1066.5,98.5 Z"/></g>
<g><path style="opacity:1" fill="#e2e9f8" d="M 1108.5,98.5 C 1113.24,98.8853 1113.57,100.219 1109.5,102.5C 1107.36,101.563 1107.02,100.23 1108.5,98.5 Z"/></g>
<g><path style="opacity:1" fill="#467be9" d="M 827.5,92.5 C 829.787,93.3552 832.12,93.5218 834.5,93C 838.092,95.9707 838.425,99.304 835.5,103C 833.559,103.743 831.726,103.576 830,102.5C 829.798,104.256 829.298,105.922 828.5,107.5C 827.506,102.544 827.173,97.544 827.5,92.5 Z"/></g>
<g><path style="opacity:1" fill="#f5f4fb" d="M 830.5,94.5 C 834.935,94.7521 836.268,96.9188 834.5,101C 829.57,101.427 828.237,99.2604 830.5,94.5 Z"/></g>
<g><path style="opacity:1" fill="#447de9" d="M 875.5,92.5 C 878.463,92.1507 880.796,93.1507 882.5,95.5C 882.167,95.8333 881.833,96.1667 881.5,96.5C 876.219,93.4222 874.219,95.0888 875.5,101.5C 877.869,101.149 880.203,100.982 882.5,101C 879.812,104.073 876.979,104.24 874,101.5C 873.068,98.1769 873.568,95.1769 875.5,92.5 Z"/></g>
<g><path style="opacity:1" fill="#467fea" d="M 1097.5,92.5 C 1100.02,92.1281 1102.02,92.9614 1103.5,95C 1095.7,94.5859 1095.53,95.7526 1103,98.5C 1103.72,100.112 1103.55,101.612 1102.5,103C 1100.5,103.667 1098.5,103.667 1096.5,103C 1096.04,102.586 1095.71,102.086 1095.5,101.5C 1097.42,101.433 1099.42,101.1 1101.5,100.5C 1099.82,99.218 1097.99,98.218 1096,97.5C 1095.36,95.4567 1095.86,93.7901 1097.5,92.5 Z"/></g>
<g><path style="opacity:1" fill="#a9b0b5" d="M 563.5,148.5 C 821.167,148.333 1078.83,148.5 1336.5,149C 1342.04,151.918 1346.37,156.085 1349.5,161.5C 1350.67,395.166 1350.83,628.833 1350,862.5C 1346.88,868.788 1342.05,873.121 1335.5,875.5C 1078.17,876.833 820.833,876.833 563.5,875.5C 558.5,872.5 554.5,868.5 551.5,863.5C 550.167,629.5 550.167,395.5 551.5,161.5C 554.826,156.492 558.826,152.159 563.5,148.5 Z"/></g>
<g><path style="opacity:1" fill="#fefefe" d="M 567.5,150.5 C 823.167,150.333 1078.83,150.5 1334.5,151C 1337.07,153.544 1340.07,155.377 1343.5,156.5C 1345.02,159.531 1346.52,162.531 1348,165.5C 1348.83,396.834 1348.67,628.167 1347.5,859.5C 1345.18,862.472 1343.84,865.805 1343.5,869.5C 1339.73,869.426 1336.73,870.926 1334.5,874C 1078.83,874.667 823.167,874.667 567.5,874C 564.531,872.516 561.531,871.016 558.5,869.5C 557.073,865.943 555.24,862.609 553,859.5C 552.333,628.167 552.333,396.833 553,165.5C 554.792,162.253 556.292,158.919 557.5,155.5C 561.14,154.347 564.474,152.68 567.5,150.5 Z"/></g>
<g><path style="opacity:1" fill="#a1a5a7" d="M 1152.5,774.5 C 1152.5,782.833 1152.5,791.167 1152.5,799.5C 1157.17,799.5 1161.83,799.5 1166.5,799.5C 1161.36,800.488 1156.03,800.821 1150.5,800.5C 1149.86,791.435 1150.53,782.769 1152.5,774.5 Z"/></g>
<g><path style="opacity:1" fill="#777b80" d="M 1123.5,774.5 C 1128.35,774.232 1133.01,774.898 1137.5,776.5C 1137.5,777.5 1137.5,778.5 1137.5,779.5C 1132.82,778.431 1128.16,778.431 1123.5,779.5C 1118.24,784.822 1118.24,790.155 1123.5,795.5C 1128.06,797.024 1132.39,796.691 1136.5,794.5C 1137.43,793.311 1137.76,791.978 1137.5,790.5C 1134.5,790.5 1131.5,790.5 1128.5,790.5C 1128.5,789.5 1128.5,788.5 1128.5,787.5C 1132.83,787.5 1137.17,787.5 1141.5,787.5C 1140.64,799.013 1134.64,803.013 1123.5,799.5C 1122.01,797.423 1120.01,796.423 1117.5,796.5C 1116.62,793.248 1115.96,789.915 1115.5,786.5C 1115.83,784.5 1116.17,782.5 1116.5,780.5C 1118.79,778.227 1121.12,776.227 1123.5,774.5 Z"/></g>
<g><path style="opacity:1" fill="#797d82" d="M 739.5,776.5 C 738.972,777.847 738.805,779.181 739,780.5C 742.564,777.592 746.397,776.925 750.5,778.5C 745.518,778.114 741.351,779.781 738,783.5C 737.668,796.36 743.334,799.693 755,793.5C 755.925,794.047 756.758,794.713 757.5,795.5C 740.585,804.222 732.918,799.222 734.5,780.5C 735.917,778.739 737.583,777.406 739.5,776.5 Z"/></g>
<g><path style="opacity:1" fill="#8f9296" d="M 1059.5,794.5 C 1061.22,793.2 1063.39,792.533 1066,792.5C 1068.63,792.581 1070.96,793.248 1073,794.5C 1073.17,793.667 1073.33,792.833 1073.5,792C 1072.79,789.568 1071.79,788.068 1070.5,787.5C 1068.05,785.86 1066.55,783.527 1066,780.5C 1064.95,783.295 1063.45,785.628 1061.5,787.5C 1061.5,786.167 1060.83,785.5 1059.5,785.5C 1060.28,781.949 1061.61,778.615 1063.5,775.5C 1065.05,774.548 1066.71,774.215 1068.5,774.5C 1072.09,783.009 1075.09,791.676 1077.5,800.5C 1073.79,799.958 1071.45,797.792 1070.5,794C 1066.74,793.245 1063.08,793.411 1059.5,794.5 Z"/></g>
<g><path style="opacity:1" fill="#7f8388" d="M 1086.5,774.5 C 1094.59,773.585 1101.42,775.918 1107,781.5C 1107.83,785.211 1107.66,788.878 1106.5,792.5C 1104.95,793.768 1103.95,795.435 1103.5,797.5C 1098.15,800.11 1092.49,801.11 1086.5,800.5C 1086.5,791.833 1086.5,783.167 1086.5,774.5 Z"/></g>
<g><path style="opacity:1" fill="#7d8286" d="M 985.5,774.5 C 987.167,774.5 988.833,774.5 990.5,774.5C 990.238,775.978 990.571,777.311 991.5,778.5C 994.178,782.831 997.178,786.831 1000.5,790.5C 1001.49,785.208 1001.83,779.875 1001.5,774.5C 1002.83,774.5 1004.17,774.5 1005.5,774.5C 1005.5,783.167 1005.5,791.833 1005.5,800.5C 1003.51,800.672 1001.84,800.005 1000.5,798.5C 997.121,792.805 993.788,787.138 990.5,781.5C 990.44,780.957 990.107,780.624 989.5,780.5C 988.504,786.798 988.17,793.132 988.5,799.5C 987.5,799.5 986.5,799.5 985.5,799.5C 985.5,791.167 985.5,782.833 985.5,774.5 Z"/></g>
<g><path style="opacity:1" fill="#666a70" d="M 1059.5,785.5 C 1060.83,785.5 1061.5,786.167 1061.5,787.5C 1062.51,788.765 1064.01,789.431 1066,789.5C 1067.99,789.431 1069.49,788.765 1070.5,787.5C 1071.79,788.068 1072.79,789.568 1073.5,792C 1073.33,792.833 1073.17,793.667 1073,794.5C 1070.96,793.248 1068.63,792.581 1066,792.5C 1063.39,792.533 1061.22,793.2 1059.5,794.5C 1058.5,796.011 1057.83,797.678 1057.5,799.5C 1056.45,799.649 1055.45,799.483 1054.5,799C 1056.23,794.571 1057.89,790.071 1059.5,785.5 Z"/></g>
<g><path style="opacity:1" fill="#6c7176" d="M 837.5,774.5 C 841.884,774.174 846.217,774.508 850.5,775.5C 854.228,778.773 855.228,782.773 853.5,787.5C 852.735,788.612 851.735,789.279 850.5,789.5C 846.901,790.344 843.234,790.677 839.5,790.5C 839.817,793.572 839.484,796.572 838.5,799.5C 837.502,791.193 837.169,782.86 837.5,774.5 Z"/></g>
<g><path style="opacity:1" fill="#73787d" d="M 886.5,774.5 C 891.5,774.5 896.5,774.5 901.5,774.5C 901.5,775.833 901.5,777.167 901.5,778.5C 897.833,778.5 894.167,778.5 890.5,778.5C 890.5,780.833 890.5,783.167 890.5,785.5C 893.833,785.5 897.167,785.5 900.5,785.5C 900.67,786.822 900.337,787.989 899.5,789C 896.518,789.498 893.518,789.665 890.5,789.5C 890.5,791.833 890.5,794.167 890.5,796.5C 894.167,796.5 897.833,796.5 901.5,796.5C 901.5,797.833 901.5,799.167 901.5,800.5C 896.5,800.5 891.5,800.5 886.5,800.5C 886.5,791.833 886.5,783.167 886.5,774.5 Z"/></g>
<g><path style="opacity:1" fill="#7b8085" d="M 801.5,774.5 C 802.978,774.238 804.311,774.571 805.5,775.5C 808.507,778.172 810.507,781.505 811.5,785.5C 812.935,787.401 814.602,787.734 816.5,786.5C 818.687,783.261 820.687,779.928 822.5,776.5C 823.524,775.147 824.857,774.48 826.5,774.5C 826.5,782.833 826.5,791.167 826.5,799.5C 825.5,799.5 824.5,799.5 823.5,799.5C 823.829,793.463 823.496,787.463 822.5,781.5C 820.52,785.07 818.686,788.736 817,792.5C 816.261,793.574 815.261,794.241 814,794.5C 811.236,790.613 808.57,786.613 806,782.5C 805.667,788.167 805.333,793.833 805,799.5C 803.989,800.337 802.822,800.67 801.5,800.5C 801.5,791.833 801.5,783.167 801.5,774.5 Z"/></g>
<g><path style="opacity:1" fill="#7d8186" d="M 774.5,774.5 C 789.577,774.636 794.91,781.969 790.5,796.5C 787.755,796.373 785.755,797.54 784.5,800C 770.604,801.603 764.604,795.437 766.5,781.5C 768.871,778.793 771.538,776.46 774.5,774.5 Z"/></g>
<g><path style="opacity:1" fill="#93969a" d="M 1045.5,776.5 C 1046.76,777.514 1047.43,779.014 1047.5,781C 1047.24,783.156 1046.58,785.156 1045.5,787C 1045.74,787.902 1046.08,788.735 1046.5,789.5C 1045.5,789.5 1044.5,789.5 1043.5,789.5C 1040.17,789.5 1036.83,789.5 1033.5,789.5C 1033.5,791.833 1033.5,794.167 1033.5,796.5C 1032.53,794.052 1032.19,791.385 1032.5,788.5C 1047.17,787.833 1047.17,787.167 1032.5,786.5C 1032.5,783.5 1032.5,780.5 1032.5,777.5C 1035.71,777.19 1038.71,777.523 1041.5,778.5C 1038.83,778.5 1036.17,778.5 1033.5,778.5C 1033.5,780.833 1033.5,783.167 1033.5,785.5C 1037.08,785.768 1040.42,785.101 1043.5,783.5C 1043.37,784.239 1043.54,784.906 1044,785.5C 1046.69,782.854 1047.19,779.854 1045.5,776.5 Z"/></g>
<g><path style="opacity:1" fill="#ebebec" d="M 1070.5,787.5 C 1069.49,788.765 1067.99,789.431 1066,789.5C 1064.01,789.431 1062.51,788.765 1061.5,787.5C 1063.45,785.628 1064.95,783.295 1066,780.5C 1066.55,783.527 1068.05,785.86 1070.5,787.5 Z"/></g>
<g><path style="opacity:1" fill="#f8f9f9" d="M 1090.5,778.5 C 1101.66,776.996 1105.66,781.663 1102.5,792.5C 1099.27,795.892 1095.27,797.226 1090.5,796.5C 1090.5,790.5 1090.5,784.5 1090.5,778.5 Z"/></g>
<g><path style="opacity:1" fill="#aeb0b3" d="M 927.5,774.5 C 928.434,775.568 928.768,776.901 928.5,778.5C 926.167,778.5 923.833,778.5 921.5,778.5C 921.5,785.833 921.5,793.167 921.5,800.5C 919.901,800.768 918.568,800.434 917.5,799.5C 919.463,792.576 920.13,785.243 919.5,777.5C 922.167,777.5 924.833,777.5 927.5,777.5C 927.5,776.5 927.5,775.5 927.5,774.5 Z"/></g>
<g><path style="opacity:1" fill="#f1f1f2" d="M 840.5,778.5 C 843.579,778.26 846.579,778.593 849.5,779.5C 851.027,786.137 848.36,788.637 841.5,787C 840.556,784.281 840.223,781.448 840.5,778.5 Z"/></g>
<g><path style="opacity:1" fill="#f8f8f8" d="M 775.5,778.5 C 787.84,777.842 791.506,783.176 786.5,794.5C 784.103,795.368 781.603,796.035 779,796.5C 770.439,794.363 767.606,789.029 770.5,780.5C 772.698,780.88 774.365,780.213 775.5,778.5 Z"/></g>
<g><path style="opacity:1" fill="#6c7177" d="M 927.5,774.5 C 927.5,775.5 927.5,776.5 927.5,777.5C 924.833,777.5 922.167,777.5 919.5,777.5C 920.13,785.243 919.463,792.576 917.5,799.5C 917.5,792.5 917.5,785.5 917.5,778.5C 915.167,778.5 912.833,778.5 910.5,778.5C 910.5,777.167 910.5,775.833 910.5,774.5C 916.167,774.5 921.833,774.5 927.5,774.5 Z"/></g>
<g><path style="opacity:1" fill="#71767b" d="M 1152.5,774.5 C 1157.17,774.5 1161.83,774.5 1166.5,774.5C 1166.5,775.833 1166.5,777.167 1166.5,778.5C 1162.5,778.5 1158.5,778.5 1154.5,778.5C 1154.5,780.833 1154.5,783.167 1154.5,785.5C 1158.17,785.5 1161.83,785.5 1165.5,785.5C 1165.5,786.833 1165.5,788.167 1165.5,789.5C 1161.83,789.5 1158.17,789.5 1154.5,789.5C 1154.5,791.833 1154.5,794.167 1154.5,796.5C 1158.5,796.5 1162.5,796.5 1166.5,796.5C 1166.5,797.5 1166.5,798.5 1166.5,799.5C 1161.83,799.5 1157.17,799.5 1152.5,799.5C 1152.5,791.167 1152.5,782.833 1152.5,774.5 Z"/></g>
<g><path style="opacity:1" fill="#676b71" d="M 1030.5,774.5 C 1035.73,774.075 1040.73,774.742 1045.5,776.5C 1047.19,779.854 1046.69,782.854 1044,785.5C 1043.54,784.906 1043.37,784.239 1043.5,783.5C 1043.92,781.219 1043.26,779.552 1041.5,778.5C 1038.71,777.523 1035.71,777.19 1032.5,777.5C 1032.5,780.5 1032.5,783.5 1032.5,786.5C 1047.17,787.167 1047.17,787.833 1032.5,788.5C 1032.19,791.385 1032.53,794.052 1033.5,796.5C 1036.83,796.5 1040.17,796.5 1043.5,796.5C 1043.5,794.167 1043.5,791.833 1043.5,789.5C 1044.5,789.5 1045.5,789.5 1046.5,789.5C 1046.74,792.609 1046.4,795.609 1045.5,798.5C 1040.56,799.392 1035.56,799.726 1030.5,799.5C 1030.5,791.167 1030.5,782.833 1030.5,774.5 Z"/></g>
<g><path style="opacity:1" fill="#f4f4f4" d="M 1043.5,789.5 C 1043.5,791.833 1043.5,794.167 1043.5,796.5C 1040.17,796.5 1036.83,796.5 1033.5,796.5C 1033.5,794.167 1033.5,791.833 1033.5,789.5C 1036.83,789.5 1040.17,789.5 1043.5,789.5 Z"/></g>
<g><path style="opacity:1" fill="#f3f4f4" d="M 1041.5,778.5 C 1043.26,779.552 1043.92,781.219 1043.5,783.5C 1040.42,785.101 1037.08,785.768 1033.5,785.5C 1033.5,783.167 1033.5,780.833 1033.5,778.5C 1036.17,778.5 1038.83,778.5 1041.5,778.5 Z"/></g>
<g><path style="opacity:1" fill="#c3c4c7" d="M 1030.5,774.5 C 1030.5,782.833 1030.5,791.167 1030.5,799.5C 1035.56,799.726 1040.56,799.392 1045.5,798.5C 1045.39,799.117 1045.06,799.617 1044.5,800C 1039.18,800.499 1033.84,800.666 1028.5,800.5C 1027.86,791.435 1028.53,782.769 1030.5,774.5 Z"/></g>
<g><path style="opacity:1" fill="#bcbec0" d="M 985.5,774.5 C 985.5,782.833 985.5,791.167 985.5,799.5C 986.5,799.5 987.5,799.5 988.5,799.5C 988.17,793.132 988.504,786.798 989.5,780.5C 990.107,780.624 990.44,780.957 990.5,781.5C 989.51,787.645 989.177,793.978 989.5,800.5C 987.833,800.5 986.167,800.5 984.5,800.5C 984.174,791.651 984.507,782.984 985.5,774.5 Z"/></g>
<g><path style="opacity:1" fill="#73787d" d="M 959.5,774.5 C 963.867,774.987 968.201,775.653 972.5,776.5C 972.284,778.681 973.117,780.347 975,781.5C 977.591,789.658 975.091,795.491 967.5,799C 952.631,800.617 947.297,794.117 951.5,779.5C 952.287,778.758 952.953,777.925 953.5,777C 956.051,776.998 958.051,776.164 959.5,774.5 Z"/></g>
<g><path style="opacity:1" fill="#f3f4f4" d="M 957.5,778.5 C 968.93,776.677 973.596,781.344 971.5,792.5C 965.704,797.784 959.871,797.784 954,792.5C 952.543,789.634 952.21,786.634 953,783.5C 954.707,781.963 956.207,780.296 957.5,778.5 Z"/></g>
<g><path style="opacity:1" fill="#c5c7c8" d="M 937.5,774.5 C 938.167,807.833 938.833,807.833 939.5,774.5C 941.47,782.769 942.136,791.435 941.5,800.5C 939.5,800.5 937.5,800.5 935.5,800.5C 934.864,791.435 935.53,782.769 937.5,774.5 Z"/></g>
<g><path style="opacity:1" fill="#696e74" d="M 937.5,774.5 C 938.167,774.5 938.833,774.5 939.5,774.5C 938.833,807.833 938.167,807.833 937.5,774.5 Z"/></g>
<g><path style="opacity:1" fill="#686d73" d="M 863.5,774.5 C 864.5,774.5 865.5,774.5 866.5,774.5C 866.5,781.833 866.5,789.167 866.5,796.5C 870.167,796.5 873.833,796.5 877.5,796.5C 877.5,797.5 877.5,798.5 877.5,799.5C 872.833,799.5 868.167,799.5 863.5,799.5C 863.5,791.167 863.5,782.833 863.5,774.5 Z"/></g>
<g><path style="opacity:1" fill="#cccecf" d="M 837.5,774.5 C 837.169,782.86 837.502,791.193 838.5,799.5C 839.484,796.572 839.817,793.572 839.5,790.5C 843.234,790.677 846.901,790.344 850.5,789.5C 848.012,791.388 845.012,792.055 841.5,791.5C 841.5,794.5 841.5,797.5 841.5,800.5C 839.5,800.5 837.5,800.5 835.5,800.5C 834.864,791.435 835.53,782.769 837.5,774.5 Z"/></g>
<g><path style="opacity:1" fill="#686d72" d="M 750.5,778.5 C 746.397,776.925 742.564,777.592 739,780.5C 738.805,779.181 738.972,777.847 739.5,776.5C 742.01,776.002 744.51,775.336 747,774.5C 750.595,775.041 753.428,776.708 755.5,779.5C 753.561,780.634 751.895,780.3 750.5,778.5 Z"/></g>
<g><path style="opacity:1" fill="#bdd0fa" d="M 970.5,725.5 C 970.279,726.735 969.612,727.735 968.5,728.5C 961.257,731.514 953.924,732.18 946.5,730.5C 950.846,730.666 955.179,730.499 959.5,730C 963.405,728.948 967.071,727.448 970.5,725.5 Z"/></g>
<g><path style="opacity:1" fill="#d6d8da" d="M 1008.5,696.5 C 1028.17,696.5 1047.83,696.5 1067.5,696.5C 1067.5,697.833 1067.5,699.167 1067.5,700.5C 1047.83,700.5 1028.17,700.5 1008.5,700.5C 1008.5,699.167 1008.5,697.833 1008.5,696.5 Z"/></g>
<g><path style="opacity:1" fill="#d6d8da" d="M 833.5,696.5 C 853.167,696.5 872.833,696.5 892.5,696.5C 892.5,697.833 892.5,699.167 892.5,700.5C 872.833,700.5 853.167,700.5 833.5,700.5C 833.5,699.167 833.5,697.833 833.5,696.5 Z"/></g>
<g><path style="opacity:1" fill="#4788f5" d="M 943.5,667.5 C 949.5,667.5 955.5,667.5 961.5,667.5C 964.345,669.023 967.345,670.023 970.5,670.5C 970.351,671.552 970.517,672.552 971,673.5C 977.427,677.143 981.593,682.643 983.5,690C 985.805,704.387 981.472,716.22 970.5,725.5C 967.071,727.448 963.405,728.948 959.5,730C 955.179,730.499 950.846,730.666 946.5,730.5C 940.849,730.672 936.183,728.672 932.5,724.5C 931.311,723.571 929.978,723.238 928.5,723.5C 924.954,718.806 922.287,713.473 920.5,707.5C 919.336,700.858 919.169,694.192 920,687.5C 923.914,679.418 929.747,673.085 937.5,668.5C 939.453,667.844 941.453,667.511 943.5,667.5 Z"/></g>
<g><path style="opacity:1" fill="#e6edfd" d="M 964.5,685.5 C 967.237,685.37 969.237,686.536 970.5,689C 965.658,695.34 960.324,701.173 954.5,706.5C 953.311,707.429 951.978,707.762 950.5,707.5C 949.663,710.516 947.829,712.85 945,714.5C 941.957,711.353 939.123,708.02 936.5,704.5C 935.311,703.571 933.978,703.238 932.5,703.5C 932.406,700.459 933.906,698.793 937,698.5C 939.167,700.333 941.333,702.167 943.5,704C 944.899,704.595 946.232,704.428 947.5,703.5C 953.526,697.808 959.193,691.808 964.5,685.5 Z"/></g>
<g><path style="opacity:1" fill="#aac3f9" d="M 961.5,667.5 C 955.5,667.5 949.5,667.5 943.5,667.5C 943.611,666.883 943.944,666.383 944.5,666C 950.436,665.057 956.103,665.557 961.5,667.5 Z"/></g>
<g><path style="opacity:1" fill="#9d9fa3" d="M 753.5,541.5 C 753.5,537.5 753.5,533.5 753.5,529.5C 744.167,529.5 734.833,529.5 725.5,529.5C 725.5,531.5 725.5,533.5 725.5,535.5C 732.687,535.175 739.687,535.509 746.5,536.5C 738.833,536.5 731.167,536.5 723.5,536.5C 723.5,533.833 723.5,531.167 723.5,528.5C 733.833,528.5 744.167,528.5 754.5,528.5C 754.818,533.032 754.485,537.366 753.5,541.5 Z"/></g>
<g><path style="opacity:1" fill="#c4c6c7" d="M 1150.5,518.5 C 1153.29,517.523 1156.29,517.19 1159.5,517.5C 1160.15,532.538 1159.48,547.205 1157.5,561.5C 1157.5,547.167 1157.5,532.833 1157.5,518.5C 1155.17,518.5 1152.83,518.5 1150.5,518.5 Z"/></g>
<g><path style="opacity:1" fill="#61656b" d="M 1130.5,550.5 C 1130.72,551.735 1131.39,552.735 1132.5,553.5C 1140.38,556.022 1146.21,553.688 1150,546.5C 1150.5,537.173 1150.67,527.839 1150.5,518.5C 1152.83,518.5 1155.17,518.5 1157.5,518.5C 1157.5,532.833 1157.5,547.167 1157.5,561.5C 1155.17,561.5 1152.83,561.5 1150.5,561.5C 1150.5,559.833 1150.5,558.167 1150.5,556.5C 1145.75,558.13 1140.91,559.797 1136,561.5C 1127.12,561.448 1122.29,557.115 1121.5,548.5C 1121.5,538.5 1121.5,528.5 1121.5,518.5C 1123.5,518.5 1125.5,518.5 1127.5,518.5C 1127.33,526.84 1127.5,535.173 1128,543.5C 1127.97,546.361 1128.8,548.695 1130.5,550.5 Z"/></g>
<g><path style="opacity:1" fill="#b6b8bb" d="M 1130.5,550.5 C 1128.8,548.695 1127.97,546.361 1128,543.5C 1127.5,535.173 1127.33,526.84 1127.5,518.5C 1125.5,518.5 1123.5,518.5 1121.5,518.5C 1121.5,528.5 1121.5,538.5 1121.5,548.5C 1119.52,538.554 1118.86,528.221 1119.5,517.5C 1122.83,517.5 1126.17,517.5 1129.5,517.5C 1129.23,528.538 1129.57,539.538 1130.5,550.5 Z"/></g>
<g><path style="opacity:1" fill="#686d73" d="M 1099.5,519.5 C 1103.12,521.607 1106.62,523.94 1110,526.5C 1113.42,535.227 1113.25,543.894 1109.5,552.5C 1107.57,555.451 1104.9,557.118 1101.5,557.5C 1101.64,559.124 1100.97,560.29 1099.5,561C 1081.37,564.956 1071.7,557.789 1070.5,539.5C 1070.07,531.669 1073.07,525.669 1079.5,521.5C 1085.97,518.737 1092.64,518.071 1099.5,519.5 Z"/></g>
<g><path style="opacity:1" fill="#f9f9f9" d="M 1085.5,525.5 C 1100.56,524.057 1106.73,530.723 1104,545.5C 1099.96,553.811 1093.46,556.478 1084.5,553.5C 1082.52,550.688 1080.36,548.022 1078,545.5C 1077.17,541.129 1077.34,536.795 1078.5,532.5C 1080.32,531.272 1081.32,529.606 1081.5,527.5C 1083.48,527.843 1084.82,527.176 1085.5,525.5 Z"/></g>
<g><path style="opacity:1" fill="#686d72" d="M 941.5,518.5 C 958.205,517.208 966.538,524.875 966.5,541.5C 955.833,541.5 945.167,541.5 934.5,541.5C 933.412,546.249 935.079,549.249 939.5,550.5C 939.33,551.822 939.663,552.989 940.5,554C 945.167,554.667 949.833,554.667 954.5,554C 957.728,549.209 961.728,548.376 966.5,551.5C 965.359,553.808 963.692,555.641 961.5,557C 956.591,559.397 951.425,560.897 946,561.5C 943.04,561.557 940.207,561.057 937.5,560C 922.461,549.283 920.794,536.783 932.5,522.5C 935.561,521.054 938.561,519.721 941.5,518.5 Z"/></g>
<g><path style="opacity:1" fill="#f3f3f4" d="M 943.5,525.5 C 947.914,525.831 952.248,526.665 956.5,528C 958.457,529.746 959.457,531.912 959.5,534.5C 951.14,534.831 942.807,534.498 934.5,533.5C 936.139,529.198 939.139,526.531 943.5,525.5 Z"/></g>
<g><path style="opacity:1" fill="#686d73" d="M 874.5,517.5 C 877.572,517.183 880.572,517.516 883.5,518.5C 887.108,519.813 890.441,521.48 893.5,523.5C 893.261,521.533 893.594,519.699 894.5,518C 896.81,517.503 899.143,517.337 901.5,517.5C 901.833,532.848 901.499,548.181 900.5,563.5C 899.622,571.263 895.455,576.263 888,578.5C 876.984,581.827 868.151,578.993 861.5,570C 862.639,566.702 864.972,565.202 868.5,565.5C 869.172,568.35 870.839,570.517 873.5,572C 885.155,574.781 892.155,570.448 894.5,559C 894.167,557.5 893.833,556 893.5,554.5C 880.48,565.082 869.313,563.415 860,549.5C 857.363,538.053 860.196,528.386 868.5,520.5C 870.884,519.989 872.884,518.989 874.5,517.5 Z"/></g>
<g><path style="opacity:1" fill="#f7f8f8" d="M 874.5,525.5 C 888.989,523.822 895.156,530.155 893,544.5C 889.517,553.727 883.017,556.727 873.5,553.5C 872.167,550.833 870.167,548.833 867.5,547.5C 864.407,538.227 866.74,530.894 874.5,525.5 Z"/></g>
<g><path style="opacity:1" fill="#686d73" d="M 839.5,519.5 C 843.115,521.607 846.615,523.94 850,526.5C 853.415,535.227 853.248,543.894 849.5,552.5C 847.566,555.451 844.899,557.118 841.5,557.5C 841.64,559.124 840.973,560.29 839.5,561C 821.37,564.956 811.703,557.789 810.5,539.5C 810.067,531.669 813.067,525.669 819.5,521.5C 825.973,518.737 832.639,518.071 839.5,519.5 Z"/></g>
<g><path style="opacity:1" fill="#f9f9f9" d="M 825.5,525.5 C 840.559,524.057 846.726,530.723 844,545.5C 839.964,553.811 833.464,556.478 824.5,553.5C 822.523,550.688 820.356,548.022 818,545.5C 817.172,541.129 817.339,536.795 818.5,532.5C 820.321,531.272 821.321,529.606 821.5,527.5C 823.483,527.843 824.817,527.176 825.5,525.5 Z"/></g>
<g><path style="opacity:1" fill="#686d73" d="M 790.5,519.5 C 803.68,527.192 807.014,538.192 800.5,552.5C 798.981,553.851 797.648,555.351 796.5,557C 794.045,557.394 792.045,558.56 790.5,560.5C 783.831,561.666 777.164,561.666 770.5,560.5C 770.719,559.325 770.386,558.325 769.5,557.5C 762.841,553.808 760.174,548.141 761.5,540.5C 761.614,535.676 762.447,531.01 764,526.5C 765.956,524.452 768.123,522.786 770.5,521.5C 776.91,518.459 783.576,517.792 790.5,519.5 Z"/></g>
<g><path style="opacity:1" fill="#f8f9f9" d="M 777.5,525.5 C 792.093,524.589 797.926,531.256 795,545.5C 792.599,551.082 788.432,554.082 782.5,554.5C 778.093,554.212 774.093,552.878 770.5,550.5C 768.455,544.64 768.122,538.64 769.5,532.5C 771.618,529.371 774.285,527.038 777.5,525.5 Z"/></g>
<g><path style="opacity:1" fill="#aaadb0" d="M 1099.5,519.5 C 1092.64,518.071 1085.97,518.737 1079.5,521.5C 1080.34,520.057 1081.67,519.057 1083.5,518.5C 1086.17,518.167 1088.83,517.833 1091.5,517.5C 1094.59,517.522 1097.26,518.188 1099.5,519.5 Z"/></g>
<g><path style="opacity:1" fill="#aaadb0" d="M 839.5,519.5 C 832.639,518.071 825.973,518.737 819.5,521.5C 820.335,520.057 821.668,519.057 823.5,518.5C 826.167,518.167 828.833,517.833 831.5,517.5C 834.59,517.522 837.257,518.188 839.5,519.5 Z"/></g>
<g><path style="opacity:1" fill="#b0b3b6" d="M 790.5,519.5 C 783.576,517.792 776.91,518.459 770.5,521.5C 771.348,519.907 772.681,518.74 774.5,518C 777.167,517.833 779.833,517.667 782.5,517.5C 785.59,517.522 788.257,518.188 790.5,519.5 Z"/></g>
<g><path style="opacity:1" fill="#676b71" d="M 1201.5,499.5 C 1203.83,499.5 1206.17,499.5 1208.5,499.5C 1208.5,520.167 1208.5,540.833 1208.5,561.5C 1206.17,561.5 1203.83,561.5 1201.5,561.5C 1201.81,559.076 1201.47,556.743 1200.5,554.5C 1198.55,557.6 1195.88,559.767 1192.5,561C 1182.23,563.412 1174.23,560.245 1168.5,551.5C 1168.19,550.692 1167.69,550.025 1167,549.5C 1166.17,543.141 1166.34,536.807 1167.5,530.5C 1169.34,528.488 1170.34,526.155 1170.5,523.5C 1175.26,520.674 1180.43,518.674 1186,517.5C 1189.59,518.195 1193.09,519.195 1196.5,520.5C 1197.17,522.5 1198.5,523.833 1200.5,524.5C 1201.5,516.193 1201.83,507.86 1201.5,499.5 Z"/></g>
<g><path style="opacity:1" fill="#f5f5f6" d="M 1181.5,525.5 C 1186.82,524.979 1191.82,525.979 1196.5,528.5C 1201.4,533.239 1202.73,538.905 1200.5,545.5C 1198.32,548.054 1196.32,550.72 1194.5,553.5C 1189.87,554.662 1185.2,554.828 1180.5,554C 1179.66,552.989 1179.33,551.822 1179.5,550.5C 1178.17,550.5 1176.83,550.5 1175.5,550.5C 1173.86,545.273 1173.36,539.94 1174,534.5C 1175.76,530.751 1178.26,527.751 1181.5,525.5 Z"/></g>
<g><path style="opacity:1" fill="#85898d" d="M 1062.5,561.5 C 1062.5,541.167 1062.5,520.833 1062.5,500.5C 1060.5,500.5 1058.5,500.5 1056.5,500.5C 1056.5,520.833 1056.5,541.167 1056.5,561.5C 1055.5,541.007 1055.17,520.34 1055.5,499.5C 1058.17,499.5 1060.83,499.5 1063.5,499.5C 1063.83,520.34 1063.5,541.007 1062.5,561.5 Z"/></g>
<g><path style="opacity:1" fill="#5e6369" d="M 1062.5,561.5 C 1060.5,561.5 1058.5,561.5 1056.5,561.5C 1056.5,541.167 1056.5,520.833 1056.5,500.5C 1058.5,500.5 1060.5,500.5 1062.5,500.5C 1062.5,520.833 1062.5,541.167 1062.5,561.5 Z"/></g>
<g><path style="opacity:1" fill="#6b7075" d="M 1012.5,499.5 C 1019.2,499.17 1025.87,499.503 1032.5,500.5C 1036.05,502.824 1039.72,504.99 1043.5,507C 1045.02,510.116 1044.02,511.95 1040.5,512.5C 1034.06,510.264 1027.56,508.598 1021,507.5C 1006.58,508.291 998.745,515.957 997.5,530.5C 1000.56,549.218 1011.56,556.885 1030.5,553.5C 1033.17,552.16 1035.84,550.827 1038.5,549.5C 1039.43,548.311 1039.76,546.978 1039.5,545.5C 1042.51,545.423 1044.68,546.756 1046,549.5C 1046.71,551.367 1046.21,552.867 1044.5,554C 1031.83,562.526 1018.5,563.693 1004.5,557.5C 1000.53,555.029 997.365,551.696 995,547.5C 994.606,545.045 993.44,543.045 991.5,541.5C 987.025,525.671 991.358,513.171 1004.5,504C 1006.58,503.808 1008.58,503.308 1010.5,502.5C 1011.61,501.735 1012.28,500.735 1012.5,499.5 Z"/></g>
<g><path style="opacity:1" fill="#d0d1d2" d="M 917.5,561.5 C 917.5,541.167 917.5,520.833 917.5,500.5C 915.167,500.5 912.833,500.5 910.5,500.5C 910.5,520.833 910.5,541.167 910.5,561.5C 908.512,541.194 907.845,520.527 908.5,499.5C 911.833,499.5 915.167,499.5 918.5,499.5C 918.831,520.34 918.497,541.007 917.5,561.5 Z"/></g>
<g><path style="opacity:1" fill="#5e6369" d="M 917.5,561.5 C 915.167,561.5 912.833,561.5 910.5,561.5C 910.5,541.167 910.5,520.833 910.5,500.5C 912.833,500.5 915.167,500.5 917.5,500.5C 917.5,520.833 917.5,541.167 917.5,561.5 Z"/></g>
<g><path style="opacity:1" fill="#676c72" d="M 746.5,536.5 C 739.687,535.509 732.687,535.175 725.5,535.5C 725.5,533.5 725.5,531.5 725.5,529.5C 734.833,529.5 744.167,529.5 753.5,529.5C 753.5,533.5 753.5,537.5 753.5,541.5C 751.435,550.232 746.102,555.565 737.5,557.5C 737.5,558.5 737.5,559.5 737.5,560.5C 726.785,562.651 716.452,561.651 706.5,557.5C 705.115,556.449 704.115,555.116 703.5,553.5C 702.311,552.571 700.978,552.238 699.5,552.5C 698.013,547.9 695.846,543.567 693,539.5C 690.83,532.047 691.163,524.714 694,517.5C 707.371,499.48 724.205,495.647 744.5,506C 746.037,507.11 746.703,508.61 746.5,510.5C 744.723,510.786 743.056,511.453 741.5,512.5C 730.73,506.224 719.73,505.891 708.5,511.5C 702.345,516.131 699.345,522.298 699.5,530C 700.214,535.785 701.88,541.285 704.5,546.5C 707.937,549.06 711.604,551.394 715.5,553.5C 726.385,556.671 735.718,554.338 743.5,546.5C 745.668,543.502 746.668,540.169 746.5,536.5 Z"/></g>
<g><path style="opacity:1" fill="#afb1b4" d="M 857.5,423.5 C 858.75,423.577 859.583,424.244 860,425.5C 860.936,429.114 861.436,432.78 861.5,436.5C 850.167,436.5 838.833,436.5 827.5,436.5C 827.5,438.167 827.5,439.833 827.5,441.5C 826.539,439.735 826.205,437.735 826.5,435.5C 837.5,435.5 848.5,435.5 859.5,435.5C 859.466,431.37 858.799,427.37 857.5,423.5 Z"/></g>
<g><path style="opacity:1" fill="#a4a7aa" d="M 1150.5,415.5 C 1153.54,416.882 1155.54,419.215 1156.5,422.5C 1157.43,433.809 1157.77,445.142 1157.5,456.5C 1154.5,456.5 1151.5,456.5 1148.5,456.5C 1148.5,446.167 1148.5,435.833 1148.5,425.5C 1149.49,435.319 1149.83,445.319 1149.5,455.5C 1151.5,455.5 1153.5,455.5 1155.5,455.5C 1155.83,444.147 1155.5,432.814 1154.5,421.5C 1153.13,419.473 1151.79,417.473 1150.5,415.5 Z"/></g>
<g><path style="opacity:1" fill="#b8babd" d="M 1004.5,423.5 C 1003.54,429.409 1003.21,435.409 1003.5,441.5C 1001.97,439.366 1001.3,436.866 1001.5,434C 1001.65,431.309 1001.99,428.642 1002.5,426C 1002.68,424.624 1003.35,423.791 1004.5,423.5 Z"/></g>
<g><path style="opacity:1" fill="#cacbcd" d="M 997.5,419.5 C 995.052,420.473 992.385,420.806 989.5,420.5C 989.196,429.584 989.529,438.584 990.5,447.5C 989.069,447.119 988.236,446.119 988,444.5C 987.333,436.5 987.333,428.5 988,420.5C 991.057,419.549 994.223,419.216 997.5,419.5 Z"/></g>
<g><path style="opacity:1" fill="#a4a6a9" d="M 974.5,412.5 C 972.267,418.924 974.6,421.257 981.5,419.5C 981.5,429.167 981.5,438.833 981.5,448.5C 979.528,439.56 978.861,430.227 979.5,420.5C 977.167,420.5 974.833,420.5 972.5,420.5C 971.964,417.302 972.631,414.635 974.5,412.5 Z"/></g>
<g><path style="opacity:1" fill="#64696f" d="M 1119.5,412.5 C 1122.17,412.5 1124.83,412.5 1127.5,412.5C 1126.66,417.837 1128,418.67 1131.5,415C 1135.28,413.962 1139.12,413.128 1143,412.5C 1146.05,412.484 1148.55,413.484 1150.5,415.5C 1151.79,417.473 1153.13,419.473 1154.5,421.5C 1155.5,432.814 1155.83,444.147 1155.5,455.5C 1153.5,455.5 1151.5,455.5 1149.5,455.5C 1149.83,445.319 1149.49,435.319 1148.5,425.5C 1146.5,421.834 1143.33,419.834 1139,419.5C 1136.39,419.375 1134.06,420.042 1132,421.5C 1129.82,422.516 1128.66,424.182 1128.5,426.5C 1126.53,435.775 1125.86,445.442 1126.5,455.5C 1124.17,455.5 1121.83,455.5 1119.5,455.5C 1119.5,441.167 1119.5,426.833 1119.5,412.5 Z"/></g>
<g><path style="opacity:1" fill="#c4c6c7" d="M 1119.5,412.5 C 1119.5,426.833 1119.5,441.167 1119.5,455.5C 1121.83,455.5 1124.17,455.5 1126.5,455.5C 1125.86,445.442 1126.53,435.775 1128.5,426.5C 1127.53,436.418 1127.19,446.418 1127.5,456.5C 1124.17,456.5 1120.83,456.5 1117.5,456.5C 1116.85,441.462 1117.52,426.795 1119.5,412.5 Z"/></g>
<g><path style="opacity:1" fill="#676c71" d="M 1086.5,412.5 C 1106.42,412.411 1114.76,422.077 1111.5,441.5C 1104.59,454.904 1093.93,458.904 1079.5,453.5C 1071.03,445.598 1068.37,435.932 1071.5,424.5C 1073.6,421.304 1075.93,418.304 1078.5,415.5C 1081.65,415.234 1084.32,414.234 1086.5,412.5 Z"/></g>
<g><path style="opacity:1" fill="#f9f9f9" d="M 1086.5,419.5 C 1101.48,419.495 1107.15,426.828 1103.5,441.5C 1102.3,444.415 1100.3,446.581 1097.5,448C 1089.53,450.327 1083.19,448.16 1078.5,441.5C 1077.34,437.205 1077.17,432.871 1078,428.5C 1080.53,425.165 1083.36,422.165 1086.5,419.5 Z"/></g>
<g><path style="opacity:1" fill="#686d72" d="M 1003.5,441.5 C 1003.21,435.409 1003.54,429.409 1004.5,423.5C 1010.23,413.145 1018.9,409.645 1030.5,413C 1040.06,417.882 1044.39,425.715 1043.5,436.5C 1032.5,436.5 1021.5,436.5 1010.5,436.5C 1010.9,441.541 1013.23,445.374 1017.5,448C 1024.61,449.438 1030.94,447.938 1036.5,443.5C 1037.84,445.005 1039.51,445.672 1041.5,445.5C 1040.3,449.039 1037.97,451.706 1034.5,453.5C 1020.26,458.874 1009.93,454.874 1003.5,441.5 Z"/></g>
<g><path style="opacity:1" fill="#f1f2f2" d="M 1016.5,419.5 C 1021.21,419.173 1025.88,419.507 1030.5,420.5C 1033.45,422.434 1035.12,425.101 1035.5,428.5C 1027.83,428.5 1020.17,428.5 1012.5,428.5C 1013.44,425.336 1014.78,422.336 1016.5,419.5 Z"/></g>
<g><path style="opacity:1" fill="#60656b" d="M 956.5,412.5 C 958.833,412.5 961.167,412.5 963.5,412.5C 963.5,426.833 963.5,441.167 963.5,455.5C 961.167,455.5 958.833,455.5 956.5,455.5C 956.5,441.167 956.5,426.833 956.5,412.5 Z"/></g>
<g><path style="opacity:1" fill="#afb2b5" d="M 956.5,412.5 C 956.5,426.833 956.5,441.167 956.5,455.5C 958.833,455.5 961.167,455.5 963.5,455.5C 961.052,456.473 958.385,456.806 955.5,456.5C 955.171,441.657 955.504,426.99 956.5,412.5 Z"/></g>
<g><path style="opacity:1" fill="#696e73" d="M 928.5,412.5 C 935.258,412.53 941.591,414.197 947.5,417.5C 948.429,418.689 948.762,420.022 948.5,421.5C 946.179,421.229 944.179,421.896 942.5,423.5C 940.248,420.613 937.248,419.28 933.5,419.5C 929.927,419.399 926.594,420.066 923.5,421.5C 923.5,423.5 923.5,425.5 923.5,427.5C 929.423,428.972 935.423,430.139 941.5,431C 946.168,433.673 948.501,437.673 948.5,443C 948.631,450.534 944.964,454.534 937.5,455C 932.07,455.638 926.736,455.138 921.5,453.5C 918.146,450.761 915.812,447.427 914.5,443.5C 917.336,442.224 920.336,441.558 923.5,441.5C 922.974,444.808 924.307,446.974 927.5,448C 932.196,448.914 936.696,448.414 941,446.5C 941.814,444.098 941.647,441.765 940.5,439.5C 932.992,436.705 925.325,434.372 917.5,432.5C 914.137,426.037 915.137,420.371 920.5,415.5C 922.776,414.787 925.109,414.287 927.5,414C 928.056,413.617 928.389,413.117 928.5,412.5 Z"/></g>
<g><path style="opacity:1" fill="#686d72" d="M 857.5,423.5 C 858.799,427.37 859.466,431.37 859.5,435.5C 848.5,435.5 837.5,435.5 826.5,435.5C 826.205,437.735 826.539,439.735 827.5,441.5C 832.113,448.168 838.446,450.335 846.5,448C 850.103,443.852 854.436,442.686 859.5,444.5C 859.5,445.833 859.5,447.167 859.5,448.5C 858.022,448.238 856.689,448.571 855.5,449.5C 847.467,457.222 838.467,458.555 828.5,453.5C 820.251,445.964 817.417,436.63 820,425.5C 828.769,411.047 840.269,408.713 854.5,418.5C 855.554,420.201 856.554,421.868 857.5,423.5 Z"/></g>
<g><path style="opacity:1" fill="#f4f4f4" d="M 832.5,419.5 C 837.214,419.173 841.88,419.507 846.5,420.5C 849.395,422.407 850.728,425.074 850.5,428.5C 843.167,428.5 835.833,428.5 828.5,428.5C 829.444,425.336 830.778,422.336 832.5,419.5 Z"/></g>
<g><path style="opacity:1" fill="#989b9e" d="M 988.5,412.5 C 986.577,408.971 985.911,404.971 986.5,400.5C 984.833,400.5 983.167,400.5 981.5,400.5C 982.089,404.971 981.423,408.971 979.5,412.5C 979.5,408.167 979.5,403.833 979.5,399.5C 982.5,399.5 985.5,399.5 988.5,399.5C 988.5,403.833 988.5,408.167 988.5,412.5 Z"/></g>
<g><path style="opacity:1" fill="#65696f" d="M 988.5,412.5 C 991.5,412.5 994.5,412.5 997.5,412.5C 997.5,414.833 997.5,417.167 997.5,419.5C 994.223,419.216 991.057,419.549 988,420.5C 987.333,428.5 987.333,436.5 988,444.5C 988.236,446.119 989.069,447.119 990.5,447.5C 993.237,448.051 995.904,449.051 998.5,450.5C 999.893,452.674 999.56,454.507 997.5,456C 990.198,457.391 984.864,454.891 981.5,448.5C 981.5,438.833 981.5,429.167 981.5,419.5C 974.6,421.257 972.267,418.924 974.5,412.5C 976.167,412.5 977.833,412.5 979.5,412.5C 981.423,408.971 982.089,404.971 981.5,400.5C 983.167,400.5 984.833,400.5 986.5,400.5C 985.911,404.971 986.577,408.971 988.5,412.5 Z"/></g>
<g><path style="opacity:1" fill="#696e73" d="M 866.5,394.5 C 869.167,394.5 871.833,394.5 874.5,394.5C 874.5,402.167 874.5,409.833 874.5,417.5C 877.702,417.371 880.035,415.871 881.5,413C 898.747,410.098 907.747,417.264 908.5,434.5C 908.446,447.514 901.78,454.514 888.5,455.5C 883.337,455.433 878.837,453.767 875,450.5C 874.505,452.473 874.338,454.473 874.5,456.5C 871.833,456.5 869.167,456.5 866.5,456.5C 866.5,435.833 866.5,415.167 866.5,394.5 Z"/></g>
<g><path style="opacity:1" fill="#f6f6f6" d="M 881.5,419.5 C 885.884,419.174 890.217,419.508 894.5,420.5C 904.378,430.563 903.711,439.73 892.5,448C 883.736,450.7 877.569,447.867 874,439.5C 873.172,435.129 873.339,430.795 874.5,426.5C 877.543,424.791 879.876,422.457 881.5,419.5 Z"/></g>
<g><path style="opacity:1" fill="#d5d6d7" d="M 866.5,394.5 C 866.5,415.167 866.5,435.833 866.5,456.5C 865.168,446.522 864.501,436.189 864.5,425.5C 864.501,414.811 865.168,404.478 866.5,394.5 Z"/></g>
<g><path style="opacity:1" fill="#696e73" d="M 741.5,394.5 C 744.5,394.5 747.5,394.5 750.5,394.5C 753.669,406.282 756.336,418.282 758.5,430.5C 760.115,434.064 761.448,437.73 762.5,441.5C 767.814,429.225 772.148,416.558 775.5,403.5C 778.833,403.5 782.167,403.5 785.5,403.5C 785.572,406.193 785.905,408.86 786.5,411.5C 789.737,421.005 793.237,430.338 797,439.5C 798.617,438.149 799.784,436.482 800.5,434.5C 804.032,422.342 806.865,410.008 809,397.5C 809.374,396.584 809.874,395.75 810.5,395C 812.81,394.503 815.143,394.337 817.5,394.5C 817.663,396.857 817.497,399.19 817,401.5C 812.723,414.068 808.89,426.735 805.5,439.5C 804.422,444.455 803.589,449.455 803,454.5C 800.519,456.314 797.685,456.98 794.5,456.5C 789.288,443.398 784.621,430.065 780.5,416.5C 779.833,416.833 779.167,417.167 778.5,417.5C 774.145,430.06 770.312,442.726 767,455.5C 763.943,456.451 760.777,456.784 757.5,456.5C 757.065,449.699 755.899,443.032 754,436.5C 749.101,422.748 744.934,408.748 741.5,394.5 Z"/></g>
<g><path style="opacity:1" fill="#6c7076" d="M 957.5,392.5 C 964.332,392.561 966.332,395.894 963.5,402.5C 957.169,403.845 954.169,401.178 954.5,394.5C 956.179,394.715 957.179,394.048 957.5,392.5 Z"/></g>
<g><path style="opacity:1" fill="#a2c0f9" d="M 919.5,281.5 C 918.652,283.093 917.319,284.26 915.5,285C 911.311,285.812 907.311,285.645 903.5,284.5C 909.071,284.652 914.405,283.652 919.5,281.5 Z"/></g>
<g><path style="opacity:1" fill="#f49c96" d="M 839.5,270.5 C 843.199,271.579 846.865,271.579 850.5,270.5C 849.129,271.787 847.295,272.453 845,272.5C 842.705,272.453 840.871,271.787 839.5,270.5 Z"/></g>
<g><path style="opacity:1" fill="#a6c2f9" d="M 797.5,270.5 C 803.145,271.716 808.812,271.716 814.5,270.5C 814.082,271.222 813.416,271.722 812.5,272C 810,272.167 807.5,272.333 805,272.5C 802.071,272.475 799.571,271.809 797.5,270.5 Z"/></g>
<g><path style="opacity:1" fill="#f5afac" d="M 947.5,261.5 C 947.414,262.496 947.748,263.329 948.5,264C 951.482,264.498 954.482,264.665 957.5,264.5C 954.863,266.427 951.863,266.927 948.5,266C 946.422,264.73 946.088,263.23 947.5,261.5 Z"/></g>
<g><path style="opacity:1" fill="#a1bef9" d="M 896.5,250.5 C 896.274,255.562 896.608,260.562 897.5,265.5C 895.245,263.241 894.245,260.408 894.5,257C 894.336,254.456 895.003,252.29 896.5,250.5 Z"/></g>
<g><path style="opacity:1" fill="#f4a5a1" d="M 939.5,250.5 C 939.5,254.833 939.5,259.167 939.5,263.5C 938.2,261.777 937.533,259.61 937.5,257C 937.533,254.39 938.2,252.223 939.5,250.5 Z"/></g>
<g><path style="opacity:1" fill="#fcdb98" d="M 890.5,251.5 C 891.777,252.694 892.444,254.36 892.5,256.5C 892.444,258.64 891.777,260.306 890.5,261.5C 890.5,258.167 890.5,254.833 890.5,251.5 Z"/></g>
<g><path style="opacity:1" fill="#bfd2fb" d="M 787.5,235.5 C 787.083,238.343 786.083,241.01 784.5,243.5C 783.516,246.428 783.183,249.428 783.5,252.5C 781.185,250.023 780.851,247.19 782.5,244C 783.557,240.705 785.224,237.872 787.5,235.5 Z"/></g>
<g><path style="opacity:1" fill="#a3bef9" d="M 826.5,257.5 C 826.5,254.5 826.5,251.5 826.5,248.5C 820.167,248.5 813.833,248.5 807.5,248.5C 807.5,249.833 807.5,251.167 807.5,252.5C 811.514,252.334 815.514,252.501 819.5,253C 821.774,254.355 821.774,255.855 819.5,257.5C 819.5,256.5 819.5,255.5 819.5,254.5C 815.154,254.666 810.821,254.499 806.5,254C 805.409,251.936 805.242,249.769 806,247.5C 813.079,246.52 820.245,246.187 827.5,246.5C 827.815,250.371 827.482,254.038 826.5,257.5 Z"/></g>
<g><path style="opacity:1" fill="#6f7379" d="M 1114.5,270.5 C 1113.82,268.824 1112.48,268.157 1110.5,268.5C 1110.64,270.124 1109.97,271.29 1108.5,272C 1105.45,272.821 1102.45,272.655 1099.5,271.5C 1094.02,268.492 1091.02,263.992 1090.5,258C 1090.93,246.417 1096.93,241.583 1108.5,243.5C 1109.57,245.216 1111.24,246.216 1113.5,246.5C 1114.49,241.88 1114.83,237.214 1114.5,232.5C 1115.5,232.5 1116.5,232.5 1117.5,232.5C 1117.5,245.167 1117.5,257.833 1117.5,270.5C 1116.5,270.5 1115.5,270.5 1114.5,270.5 Z"/></g>
<g><path style="opacity:1" fill="#f6f6f6" d="M 1099.5,248.5 C 1111.14,246.47 1115.47,251.137 1112.5,262.5C 1107.38,267.775 1102.38,267.775 1097.5,262.5C 1096.02,257.5 1096.69,252.833 1099.5,248.5 Z"/></g>
<g><path style="opacity:1" fill="#656a70" d="M 1063.5,265.5 C 1063.5,258.5 1063.5,251.5 1063.5,244.5C 1064.5,244.5 1065.5,244.5 1066.5,244.5C 1065.88,251.255 1066.54,257.588 1068.5,263.5C 1072.83,267.528 1076.99,267.194 1081,262.5C 1081.5,256.175 1081.67,249.842 1081.5,243.5C 1083.17,243.5 1084.83,243.5 1086.5,243.5C 1086.5,252.5 1086.5,261.5 1086.5,270.5C 1084.18,270.771 1082.18,270.104 1080.5,268.5C 1075.87,273.411 1070.87,273.744 1065.5,269.5C 1064.15,268.476 1063.48,267.143 1063.5,265.5 Z"/></g>
<g><path style="opacity:1" fill="#b8babc" d="M 1068.5,263.5 C 1066.54,257.588 1065.88,251.255 1066.5,244.5C 1065.5,244.5 1064.5,244.5 1063.5,244.5C 1063.5,251.5 1063.5,258.5 1063.5,265.5C 1062.88,265.389 1062.38,265.056 1062,264.5C 1061.5,257.174 1061.33,249.841 1061.5,242.5C 1063.83,242.5 1066.17,242.5 1068.5,242.5C 1068.5,249.5 1068.5,256.5 1068.5,263.5 Z"/></g>
<g><path style="opacity:1" fill="#6f7378" d="M 1037.5,242.5 C 1053.67,241.173 1060.17,248.506 1057,264.5C 1052.44,272.023 1045.94,274.356 1037.5,271.5C 1031.35,265.799 1029.18,258.799 1031,250.5C 1032.96,247.525 1035.13,244.858 1037.5,242.5 Z"/></g>
<g><path style="opacity:1" fill="#f3f3f4" d="M 1039.5,248.5 C 1050.62,246.29 1054.96,250.624 1052.5,261.5C 1051.18,262.791 1049.84,264.124 1048.5,265.5C 1037.52,267.936 1033.52,263.603 1036.5,252.5C 1037.93,251.412 1038.93,250.078 1039.5,248.5 Z"/></g>
<g><path style="opacity:1" fill="#ee5345" d="M 947.5,261.5 C 946.088,263.23 946.422,264.73 948.5,266C 951.863,266.927 954.863,266.427 957.5,264.5C 958.572,262.16 960.239,261.827 962.5,263.5C 963.868,267.838 962.202,270.505 957.5,271.5C 950.596,273.519 944.763,271.852 940,266.5C 939.517,265.552 939.351,264.552 939.5,263.5C 939.5,259.167 939.5,254.833 939.5,250.5C 940.932,247.898 942.932,245.731 945.5,244C 955.167,240.833 961.5,244 964.5,253.5C 958.552,255.741 952.885,258.408 947.5,261.5 Z"/></g>
<g><path style="opacity:1" fill="#fcdfdd" d="M 948.5,248.5 C 951.247,248.187 953.914,248.52 956.5,249.5C 956.833,250.167 957.167,250.833 957.5,251.5C 953.263,253.246 948.93,254.58 944.5,255.5C 944.351,254.448 944.517,253.448 945,252.5C 946.627,251.468 947.793,250.134 948.5,248.5 Z"/></g>
<g><path style="opacity:1" fill="#518df5" d="M 919.5,281.5 C 914.405,283.652 909.071,284.652 903.5,284.5C 902.077,282.455 900.077,281.455 897.5,281.5C 895.313,277.327 896.646,274.993 901.5,274.5C 902.416,274.543 903.083,274.876 903.5,275.5C 903.511,277.017 904.177,278.184 905.5,279C 908.167,279.667 910.833,279.667 913.5,279C 914.056,278.617 914.389,278.117 914.5,277.5C 916.85,275.787 917.85,273.453 917.5,270.5C 909.654,272.871 902.987,271.204 897.5,265.5C 896.608,260.562 896.274,255.562 896.5,250.5C 898.5,248.028 900.833,245.862 903.5,244C 910.225,244.057 916.891,243.89 923.5,243.5C 923.832,254.853 923.499,266.186 922.5,277.5C 921.066,278.588 920.066,279.922 919.5,281.5 Z"/></g>
<g><path style="opacity:1" fill="#abc4f9" d="M 903.5,275.5 C 904.922,275.75 905.922,276.583 906.5,278C 909.221,278.602 911.887,278.435 914.5,277.5C 914.389,278.117 914.056,278.617 913.5,279C 910.833,279.667 908.167,279.667 905.5,279C 904.177,278.184 903.511,277.017 903.5,275.5 Z"/></g>
<g><path style="opacity:1" fill="#f0f4fe" d="M 906.5,248.5 C 917.543,248.872 920.543,254.038 915.5,264C 906.061,267.444 901.561,264.277 902,254.5C 904.127,252.886 905.627,250.886 906.5,248.5 Z"/></g>
<g><path style="opacity:1" fill="#fac124" d="M 890.5,251.5 C 890.5,254.833 890.5,258.167 890.5,261.5C 890.657,262.873 890.49,264.207 890,265.5C 879.937,275.549 871.271,274.549 864,262.5C 861.932,247.571 868.432,241.405 883.5,244C 887.096,245.426 889.429,247.926 890.5,251.5 Z"/></g>
<g><path style="opacity:1" fill="#fff9ef" d="M 872.5,248.5 C 884.371,248.218 887.704,253.552 882.5,264.5C 874.829,268.007 870.829,265.507 870.5,257C 870.727,253.984 871.394,251.15 872.5,248.5 Z"/></g>
<g><path style="opacity:1" fill="#ed5143" d="M 850.5,270.5 C 846.865,271.579 843.199,271.579 839.5,270.5C 833.715,268.013 830.715,263.513 830.5,257C 830.82,247.681 835.653,243.181 845,243.5C 852.171,242.659 856.671,245.659 858.5,252.5C 861.972,261.506 859.305,267.506 850.5,270.5 Z"/></g>
<g><path style="opacity:1" fill="#fdeeed" d="M 841.5,248.5 C 846.764,247.765 850.597,249.765 853,254.5C 854.313,261.217 851.647,265.217 845,266.5C 838.037,263.8 835.87,258.8 838.5,251.5C 840.213,251.121 841.213,250.121 841.5,248.5 Z"/></g>
<g><path style="opacity:1" fill="#71757a" d="M 992.5,230.5 C 997.844,230.334 1003.18,230.501 1008.5,231C 1011.12,231.795 1013.12,233.295 1014.5,235.5C 1014.42,237.33 1013.59,238.663 1012,239.5C 1005.03,234.698 997.862,234.365 990.5,238.5C 981.644,248.918 982.978,257.918 994.5,265.5C 1001.26,267.375 1007.26,266.042 1012.5,261.5C 1016.8,262.585 1017.46,264.752 1014.5,268C 998.024,277.049 986.524,272.883 980,255.5C 979.333,251.833 979.333,248.167 980,244.5C 982.276,242.282 983.776,239.615 984.5,236.5C 986.877,233.992 989.544,231.992 992.5,230.5 Z"/></g>
<g><path style="opacity:1" fill="#b0b2b5" d="M 1114.5,270.5 C 1115.5,270.5 1116.5,270.5 1117.5,270.5C 1117.5,257.833 1117.5,245.167 1117.5,232.5C 1116.5,232.5 1115.5,232.5 1114.5,232.5C 1114.83,237.214 1114.49,241.88 1113.5,246.5C 1111.24,246.216 1109.57,245.216 1108.5,243.5C 1109.58,243.539 1110.58,243.873 1111.5,244.5C 1112.49,239.88 1112.83,235.214 1112.5,230.5C 1114.83,230.5 1117.17,230.5 1119.5,230.5C 1119.5,244.5 1119.5,258.5 1119.5,272.5C 1117.22,272.923 1115.55,272.256 1114.5,270.5 Z"/></g>
<g><path style="opacity:1" fill="#b4b5b8" d="M 1019.5,230.5 C 1021.83,230.5 1024.17,230.5 1026.5,230.5C 1026.5,244.5 1026.5,258.5 1026.5,272.5C 1024.17,272.5 1021.83,272.5 1019.5,272.5C 1019.5,258.5 1019.5,244.5 1019.5,230.5 Z"/></g>
<g><path style="opacity:1" fill="#60656b" d="M 1021.5,231.5 C 1022.5,231.5 1023.5,231.5 1024.5,231.5C 1024.5,244.5 1024.5,257.5 1024.5,270.5C 1023.5,270.5 1022.5,270.5 1021.5,270.5C 1021.5,257.5 1021.5,244.5 1021.5,231.5 Z"/></g>
<g><path style="opacity:1" fill="#41af5f" d="M 928.5,228.5 C 930.5,228.5 932.5,228.5 934.5,228.5C 934.5,242.5 934.5,256.5 934.5,270.5C 932.5,270.5 930.5,270.5 928.5,270.5C 928.5,256.5 928.5,242.5 928.5,228.5 Z"/></g>
<g><path style="opacity:1" fill="#c3e1c9" d="M 928.5,228.5 C 928.5,242.5 928.5,256.5 928.5,270.5C 930.5,270.5 932.5,270.5 934.5,270.5C 932.365,272.369 929.698,273.036 926.5,272.5C 925.85,257.462 926.517,242.795 928.5,228.5 Z"/></g>
<g><path style="opacity:1" fill="#538ef5" d="M 819.5,257.5 C 821.774,255.855 821.774,254.355 819.5,253C 815.514,252.501 811.514,252.334 807.5,252.5C 807.5,251.167 807.5,249.833 807.5,248.5C 813.833,248.5 820.167,248.5 826.5,248.5C 826.5,251.5 826.5,254.5 826.5,257.5C 824.21,263.455 820.21,267.789 814.5,270.5C 808.812,271.716 803.145,271.716 797.5,270.5C 795.42,269.956 793.42,269.122 791.5,268C 790.201,264.527 787.867,262.36 784.5,261.5C 784.492,258.455 784.159,255.455 783.5,252.5C 783.183,249.428 783.516,246.428 784.5,243.5C 786.083,241.01 787.083,238.343 787.5,235.5C 795.863,226.367 805.863,224.367 817.5,229.5C 822.883,232.761 822.55,235.428 816.5,237.5C 806.823,230.335 798.49,231.668 791.5,241.5C 787.967,258.801 794.967,266.301 812.5,264C 815.68,262.651 818.013,260.484 819.5,257.5 Z"/></g>
<g><path style="opacity:1" fill="#303442" d="M 865.5,924.5 C 867.223,923.193 869.057,923.193 871,924.5C 871.978,927.669 871.478,930.503 869.5,933C 867.343,933.078 865.343,933.245 863.5,933.5C 862.167,928.833 862.167,924.167 863.5,919.5C 864.17,921.291 864.837,922.958 865.5,924.5 Z"/></g>
<g><path style="opacity:1" fill="#2b4f7b" d="M 994.5,919.5 C 995.805,921.397 996.471,923.731 996.5,926.5C 996.167,928.833 995.833,931.167 995.5,933.5C 994.507,928.88 994.173,924.214 994.5,919.5 Z"/></g>
<g><path style="opacity:1" fill="#4d3622" d="M 1029.5,919.5 C 1030.8,921.397 1031.47,923.731 1031.5,926.5C 1031.17,928.833 1030.83,931.167 1030.5,933.5C 1029.51,928.88 1029.17,924.214 1029.5,919.5 Z"/></g>
<g><path style="opacity:1" fill="#48352b" d="M 1065.5,919.5 C 1066.8,921.397 1067.47,923.731 1067.5,926.5C 1067.17,928.833 1066.83,931.167 1066.5,933.5C 1064.66,933.245 1062.66,933.078 1060.5,933C 1055.46,926.441 1057.12,923.274 1065.5,923.5C 1065.5,922.167 1065.5,920.833 1065.5,919.5 Z"/></g>
<g><path style="opacity:1" fill="#2c2750" d="M 884.5,919.5 C 886.337,919.639 886.67,920.306 885.5,921.5C 884.702,921.043 884.369,920.376 884.5,919.5 Z"/></g>
<g><path style="opacity:1" fill="#343240" d="M 890.5,920.5 C 891.931,921.446 893.264,922.612 894.5,924C 891.887,926.749 891.887,929.582 894.5,932.5C 893.349,933.731 892.183,933.731 891,932.5C 890.999,929.313 890.166,926.48 888.5,924C 889.973,923.29 890.64,922.124 890.5,920.5 Z"/></g>
<g><path style="opacity:1" fill="#3d3d57" d="M 846.5,926.5 C 846.5,928.833 846.5,931.167 846.5,933.5C 845.5,933.5 844.5,933.5 843.5,933.5C 843.274,929.708 842.44,926.041 841,922.5C 839.595,926.217 838.095,929.883 836.5,933.5C 834.068,929.106 832.902,924.44 833,919.5C 835.017,932.658 837.183,932.658 839.5,919.5C 840.5,919.5 841.5,919.5 842.5,919.5C 843.224,922.843 844.057,926.176 845,929.5C 845.232,928.263 845.732,927.263 846.5,926.5 Z"/></g>
<g><path style="opacity:1" fill="#58517c" d="M 884.5,923.5 C 885.777,924.694 886.444,926.36 886.5,928.5C 886.167,930.167 885.833,931.833 885.5,933.5C 884.513,930.232 884.18,926.898 884.5,923.5 Z"/></g>
<g><path style="opacity:1" fill="#3e2e2f" d="M 914.5,923.5 C 922.486,922.998 924.486,926.165 920.5,933C 912.942,933.282 910.942,930.115 914.5,923.5 Z"/></g>
<g><path style="opacity:1" fill="#332a31" d="M 959.5,923.5 C 966.065,922.422 968.232,925.089 966,931.5C 961.217,934.883 958.384,933.716 957.5,928C 957.759,926.213 958.425,924.713 959.5,923.5 Z"/></g>
<g><path style="opacity:1" fill="#332a31" d="M 971.5,923.5 C 978.065,922.422 980.232,925.089 978,931.5C 973.217,934.883 970.384,933.716 969.5,928C 969.759,926.213 970.425,924.713 971.5,923.5 Z"/></g>
<g><path style="opacity:1" fill="#353542" d="M 983.5,923.5 C 986.011,923.838 988.345,923.838 990.5,923.5C 991.66,927.459 991.827,931.459 991,935.5C 988.519,937.314 985.685,937.98 982.5,937.5C 982.351,936.448 982.517,935.448 983,934.5C 985.355,937.164 987.522,936.997 989.5,934C 989.167,933.5 988.833,933 988.5,932.5C 984.011,934.525 981.678,933.025 981.5,928C 981.519,926.167 982.185,924.667 983.5,923.5 Z"/></g>
<g><path style="opacity:1" fill="#332a31" d="M 1036.5,923.5 C 1043.07,922.422 1045.23,925.089 1043,931.5C 1038.22,934.883 1035.38,933.716 1034.5,928C 1034.76,926.213 1035.43,924.713 1036.5,923.5 Z"/></g>
<g><path style="opacity:1" fill="#314974" d="M 1048.5,931.5 C 1048.17,931.5 1047.83,931.5 1047.5,931.5C 1046.2,928.976 1046.2,926.309 1047.5,923.5C 1048.48,926.086 1048.81,928.753 1048.5,931.5 Z"/></g>
<g><path style="opacity:1" fill="#393a4a" d="M 1047.5,931.5 C 1047.83,931.5 1048.17,931.5 1048.5,931.5C 1050.14,931.714 1051.64,931.38 1053,930.5C 1053.19,928.1 1053.69,925.766 1054.5,923.5C 1055.83,926.833 1055.83,930.167 1054.5,933.5C 1052.66,933.245 1050.66,933.078 1048.5,933C 1047.94,932.617 1047.61,932.117 1047.5,931.5 Z"/></g>
<g><path style="opacity:1" fill="#31273b" d="M 846.5,926.5 C 846.39,923.941 847.056,921.608 848.5,919.5C 849.095,922.066 848.428,924.399 846.5,926.5 Z"/></g>
<g><path style="opacity:1" fill="#efebe4" d="M 865.5,924.5 C 869.935,924.752 871.268,926.919 869.5,931C 867.866,931.494 866.199,931.66 864.5,931.5C 864.298,929.05 864.631,926.717 865.5,924.5 Z"/></g>
<g><path style="opacity:1" fill="#e8e5e0" d="M 916.5,924.5 C 920.976,924.8 922.31,926.967 920.5,931C 914.36,931.808 913.027,929.641 916.5,924.5 Z"/></g>
<g><path style="opacity:1" fill="#2f3d4d" d="M 925.5,923.5 C 928.259,923.548 931.092,923.882 934,924.5C 934.821,927.554 934.655,930.554 933.5,933.5C 931.167,921.5 928.833,921.5 926.5,933.5C 925.513,930.232 925.18,926.898 925.5,923.5 Z"/></g>
<g><path style="opacity:1" fill="#e8e7e6" d="M 960.5,924.5 C 964.976,924.8 966.31,926.967 964.5,931C 958.339,931.878 957.006,929.711 960.5,924.5 Z"/></g>
<g><path style="opacity:1" fill="#e8e7e6" d="M 972.5,924.5 C 976.976,924.8 978.31,926.967 976.5,931C 970.339,931.878 969.006,929.711 972.5,924.5 Z"/></g>
<g><path style="opacity:1" fill="#f0eae1" d="M 984.5,924.5 C 988.935,924.752 990.268,926.919 988.5,931C 983.57,931.427 982.237,929.26 984.5,924.5 Z"/></g>
<g><path style="opacity:1" fill="#e8e7e6" d="M 1037.5,924.5 C 1041.98,924.8 1043.31,926.967 1041.5,931C 1035.34,931.878 1034.01,929.711 1037.5,924.5 Z"/></g>
<g><path style="opacity:1" fill="#e7ebeb" d="M 1061.5,924.5 C 1062.82,924.33 1063.99,924.663 1065,925.5C 1065.5,927.473 1065.66,929.473 1065.5,931.5C 1059.37,931.804 1058.04,929.471 1061.5,924.5 Z"/></g>
<g><path style="opacity:1" fill="#362d35" d="M 852.5,923.5 C 856.851,922.533 859.185,924.2 859.5,928.5C 856.753,928.187 854.086,928.52 851.5,929.5C 851.709,930.086 852.043,930.586 852.5,931C 854.761,931.239 856.761,931.406 858.5,931.5C 856.956,933.446 854.956,933.946 852.5,933C 849.871,929.793 849.871,926.626 852.5,923.5 Z"/></g>
<g><path style="opacity:1" fill="#ebeae2" d="M 853.5,924.5 C 855.346,924.222 856.68,924.889 857.5,926.5C 855.833,927.833 854.167,927.833 852.5,926.5C 852.863,925.817 853.196,925.15 853.5,924.5 Z"/></g>
<g><path style="opacity:1" fill="#352d36" d="M 898.5,923.5 C 900.527,923.338 902.527,923.505 904.5,924C 905.38,925.356 905.714,926.856 905.5,928.5C 903.076,928.192 900.743,928.526 898.5,929.5C 900.099,931.729 902.099,932.062 904.5,930.5C 905.833,931.167 905.833,931.833 904.5,932.5C 899.961,934.318 897.294,932.818 896.5,928C 896.519,926.167 897.185,924.667 898.5,923.5 Z"/></g>
<g><path style="opacity:1" fill="#e0e2df" d="M 899.5,924.5 C 901.484,924.383 903.15,925.05 904.5,926.5C 902.5,927.833 900.5,927.833 898.5,926.5C 898.863,925.817 899.196,925.15 899.5,924.5 Z"/></g>
<g><path style="opacity:1" fill="#352d36" d="M 1000.5,923.5 C 1002.53,923.338 1004.53,923.505 1006.5,924C 1007.38,925.356 1007.71,926.856 1007.5,928.5C 1005.08,928.192 1002.74,928.526 1000.5,929.5C 1002.1,931.729 1004.1,932.062 1006.5,930.5C 1007.83,931.167 1007.83,931.833 1006.5,932.5C 1001.96,934.318 999.294,932.818 998.5,928C 998.519,926.167 999.185,924.667 1000.5,923.5 Z"/></g>
<g><path style="opacity:1" fill="#e0e2df" d="M 1001.5,924.5 C 1003.48,924.383 1005.15,925.05 1006.5,926.5C 1004.5,927.833 1002.5,927.833 1000.5,926.5C 1000.86,925.817 1001.2,925.15 1001.5,924.5 Z"/></g>
<g><path style="opacity:1" fill="#302931" d="M 875.5,923.5 C 877.199,923.34 878.866,923.506 880.5,924C 881.696,924.654 881.696,925.154 880.5,925.5C 879.264,924.754 877.93,924.421 876.5,924.5C 876.5,925.5 876.5,926.5 876.5,927.5C 880.701,927.426 882.035,929.259 880.5,933C 878.559,933.743 876.726,933.576 875,932.5C 874.333,931.833 874.333,931.167 875,930.5C 876.931,933.105 878.764,933.105 880.5,930.5C 878.614,929.594 876.78,928.594 875,927.5C 874.421,926.072 874.588,924.738 875.5,923.5 Z"/></g>
<g><path style="opacity:1" fill="#3b2e32" d="M 1018.5,919.5 C 1020.86,919.337 1023.19,919.503 1025.5,920C 1026.45,920.718 1026.62,921.551 1026,922.5C 1019.06,919.421 1016.06,921.754 1017,929.5C 1019.55,931.729 1022.39,932.062 1025.5,930.5C 1026.6,931.631 1026.27,932.465 1024.5,933C 1016.89,933.72 1013.72,930.22 1015,922.5C 1016.15,921.364 1017.31,920.364 1018.5,919.5 Z"/></g>
<g><path style="opacity:1" fill="#353036" d="M 944.5,919.5 C 947.722,919.108 950.722,919.608 953.5,921C 953,921.5 952.5,922 952,922.5C 949.413,919.966 946.747,919.966 944,922.5C 941.995,929.49 944.495,932.324 951.5,931C 952.357,930.311 953.023,929.478 953.5,928.5C 951.833,927.833 950.167,927.167 948.5,926.5C 956.344,924.364 957.344,926.53 951.5,933C 943.667,933.869 940.5,930.369 942,922.5C 943.045,921.627 943.878,920.627 944.5,919.5 Z"/></g>
<g><path style="opacity:1" fill="#53454e" d="M 901.5,950.5 C 904.463,950.151 906.796,951.151 908.5,953.5C 908.167,953.833 907.833,954.167 907.5,954.5C 905.477,952.827 903.144,952.16 900.5,952.5C 900.351,953.552 900.517,954.552 901,955.5C 903.202,956.402 905.368,957.402 907.5,958.5C 909.131,962.049 907.964,964.049 904,964.5C 900.91,964.661 899.576,963.328 900,960.5C 901.754,962.25 903.921,962.917 906.5,962.5C 906.67,961.178 906.337,960.011 905.5,959C 899.447,958.106 898.113,955.273 901.5,950.5 Z"/></g>
<g><path style="opacity:1" fill="#584951" d="M 960.5,950.5 C 966.375,950.636 967.875,953.303 965,958.5C 963.5,960 962,961.5 960.5,963C 962.833,963.333 965.167,963.667 967.5,964C 957.325,965.722 956.159,963.555 964,957.5C 964.494,955.866 964.66,954.199 964.5,952.5C 962.234,952.141 960.401,952.808 959,954.5C 958.516,952.807 959.016,951.473 960.5,950.5 Z"/></g>
<g><path style="opacity:1" fill="#534655" d="M 983.5,950.5 C 988.494,950.329 990.328,952.662 989,957.5C 987.167,959.333 985.333,961.167 983.5,963C 985.833,963.333 988.167,963.667 990.5,964C 980.325,965.722 979.159,963.555 987,957.5C 988.073,951.215 986.406,950.215 982,954.5C 981.516,952.807 982.016,951.473 983.5,950.5 Z"/></g>
<g><path style="opacity:1" fill="#504352" d="M 998.5,951.5 C 996.088,951.244 994.421,952.244 993.5,954.5C 992.406,953.132 992.74,951.965 994.5,951C 996.066,950.235 997.399,950.402 998.5,951.5 Z"/></g>
<g><path style="opacity:1" fill="#56505d" d="M 939.5,950.5 C 941.924,950.192 944.257,950.526 946.5,951.5C 944.604,952.466 942.604,952.799 940.5,952.5C 940.5,953.5 940.5,954.5 940.5,955.5C 944.338,955.007 946.338,956.674 946.5,960.5C 945.036,964.825 942.536,965.492 939,962.5C 938.312,961.668 938.479,961.002 939.5,960.5C 940.842,962.005 942.508,962.672 944.5,962.5C 944.5,960.833 944.5,959.167 944.5,957.5C 942.833,957.5 941.167,957.5 939.5,957.5C 939.5,955.167 939.5,952.833 939.5,950.5 Z"/></g>
<g><path style="opacity:1" fill="#55526c" d="M 998.5,951.5 C 1000.25,951.418 1001.25,952.251 1001.5,954C 999.907,957.262 997.907,960.262 995.5,963C 997.5,963.333 999.5,963.667 1001.5,964C 998.446,964.821 995.446,964.655 992.5,963.5C 996.996,960.443 998.996,956.443 998.5,951.5 Z"/></g>
<g><path style="opacity:1" fill="#514249" d="M 912.5,955.5 C 914.45,953.048 916.616,953.048 919,955.5C 919.483,956.448 919.649,957.448 919.5,958.5C 917.167,958.5 914.833,958.5 912.5,958.5C 912.33,959.822 912.663,960.989 913.5,962C 915.167,962.333 916.833,962.667 918.5,963C 913.923,965.295 911.256,963.795 910.5,958.5C 910.64,956.97 911.307,955.97 912.5,955.5 Z"/></g>
<g><path style="opacity:1" fill="#f6f8f2" d="M 912.5,955.5 C 914.288,955.215 915.955,955.548 917.5,956.5C 916.667,956.833 915.833,957.167 915,957.5C 913.624,957.316 912.791,956.649 912.5,955.5 Z"/></g>
<g><path style="opacity:1" fill="#484274" d="M 922.5,953.5 C 924.314,953.772 926.314,953.939 928.5,954C 931.167,957.333 931.167,960.667 928.5,964C 926.888,964.72 925.388,964.554 924,963.5C 923.667,965.167 923.333,966.833 923,968.5C 922.501,963.511 922.334,958.511 922.5,953.5 Z"/></g>
<g><path style="opacity:1" fill="#f1eadc" d="M 923.5,955.5 C 929.158,954.679 930.825,956.846 928.5,962C 926.866,962.494 925.199,962.66 923.5,962.5C 923.5,960.167 923.5,957.833 923.5,955.5 Z"/></g>
<g><path style="opacity:1" fill="#464170" d="M 971.5,950.5 C 974.044,950.104 976.211,950.771 978,952.5C 978.667,955.833 978.667,959.167 978,962.5C 975.925,964.648 973.592,964.982 971,963.5C 970.232,959.08 970.398,954.747 971.5,950.5 Z"/></g>
<g><path style="opacity:1" fill="#ebe5d8" d="M 972.5,951.5 C 974.39,951.297 975.89,951.963 977,953.5C 977.667,956.167 977.667,958.833 977,961.5C 972.912,964.181 971.079,962.848 971.5,957.5C 971.573,955.41 971.906,953.41 972.5,951.5 Z"/></g>
</svg>
