<?xml version="1.0" encoding="UTF-8"?>
<!DOCTYPE svg PUBLIC "-//W3C//DTD SVG 1.1//EN" "http://www.w3.org/Graphics/SVG/1.1/DTD/svg11.dtd">
<svg xmlns="http://www.w3.org/2000/svg" version="1.1" width="226px" height="223px" style="shape-rendering:geometricPrecision; text-rendering:geometricPrecision; image-rendering:optimizeQuality; fill-rule:evenodd; clip-rule:evenodd" xmlns:xlink="http://www.w3.org/1999/xlink">
<g><path style="opacity:1" fill="#fffefd" d="M -0.5,-0.5 C 33.1667,-0.5 66.8333,-0.5 100.5,-0.5C 43.8333,10.1667 10.1667,43.8333 -0.5,100.5C -0.5,66.8333 -0.5,33.1667 -0.5,-0.5 Z"/></g>
<g><path style="opacity:1" fill="#f4cc12" d="M 100.5,-0.5 C 106.833,-0.5 113.167,-0.5 119.5,-0.5C 169.997,5.48657 203.831,32.4866 221,80.5C 222.459,87.3118 223.959,93.9785 225.5,100.5C 225.5,106.5 225.5,112.5 225.5,118.5C 219.84,171.128 191.84,205.795 141.5,222.5C 139.5,222.5 137.5,222.5 135.5,222.5C 126.128,218.033 123.628,211.033 128,201.5C 128.833,200.667 129.667,199.833 130.5,199C 177.986,183.844 200.819,151.344 199,101.5C 191.257,61.7567 167.757,36.9234 128.5,27C 81.3499,21.8199 48.5166,40.9866 30,84.5C 18.9094,125.014 29.7427,158.18 62.5,184C 72.3817,190.607 83.0484,195.607 94.5,199C 99.5796,203.637 100.746,209.137 98,215.5C 95.5838,218.423 92.7504,220.757 89.5,222.5C 87.1667,222.5 84.8333,222.5 82.5,222.5C 32.8895,205.25 5.22287,170.583 -0.5,118.5C -0.5,112.5 -0.5,106.5 -0.5,100.5C 10.1667,43.8333 43.8333,10.1667 100.5,-0.5 Z"/></g>
<g><path style="opacity:1" fill="#fffefd" d="M 119.5,-0.5 C 154.833,-0.5 190.167,-0.5 225.5,-0.5C 225.5,33.1667 225.5,66.8333 225.5,100.5C 223.959,93.9785 222.459,87.3118 221,80.5C 203.831,32.4866 169.997,5.48657 119.5,-0.5 Z"/></g>
<g><path style="opacity:1" fill="#fffefd" d="M 135.5,222.5 C 120.167,222.5 104.833,222.5 89.5,222.5C 92.7504,220.757 95.5838,218.423 98,215.5C 100.746,209.137 99.5796,203.637 94.5,199C 83.0484,195.607 72.3817,190.607 62.5,184C 29.7427,158.18 18.9094,125.014 30,84.5C 48.5166,40.9866 81.3499,21.8199 128.5,27C 167.757,36.9234 191.257,61.7567 199,101.5C 200.819,151.344 177.986,183.844 130.5,199C 129.667,199.833 128.833,200.667 128,201.5C 123.628,211.033 126.128,218.033 135.5,222.5 Z"/></g>
<g><path style="opacity:1" fill="#f4cc11" d="M 104.5,51.5 C 137.31,50.308 159.476,64.9746 171,95.5C 177.767,129.129 165.934,153.629 135.5,169C 131.219,170.458 128.053,169.292 126,165.5C 125.667,146.5 125.333,127.5 125,108.5C 120.314,99.7163 113.481,97.5497 104.5,102C 102.383,103.731 100.883,105.898 100,108.5C 99.6667,127.5 99.3333,146.5 99,165.5C 96.9473,169.292 93.7806,170.458 89.5,169C 62.1699,155.858 49.6699,134.025 52,103.5C 58.7926,75.2067 76.2926,57.8734 104.5,51.5 Z"/></g>
<g><path style="opacity:1" fill="#fffefd" d="M -0.5,118.5 C 5.22287,170.583 32.8895,205.25 82.5,222.5C 54.8333,222.5 27.1667,222.5 -0.5,222.5C -0.5,187.833 -0.5,153.167 -0.5,118.5 Z"/></g>
<g><path style="opacity:1" fill="#fffefd" d="M 225.5,118.5 C 225.5,153.167 225.5,187.833 225.5,222.5C 197.5,222.5 169.5,222.5 141.5,222.5C 191.84,205.795 219.84,171.128 225.5,118.5 Z"/></g>
</svg>
