<?xml version="1.0" encoding="utf-8"?>
<!DOCTYPE svg PUBLIC "-//W3C//DTD SVG 1.1//EN" "http://www.w3.org/Graphics/SVG/1.1/DTD/svg11.dtd">
<svg version="1.1" id="CorelDraw-Logo" xmlns="http://www.w3.org/2000/svg" xmlns:xlink="http://www.w3.org/1999/xlink" x="0px"
	 y="0px" width="100px" height="107px" viewBox="0 0 100 107" enable-background="new 0 0 100 107" xml:space="preserve">
<title>CorelDraw logo</title>
<g fill="#979797">
	<path d="M0,86.979c0-3.558,2.082-7.139,6.111-7.139c1.515,0.026,2.774,0.594,3.78,1.702l-0.945,1.134
		c-0.747-0.842-1.685-1.274-2.814-1.301c-3.07,0-4.327,2.941-4.327,5.564c0,2.59,1.175,5.648,4.263,5.648
		c1.293-0.046,2.357-0.563,3.192-1.554l0.966,1.092c-0.546,0.63-1.162,1.12-1.848,1.471c-0.685,0.347-1.476,0.521-2.371,0.521
		c-1.148,0-2.181-0.272-3.077-0.851C0.687,91.828,0,89.368,0,86.979z"/>
	<path d="M15.75,83.412c3.011,0,4.516,2.671,4.516,5.375c0,2.756-1.469,5.334-4.516,5.334
		c-3.547,0-4.725-2.595-4.725-5.334C11.025,85.734,12.775,83.412,15.75,83.412z M18.547,88.787c0-1.773-0.695-3.947-2.797-3.947
		c-2.09,0-2.94,2.187-2.94,3.947c0,1.952,0.762,3.906,2.94,3.906C17.687,92.693,18.547,90.559,18.547,88.787z"/>
	<path d="M22.324,93.869V83.664h1.428l0.147,1.848h0.063c0.763-1.404,2.34-2.604,3.99-1.89l-0.336,1.513
		c-1.689-0.56-2.937,0.616-3.57,2.185v6.552L22.324,93.869L22.324,93.869L22.324,93.869L22.324,93.869z"/>
	<path d="M27.804,88.787c0-2.602,1.698-5.375,4.578-5.375c1.302,0,2.307,0.434,3.014,1.302s1.061,2.03,1.061,3.485
		c0,0.183-0.004,0.36-0.011,0.535c-0.007,0.176-0.024,0.325-0.052,0.45h-6.888c0.125,1.925,1.358,3.552,3.402,3.552
		c0.917,0,1.771-0.315,2.541-0.8l0.609,1.136c-1.129,0.726-2.661,1.049-3.361,1.049C29.696,94.121,27.804,91.646,27.804,88.787z
		 M34.944,87.947c0-1.537-0.567-3.17-2.52-3.17c-1.745,0-2.94,1.741-2.94,3.17H34.944z"/>
	<path d="M38.567,93.523c-0.287-0.399-0.431-0.972-0.431-1.714V78.917h1.722v13.02c0,0.606,0.304,0.793,0.861,0.716
		l0.23,1.302c-0.302,0.152-0.656,0.167-0.986,0.167C39.318,94.121,38.853,93.922,38.567,93.523
		C38.28,93.124,38.853,93.922,38.567,93.523z"/>
	<path d="M46.871,93.869V80.136h3.675c2.101,0,3.738,0.567,4.914,1.7c1.177,1.135,1.765,2.836,1.765,5.104
		c0,2.282-0.582,4.009-1.744,5.178s-2.764,1.753-4.81,1.753L46.871,93.869L46.871,93.869z M49.307,91.896h1.072
		c1.385,0,2.457-0.401,3.213-1.209c0.756-0.805,1.133-2.054,1.133-3.747c0-1.681-0.377-2.903-1.133-3.675
		c-0.756-0.771-1.828-1.155-3.213-1.155h-1.072V91.896z"/>
	<path d="M59.996,93.869V80.136h4.641c2.639,0,5.041,1.043,5.041,4.074c0,1.824-0.877,3.297-2.729,3.929l3.273,5.731
		h-2.729l-2.961-5.375h-2.102v5.375L59.996,93.869L59.996,93.869L59.996,93.869L59.996,93.869z M62.432,86.563h1.953
		c1.508,0,2.898-0.67,2.898-2.354c0-1.694-1.45-2.12-2.898-2.12h-1.953V86.563L62.432,86.563L62.432,86.563z"/>
	<path d="M70.518,93.869l4.474-13.733h2.856l4.473,13.733h-2.563l-1.07-3.717h-4.621l-1.068,3.717H70.518z
		 M74.635,88.243h3.506c0,0-1.523-5.461-1.721-6.218h-0.084C76.152,82.797,74.635,88.243,74.635,88.243z"/>
	<path d="M85.387,93.869l-2.729-13.733h2.498c0,0,1.771,10.592,1.867,11.319h0.084
		c0.154-0.729,2.584-11.319,2.584-11.319h2.121c0,0,2.451,10.578,2.604,11.32h0.084c0.11-0.742,1.847-11.32,1.847-11.32h2.332
		l-2.625,13.733h-3.023c0,0-2.225-9.878-2.309-10.396h-0.084c-0.101,0.519-2.289,10.396-2.289,10.396H85.387L85.387,93.869z"/>
	<path d="M33.705,99.796c0-1.969,1.156-3.808,3.303-3.808c0.83,0.006,1.521,0.308,2.074,0.905l-0.504,0.605
		c-0.409-0.46-0.925-0.691-1.548-0.693c-1.663,0-2.382,1.518-2.382,2.968c0,1.501,0.703,3.014,2.392,3.014
		c0.447,0,0.965-0.116,1.296-0.438v-1.914H36.81v-0.771h2.36v3.091c-0.616,0.585-1.355,0.868-2.216,0.851
		C34.801,103.604,33.705,101.752,33.705,99.796z"/>
	<path d="M40.807,103.47v-5.441h0.746l0.077,0.983c0.377-0.724,1.26-1.385,2.118-1.008l-0.176,0.807
		c-0.895-0.288-1.536,0.331-1.866,1.166v3.494L40.807,103.47L40.807,103.47L40.807,103.47L40.807,103.47z"/>
	<path d="M44.467,103.195c-0.297-0.271-0.445-0.65-0.445-1.138c0-1.617,2.05-1.901,3.271-2.039
		c0-0.719-0.309-1.364-1.098-1.364c-0.581,0-1.125,0.254-1.592,0.582l-0.352-0.64c0.625-0.412,1.341-0.705,2.097-0.705
		c1.313,0,1.855,1.042,1.855,2.239v3.337h-0.747l-0.076-0.647h-0.032c-0.249,0.209-0.521,0.392-0.817,0.549
		c-0.297,0.156-0.614,0.233-0.951,0.233C45.134,103.604,44.763,103.468,44.467,103.195z M45.844,102.865
		c0.571,0,1.045-0.362,1.45-0.729v-1.512c-0.781,0.098-2.392,0.273-2.392,1.366c0,0.306,0.091,0.527,0.274,0.667
		C45.358,102.796,45.58,102.865,45.844,102.865C46.1,102.865,45.58,102.865,45.844,102.865
		C46.1,102.865,45.58,102.865,45.844,102.865z"/>
	<path d="M49.885,105.766v-7.737h0.746l0.076,0.628h0.033c0.242-0.21,0.506-0.391,0.795-0.538
		c0.289-0.149,0.592-0.226,0.906-0.226c1.535,0,2.106,1.443,2.106,2.777c0,1.355-0.752,2.935-2.306,2.935
		c-0.555,0-1.059-0.295-1.48-0.628v2.789H49.885L49.885,105.766L49.885,105.766L49.885,105.766z M52.09,102.832
		c0.439,0,0.803-0.193,1.092-0.578c0.289-0.384,0.436-0.912,0.436-1.584c0-0.598-0.105-1.081-0.324-1.451
		c-0.215-0.369-0.575-0.554-1.08-0.554c-0.227,0-0.454,0.063-0.686,0.189c-0.232,0.128-0.479,0.311-0.742,0.55v2.854
		c0.242,0.209,0.479,0.357,0.703,0.443S51.914,102.832,52.09,102.832z"/>
	<path d="M55.977,103.47v-7.975h0.897v3.293c0.497-0.48,1.024-0.896,1.747-0.896c1.232,0,1.625,1.048,1.625,2.127
		v3.449h-0.9v-3.326c0-0.694-0.178-1.455-1.01-1.455c-0.607,0-1.061,0.433-1.46,0.841v3.94L55.977,103.47L55.977,103.47
		L55.977,103.47L55.977,103.47L55.977,103.47L55.977,103.47z"/>
	<path d="M61.947,103.47v-5.441h0.898v5.441H61.947z"/>
	<circle cx="62.396" cy="96.301" r="0.604"/>
	<path d="M66.82,97.893c0.594,0,1.13,0.232,1.559,0.639l-0.461,0.604c-0.299-0.271-0.648-0.48-1.064-0.48
		c-1.135,0-1.67,1.111-1.67,2.105c0,0.989,0.521,2.082,1.646,2.082c0.475,0,0.91-0.229,1.252-0.548l0.395,0.616
		c-0.471,0.427-1.082,0.694-1.723,0.694c-1.604,0-2.501-1.357-2.501-2.845C64.253,99.265,65.221,97.893,66.82,97.893z"/>
	<path d="M69.059,102.866l0.437-0.489c0.409,0.421,0.983,0.692,1.575,0.692c0.559,0,1.193-0.252,1.193-0.903
		c0-0.55-0.472-0.758-0.906-0.959c-0.193-0.09-1.139-0.474-1.381-0.637c-0.396-0.265-0.64-0.678-0.64-1.155
		c0-0.955,0.938-1.469,1.794-1.469c0.624,0,1.244,0.239,1.688,0.684l-0.392,0.456c-0.356-0.335-0.807-0.522-1.297-0.522
		c-0.501,0-1.063,0.232-1.063,0.81c0,0.508,0.498,0.741,0.906,0.904c0.201,0.08,1.146,0.471,1.393,0.636
		c0.41,0.275,0.637,0.702,0.637,1.195c0,1.049-1.128,1.576-1.941,1.576C70.314,103.685,69.585,103.4,69.059,102.866z"/>
	<path d="M76.006,102.641l0.549-0.616c0.518,0.529,1.242,0.873,1.987,0.873c0.705,0,1.505-0.318,1.505-1.141
		c0-0.693-0.594-0.956-1.142-1.209c-0.245-0.113-1.437-0.598-1.743-0.804c-0.498-0.333-0.807-0.854-0.807-1.457
		c0-1.204,1.187-1.854,2.264-1.854c0.788,0,1.568,0.304,2.13,0.862l-0.494,0.575c-0.45-0.423-1.017-0.66-1.636-0.66
		c-0.632,0-1.34,0.294-1.34,1.021c0,0.64,0.629,0.935,1.143,1.14c0.254,0.102,1.445,0.595,1.756,0.803
		c0.519,0.348,0.803,0.886,0.803,1.508c0,1.322-1.418,1.989-2.448,1.989C77.591,103.673,76.67,103.313,76.006,102.641z"/>
	<path d="M82.625,103.061c-0.264-0.359-0.395-0.891-0.395-1.584v-3.448h0.91v3.326c0,0.693,0.166,1.454,1,1.454
		c0.635,0,1.07-0.449,1.437-0.918v-3.862h0.899v5.442h-0.748l-0.076-0.852H85.62c-0.248,0.299-0.513,0.537-0.789,0.717
		c-0.278,0.18-0.601,0.269-0.966,0.269C83.303,103.604,82.889,103.424,82.625,103.061z"/>
	<path d="M88.277,103.47v-5.441h0.899v5.441H88.277z"/>
	<circle cx="88.729" cy="96.301" r="0.604"/>
	<path d="M91.467,103.1c-0.225-0.336-0.336-0.771-0.336-1.311v-3.012h-0.789v-0.695l0.834-0.057l0.109-1.521h0.758
		v1.521h1.438v0.752h-1.438v3.021c0,0.992,0.66,1.171,1.428,0.906l0.176,0.694c-0.315,0.113-0.651,0.202-0.989,0.202
		C92.086,103.604,91.689,103.436,91.467,103.1C91.242,102.764,91.689,103.436,91.467,103.1z"/>
	<path d="M96.531,97.896c1.57,0,2.425,1.638,2.096,3.077h-3.6c0.064,1.01,0.699,1.895,1.777,1.895
		c0.481,0,0.924-0.167,1.327-0.427l0.317,0.604c-0.527,0.347-1.12,0.561-1.756,0.561c-1.598,0-2.557-1.345-2.557-2.844
		C94.139,99.4,95.004,97.896,96.531,97.896z M95.016,100.313h2.854c0-0.555-0.115-0.975-0.347-1.263
		c-0.229-0.287-0.553-0.431-0.972-0.431c-0.372,0-0.706,0.146-1.004,0.441C95.251,99.357,95.074,99.773,95.016,100.313z"/>
</g>
<g id="Balloon" fill="#979797">
	<polygon fill="#61A706" points="66.225,69 58.225,69 57.225,63 67.225,63 	"/>
	<path d="M77.035,3.084c7.643,5.102,9.637,12.564,8.777,19.3C84.025,40.22,65.557,60.53,67.029,59.197
		c4.113-3.492,17.961-19.946,20.563-35.359C90.195,8.423,77.035,3.084,77.035,3.084z"/>
	<path d="M38.929,22.385c-0.859-6.733,1.142-14.199,8.777-19.3c0,0-13.16,5.339-10.558,20.753
		c2.603,15.413,16.458,31.867,20.563,35.359C59.191,60.529,40.721,40.221,38.929,22.385z"/>
	<path d="M54.059,25.172C54.605,34.565,57.037,47,61.199,60h2.057c4.155-13,6.587-25.428,7.133-34.82
		c0.793-13.563-2.024-22.273-6.529-24.682c-0.418-0.225-0.885-0.416-1.633-0.428c-0.744,0.013-1.218,0.214-1.634,0.438
		C56.085,2.912,53.273,11.613,54.059,25.172z"/>
	<path d="M60.105,59.842c0,0-12.187-20.146-13.068-37.71C46.153,4.564,58.404,0,58.404,0
		c-1.141,0.047-3.682,0.775-6.082,1.902c-2.4,1.128-10.877,6.26-11.043,18.94C41.494,32.861,52.604,53.286,60.105,59.842z"/>
	<path d="M77.648,22.131c-0.885,17.564-13.068,37.71-13.068,37.71c7.501-6.556,18.611-26.979,18.826-38.998
		C83.241,8.162,74.764,3.03,72.363,1.903c-2.398-1.127-4.939-1.855-6.084-1.902C66.279,0,78.525,4.564,77.648,22.131z"/>
</g>
</svg>
