<?xml version="1.0" encoding="UTF-8"?>
<!DOCTYPE svg PUBLIC "-//W3C//DTD SVG 1.1//EN" "http://www.w3.org/Graphics/SVG/1.1/DTD/svg11.dtd">
<svg xmlns="http://www.w3.org/2000/svg" version="1.1" width="512px" height="512px" style="shape-rendering:geometricPrecision; text-rendering:geometricPrecision; image-rendering:optimizeQuality; fill-rule:evenodd; clip-rule:evenodd" xmlns:xlink="http://www.w3.org/1999/xlink">
<g><path style="opacity:0.997" fill="#0156d2" d="M 234.5,-0.5 C 248.5,-0.5 262.5,-0.5 276.5,-0.5C 375.325,11.5147 446.491,62.1813 490,151.5C 501.423,178.195 508.589,205.862 511.5,234.5C 511.5,248.5 511.5,262.5 511.5,276.5C 499.485,375.325 448.819,446.491 359.5,490C 332.805,501.423 305.138,508.589 276.5,511.5C 262.5,511.5 248.5,511.5 234.5,511.5C 135.675,499.485 64.5086,448.819 21,359.5C 9.57724,332.805 2.41058,305.138 -0.5,276.5C -0.5,262.5 -0.5,248.5 -0.5,234.5C 11.5147,135.675 62.1813,64.5086 151.5,21C 178.195,9.57724 205.862,2.41058 234.5,-0.5 Z"/></g>
<g><path style="opacity:1" fill="#fefefe" d="M 254.5,95.5 C 317.615,93.228 367.615,117.395 404.5,168C 382.525,181.659 360.191,194.826 337.5,207.5C 309.906,174.247 275.572,164.414 234.5,178C 193.401,198.364 176.901,231.197 185,276.5C 196.401,310.902 219.901,331.402 255.5,338C 290.989,341.083 318.989,328.25 339.5,299.5C 361.416,312.374 383.249,325.374 405,338.5C 405.52,340.289 405.187,341.956 404,343.5C 373.222,386.317 331.389,410.151 278.5,415C 210.083,417.384 158.249,389.55 123,331.5C 96.4918,279.175 97.1584,227.175 125,175.5C 155.07,127.871 198.236,101.204 254.5,95.5 Z"/></g>
</svg>
