<?xml version="1.0" encoding="UTF-8"?>
<!DOCTYPE svg PUBLIC "-//W3C//DTD SVG 1.1//EN" "http://www.w3.org/Graphics/SVG/1.1/DTD/svg11.dtd">
<svg xmlns="http://www.w3.org/2000/svg" version="1.1" width="1052px" height="1052px" style="shape-rendering:geometricPrecision; text-rendering:geometricPrecision; image-rendering:optimizeQuality; fill-rule:evenodd; clip-rule:evenodd" xmlns:xlink="http://www.w3.org/1999/xlink">
<g><path style="opacity:1" fill="#efda4f" d="M -0.5,0.5 C 349.833,0.5 700.167,0.5 1050.5,0.5C 1050.5,350.833 1050.5,701.167 1050.5,1051.5C 700.167,1051.5 349.833,1051.5 -0.5,1051.5C -0.5,701.167 -0.5,350.833 -0.5,0.5 Z"/></g>
<g><path style="opacity:1" fill="#fdfaec" d="M -0.5,0.5 C -0.5,0.166667 -0.5,-0.166667 -0.5,-0.5C 350.167,-0.5 700.833,-0.5 1051.5,-0.5C 1051.5,350.167 1051.5,700.833 1051.5,1051.5C 1051.17,1051.5 1050.83,1051.5 1050.5,1051.5C 1050.5,701.167 1050.5,350.833 1050.5,0.5C 700.167,0.5 349.833,0.5 -0.5,0.5 Z"/></g>
<g><path style="opacity:1" fill="#323330" d="M 778.5,477.5 C 811.73,474.65 843.73,479.484 874.5,492C 902.307,506.64 923.64,527.807 938.5,555.5C 913.507,572.332 888.173,588.665 862.5,604.5C 855.156,592.65 846.156,582.15 835.5,573C 814.334,560.559 792.667,559.559 770.5,570C 751.581,584.105 746.414,602.272 755,624.5C 757.969,631.475 762.469,637.308 768.5,642C 776.336,647.755 784.669,652.755 793.5,657C 823.309,669.237 852.643,682.57 881.5,697C 909.717,711.032 932.55,731.199 950,757.5C 966.836,789.682 971.836,823.682 965,859.5C 956.468,899.693 933.968,929.193 897.5,948C 866.784,962.319 834.45,968.819 800.5,967.5C 749.07,968.637 703.737,952.803 664.5,920C 647.906,904.916 634.573,887.416 624.5,867.5C 650.881,851.951 677.381,836.617 704,821.5C 709.308,827.825 714.308,834.492 719,841.5C 751.488,878.477 791.321,889.311 838.5,874C 862.596,863.645 872.43,845.478 868,819.5C 862.454,804.617 852.621,793.45 838.5,786C 805.918,770.806 773.251,755.806 740.5,741C 665.311,701.498 639.478,640.665 663,558.5C 679.347,520.892 707.18,496.059 746.5,484C 757.193,481.278 767.859,479.112 778.5,477.5 Z"/></g>
<g><path style="opacity:1" fill="#323330" d="M 472.5,482.5 C 505.167,482.5 537.833,482.5 570.5,482.5C 570.667,600.167 570.5,717.834 570,835.5C 565.78,909.04 527.613,952.54 455.5,966C 413.133,972.707 373.133,966.04 335.5,946C 309.357,929.39 289.691,907.057 276.5,879C 276.759,877.739 277.426,876.739 278.5,876C 304.167,860.5 329.833,845 355.5,829.5C 362.816,842.634 371.483,854.801 381.5,866C 396.556,878.764 413.889,883.097 433.5,879C 453.828,875.674 465.994,863.84 470,843.5C 470.813,838.185 471.479,832.852 472,827.5C 472.5,712.5 472.667,597.5 472.5,482.5 Z"/></g>
</svg>
