<?xml version="1.0" encoding="UTF-8"?>
<!DOCTYPE svg PUBLIC "-//W3C//DTD SVG 1.1//EN" "http://www.w3.org/Graphics/SVG/1.1/DTD/svg11.dtd">
<svg xmlns="http://www.w3.org/2000/svg" version="1.1" width="1080px" height="1080px" style="shape-rendering:geometricPrecision; text-rendering:geometricPrecision; image-rendering:optimizeQuality; fill-rule:evenodd; clip-rule:evenodd"
    xmlns:xlink="http://www.w3.org/1999/xlink">
    <style>
    path {
      fill: black;
    }
    @media (prefers-color-scheme: dark) {
      path {
        fill: white;
      }
    }
    </style>
    <g>
        <path style="opacity:0.991" fill="#202020" d="M 225.5,215.5 C 276.798,211.47 326.131,219.303 373.5,239C 435.19,267.37 471.023,315.203 481,382.5C 483.048,403.114 483.882,423.781 483.5,444.5C 444.5,444.5 405.5,444.5 366.5,444.5C 375.101,360.431 337.101,318.431 252.5,318.5C 227.511,317.884 203.844,323.051 181.5,334C 157.173,349.83 146.673,372.33 150,401.5C 153.193,425.026 165.359,442.193 186.5,453C 198.352,459.173 210.686,464.173 223.5,468C 261.322,476.698 298.989,486.031 336.5,496C 365.75,504.748 393.75,516.414 420.5,531C 480.97,567.784 506.803,621.617 498,692.5C 488.919,755.549 456.419,802.049 400.5,832C 357.515,853.198 312.015,863.031 264,861.5C 205.385,863.392 151.552,848.559 102.5,817C 52.3195,780.831 24.8195,731.665 20,669.5C 19.5001,653.503 19.3334,637.503 19.5,621.5C 58.1667,621.5 96.8333,621.5 135.5,621.5C 135.134,637.536 135.634,653.536 137,669.5C 143.823,711.994 167.989,739.161 209.5,751C 250.573,761.724 291.24,760.391 331.5,747C 372.199,728.102 388.366,696.602 380,652.5C 371.069,632.237 356.236,618.071 335.5,610C 319.773,603.869 303.773,598.536 287.5,594C 255.704,586.841 224.038,579.174 192.5,571C 167.402,563.616 143.068,554.282 119.5,543C 54.2599,507.366 25.7599,452.199 34,377.5C 41.1846,310.982 75.3513,264.149 136.5,237C 165.129,225.045 194.796,217.879 225.5,215.5 Z"/>
    </g>
    <g>
        <path style="opacity:0.991" fill="#1f201f" d="M 1079.5,847.5 C 1079.5,848.167 1079.5,848.833 1079.5,849.5C 1027.83,849.667 976.166,849.5 924.5,849C 856.333,765.5 788.167,682 720,598.5C 714.593,597.527 709.093,597.193 703.5,597.5C 703.5,681.5 703.5,765.5 703.5,849.5C 664.167,849.5 624.833,849.5 585.5,849.5C 585.5,642.167 585.5,434.833 585.5,227.5C 624.833,227.5 664.167,227.5 703.5,227.5C 703.5,309.833 703.5,392.167 703.5,474.5C 708.875,474.828 714.208,474.495 719.5,473.5C 786.167,391.833 852.833,310.167 919.5,228.5C 969.833,227.167 1020.17,227.167 1070.5,228.5C 984.124,330.207 898.124,432.207 812.5,534.5C 901.177,639.172 990.177,743.505 1079.5,847.5 Z"/>
    </g>
</svg>
