<svg xmlns="http://www.w3.org/2000/svg" fill="none" viewBox="-0.835 -0.835 40 40" id="Network--Streamline-Ultimate.svg" height="40" width="40">
    <desc>Network Streamline Icon: https://streamlinehq.com</desc>
    <path fill="#ee55ee" d="M19.165 36.73291666666667c9.702600666666667 0 17.56791666666667 -7.865316000000001 17.56791666666667 -17.56791666666667 0 -9.702568724999999 -7.865316000000001 -17.56791666666667 -17.56791666666667 -17.56791666666667C9.462590983333333 1.5970833333333334 1.5970833333333334 9.462431275000002 1.5970833333333334 19.165c0 9.702600666666667 7.8655076500000005 17.56791666666667 17.56791666666667 17.56791666666667Z" stroke-width="1.67"></path>
    <path fill="#7777ff" d="M6.8888113375 23.750865083333334c-0.0004631541666666667 -3.068635916666667 0.8027899083333334 -6.083450125000001 2.329665458333334 -8.745021441666667 1.5268595791666668 -2.6615234041666667 3.7241747416666664 -4.876614104166667 6.373240895833334 -6.424986395833334 2.6492098916666666 -1.5483882625 5.657635766666667 -2.3759649041666666 8.725792558333334 -2.4002725125 3.0684762083333337 -0.024323579166666668 6.089519041666667 0.7554044458333334 8.762717125 2.2616935916666665 -1.5895770416666666 -2.0620102625 -3.6178728749999998 -3.7447611458333334 -5.937636416666667 -4.926810433333333 -2.320082958333334 -1.1819055500000002 -4.873499791666667 -1.8334995791666668 -7.4762664999999995 -1.907380654166667 -2.6024472916666666 -0.07404397750000001 -5.188859866666666 0.4314840041666667 -7.5721394125 1.479633825 -2.3832795458333336 1.0483095291666669 -4.503902766666667 2.6132116333333335 -6.2081663625 4.581680725 -1.704247625 1.9683253541666668 -2.949749033333333 4.290819908333333 -3.646237075 6.799582291666668 -0.696475265 2.5086505875 -0.82679247375 5.140963337500001 -0.38128767500000005 7.7061985875 0.44566610416666674 2.56523525 1.4557893708333334 4.999349958333334 2.9573990625 7.126345541666668 1.5017694000000001 2.1268358750000003 3.4573180875 3.893210041666667 5.725559720833334 5.171834958333334 -2.3734734541666667 -3.0699135833333333 -3.6584068500000004 -6.842224416666667 -3.6526413791666665 -10.722498083333333Z" stroke-width="1.67"></path>
    <path stroke="#191919" stroke-linecap="round" stroke-linejoin="round" d="M19.165 36.73291666666667c9.702600666666667 0 17.56791666666667 -7.865316000000001 17.56791666666667 -17.56791666666667 0 -9.702568724999999 -7.865316000000001 -17.56791666666667 -17.56791666666667 -17.56791666666667C9.462590983333333 1.5970833333333334 1.5970833333333334 9.462431275000002 1.5970833333333334 19.165c0 9.702600666666667 7.8655076500000005 17.56791666666667 17.56791666666667 17.56791666666667Z" stroke-width="1.67"></path>
    <path fill="#ffef5e" stroke="#191919" stroke-linecap="round" stroke-linejoin="round" d="M14.2003546625 16.109779583333335c1.8984050458333332 0 3.4371948375 -1.5389175583333334 3.4371948375 -3.4372427500000002 0 -1.8983411625000002 -1.5387897916666669 -3.4372108083333335 -3.4371948375 -3.4372108083333335 -1.8983251916666668 0 -3.4371948375 1.5388696458333335 -3.4371948375 3.4372108083333335 0 1.8983251916666668 1.5388696458333335 3.4372427500000002 3.4371948375 3.4372427500000002Z" stroke-width="1.67"></path>
    <path fill="#ffef5e" stroke="#191919" stroke-linecap="round" stroke-linejoin="round" d="M22.603041291666667 29.858590875c1.0547138333333335 0 1.9094728333333335 -0.8550784166666667 1.9094728333333335 -1.9096325416666666 0 -1.0547138333333335 -0.854759 -1.9094728333333335 -1.9094728333333335 -1.9094728333333335s-1.9096325416666666 0.854759 -1.9096325416666666 1.9094728333333335c0 1.0545541250000001 0.8549187083333334 1.9096325416666666 1.9096325416666666 1.9096325416666666Z" stroke-width="1.67"></path>
    <path fill="#ffef5e" stroke="#191919" stroke-linecap="round" stroke-linejoin="round" d="M29.476728250000004 19.165c1.4765035416666668 0 2.6733577916666666 -1.19685425 2.6733577916666666 -2.6733577916666666s-1.19685425 -2.6733737625000003 -2.6733577916666666 -2.6733737625000003 -2.6733577916666666 1.1968702208333335 -2.6733577916666666 2.6733737625000003S28.000224708333334 19.165 29.476728250000004 19.165Z" stroke-width="1.67"></path>
    <path stroke="#191919" stroke-linecap="round" stroke-linejoin="round" d="M17.637389791666667 12.293708666666667c3.415043291666667 0.13000258333333334 6.6689408750000005 1.4858784208333335 9.165820958333333 3.8191053750000004" stroke-width="1.67"></path>
    <path stroke="#191919" stroke-linecap="round" stroke-linejoin="round" d="m30.011591458333335 19.113094791666665 0.6110440833333334 0.8157901666666667s2.291495166666667 3.0584145833333336 2.291495166666667 9.932740375" stroke-width="1.67"></path>
    <path stroke="#191919" stroke-linecap="round" stroke-linejoin="round" d="m26.532824541666667 3.2119102625 0.2703862083333334 0.6797985208333334c1.105341375 3.274611754166667 1.622796375 6.719153175 1.5276102083333334 10.174123550000001" stroke-width="1.67"></path>
    <path stroke="#191919" stroke-linecap="round" stroke-linejoin="round" d="M27.567095708333333 18.404309208333334c-0.19069175000000002 3.1558366666666666 -1.3278150833333335 6.181191625 -3.2630009583333335 8.681585291666668" stroke-width="1.67"></path>
    <path stroke="#191919" stroke-linecap="round" stroke-linejoin="round" d="m21.688870791666666 29.62621525 -0.2322159166666667 0.23541008333333335s-3.8191053750000004 3.8191053750000004 -12.2211851125 3.8191053750000004" stroke-width="1.67"></path>
    <path stroke="#191919" stroke-linecap="round" stroke-linejoin="round" d="M19.165479125 1.6001976458333333C17.075535875000003 3.8355553333333336 15.395004937500001 6.420865920833333 14.200626166666668 9.238424366666667" stroke-width="1.67"></path>
    <path stroke="#191919" stroke-linecap="round" stroke-linejoin="round" d="m12.416029279166667 15.611681233333334 -0.12532312916666666 0.5011328083333334c-0.8324158041666666 4.1314948750000005 -0.2960193958333333 8.421580125 1.5276421500000001 12.221201083333334 2.5969533250000003 5.203137791666666 9.165916783333333 7.638210750000001 9.165916783333333 7.638210750000001l0.569679625 0.212252375" stroke-width="1.67"></path>
    <path stroke="#191919" stroke-linecap="round" stroke-linejoin="round" d="M10.763143854166668 12.672504891666668s-5.867716108333334 0.42011277083333337 -8.822160566666668 3.0141434333333335" stroke-width="1.67"></path>
    <path stroke="#191919" stroke-linecap="round" stroke-linejoin="round" d="m2.0252134625 23.036010583333333 0.33607424583333334 -0.04871104166666667s10.5117629375 -1.6164080416666669 19.0557595 3.4677470416666667" stroke-width="1.67"></path>
</svg>
