<svg xmlns="http://www.w3.org/2000/svg" fill="none" viewBox="-0.335 -0.335 16 16" id="Medical-Hospital--Streamline-Ultimate.svg" height="16" width="16">
    <desc>Medical Hospital Streamline Icon: https://streamlinehq.com</desc>
    <path fill="#ee55ee" d="M14.249937625 5.626774299999999c0.07013475 -0.040509525 0.12136249999999998 -0.10723334999999999 0.14231349999999998 -0.18549299999999996 0.020951 -0.07825326249999999 0.010028374999999997 -0.16163568749999999 -0.030532249999999997 -0.23180237499999998l-1.2219287499999998 -2.1164278624999997c-0.030085124999999997 -0.052013412499999995 -0.07479762499999999 -0.09401122499999999 -0.128580375 -0.1207429125 -0.05378274999999999 -0.026731687499999997 -0.114272375 -0.037015562499999995 -0.17386775 -0.029561349999999997 -0.03985799999999999 0.0052696875 -0.078246875 0.018351287499999997 -0.112994875 0.038491075l-3.5308822499999994 2.0376125V0.9442385749999999c0 -0.08101905 -0.032193 -0.15872298749999997 -0.089488875 -0.21601247499999995C9.046680124999998 0.6709366124999999 8.969008124999998 0.6387499999999999 8.888014624999999 0.6387499999999999h-2.4439213749999995c-0.0810382125 0 -0.15874214999999997 0.032186612499999996 -0.21603163749999998 0.0894761 -0.0572894875 0.0572894875 -0.0894761 0.13499342499999997 -0.0894761 0.21601247499999995v4.0740049874999995L2.6107948124999996 2.9812378749999997c-0.07016029999999998 -0.040503137499999994 -0.153542725 -0.051483249999999994 -0.23180237499999998 -0.030513087499999998 -0.07825965 0.020963775 -0.14498347499999997 0.0721595875 -0.18549299999999996 0.14232627499999997L0.9684855249999998 5.209478924999999c-0.040509525 0.07016668749999999 -0.051483249999999994 0.15354911249999997 -0.030519474999999997 0.23180237499999998 0.020970162499999997 0.07825965 0.072165975 0.14498347499999997 0.14233266249999998 0.18549299999999996L4.6111426374999995 7.664999999999999l-3.5277906999999997 2.03697375c-0.0349971125 0.019801249999999996 -0.06574015 0.04637324999999999 -0.09046616249999999 0.07805524999999999 -0.0247260125 0.031745875 -0.04294316249999999 0.06802687499999999 -0.053616674999999996 0.10679899999999998 -0.010673512499999998 0.03877212499999999 -0.013586212499999998 0.07920499999999998 -0.008572024999999999 0.11912687499999998 0.005014187499999999 0.039921874999999996 0.01785945 0.0784385 0.037788449999999994 0.11331424999999999l1.2219606874999998 2.1164342499999997c0.040509525 0.07019862499999999 0.10723334999999999 0.12136249999999998 0.18549299999999996 0.14237737499999997 0.07825326249999999 0.020951 0.16163568749999999 0.009964499999999998 0.23180237499999998 -0.030532249999999997l3.5277906999999997 -2.0376125v4.0757998749999995c0 0.081057375 0.032186612499999996 0.15872937499999998 0.0894761 0.21602524999999997 0.0572894875 0.057295874999999996 0.1349870375 0.089488875 0.21601886249999996 0.089488875h2.4439213749999995c0.08099349999999998 0 0.15872937499999998 -0.032193 0.21602524999999997 -0.089488875 0.05723199999999999 -0.057295874999999996 0.089425 -0.134967875 0.089425 -0.21602524999999997v-4.0757998749999995l3.5290298749999995 2.0376125c0.034811875 0.020120625 0.07320074999999998 0.033151125 0.11305874999999999 0.038388874999999996 0.03985799999999999 0.00523775 0.080290875 0.002555 0.11912687499999998 -0.007856624999999999 0.0774165 -0.021461999999999995 0.14327162499999999 -0.07262587499999999 0.18325737499999997 -0.14237737499999997l1.221992625 -2.1164342499999997c0.04049674999999999 -0.07013475 0.051483249999999994 -0.153491625 0.030532249999999997 -0.23180237499999998 -0.021014874999999995 -0.078246875 -0.07217875 -0.14493237499999997 -0.14237737499999997 -0.18549299999999996L10.720907749999999 7.664999999999999l3.5290298749999995 -2.0382257Z" stroke-width="0.67"></path>
    <path fill="#ee5555" d="M9.193464874999998 0.9442385749999999c0 -0.08101905 -0.032193 -0.15872298749999997 -0.089488875 -0.21601247499999995C9.046680124999998 0.6709366124999999 8.969008124999998 0.6387499999999999 8.888014624999999 0.6387499999999999h-2.4439213749999995c-0.0810382125 0 -0.15874214999999997 0.032186612499999996 -0.21603163749999998 0.0894761 -0.0572894875 0.0572894875 -0.0894761 0.13499342499999997 -0.0894761 0.21601247499999995v4.0740049874999995L2.6107948124999996 2.9812378749999997c-0.07016029999999998 -0.040503137499999994 -0.153542725 -0.051483249999999994 -0.23180237499999998 -0.030513087499999998 -0.07825965 0.020963775 -0.14498347499999997 0.0721595875 -0.18549299999999996 0.14232627499999997L0.9684855249999998 5.209478924999999c-0.040509525 0.07016668749999999 -0.051483249999999994 0.15354911249999997 -0.030519474999999997 0.23180237499999998 0.020970162499999997 0.07825965 0.072165975 0.14498347499999997 0.14233266249999998 0.18549299999999996L4.6111362499999995 7.664999999999999l-3.5277843124999997 2.03697375c-0.0349971125 0.019801249999999996 -0.06574015 0.04637324999999999 -0.09046616249999999 0.07805524999999999 -0.0247260125 0.031745875 -0.04294316249999999 0.06802687499999999 -0.053616674999999996 0.10679899999999998 -0.010673512499999998 0.03877212499999999 -0.013586212499999998 0.07920499999999998 -0.008572024999999999 0.11912687499999998 0.005014187499999999 0.039921874999999996 0.01785945 0.0784385 0.037788449999999994 0.11331424999999999l1.2219606874999998 2.1164342499999997c0.040509525 0.07019862499999999 0.10723334999999999 0.12136249999999998 0.18549299999999996 0.14237737499999997 0.07825326249999999 0.020951 0.16163568749999999 0.009964499999999998 0.23180237499999998 -0.030532249999999997l0.6415285625 -0.37028337499999997L11.599508375 3.6325456999999997 9.193464874999998 5.0188503749999995V0.9442385749999999Z" stroke-width="0.67"></path>
    <path stroke="#191919" stroke-linecap="round" stroke-linejoin="round" d="M14.249937625 5.626774299999999c0.07013475 -0.040509525 0.12136249999999998 -0.10723334999999999 0.14231349999999998 -0.18549299999999996 0.020951 -0.07825326249999999 0.010028374999999997 -0.16163568749999999 -0.030532249999999997 -0.23180237499999998l-1.2219287499999998 -2.1164278624999997c-0.030085124999999997 -0.052013412499999995 -0.07479762499999999 -0.09401122499999999 -0.128580375 -0.1207429125 -0.05378274999999999 -0.026731687499999997 -0.114272375 -0.037015562499999995 -0.17386775 -0.029561349999999997 -0.03985799999999999 0.0052696875 -0.078246875 0.018351287499999997 -0.112994875 0.038491075l-3.5308822499999994 2.0376125V0.9442385749999999c0 -0.08101905 -0.032193 -0.15872298749999997 -0.089488875 -0.21601247499999995C9.046680124999998 0.6709366124999999 8.969008124999998 0.6387499999999999 8.888014624999999 0.6387499999999999h-2.4439213749999995c-0.0810382125 0 -0.15874214999999997 0.032186612499999996 -0.21603163749999998 0.0894761 -0.0572894875 0.0572894875 -0.0894761 0.13499342499999997 -0.0894761 0.21601247499999995v4.0740049874999995L2.6107948124999996 2.9812378749999997c-0.07016029999999998 -0.040503137499999994 -0.153542725 -0.051483249999999994 -0.23180237499999998 -0.030513087499999998 -0.07825965 0.020963775 -0.14498347499999997 0.0721595875 -0.18549299999999996 0.14232627499999997L0.9684855249999998 5.209478924999999c-0.040509525 0.07016668749999999 -0.051483249999999994 0.15354911249999997 -0.030519474999999997 0.23180237499999998 0.020970162499999997 0.07825965 0.072165975 0.14498347499999997 0.14233266249999998 0.18549299999999996L4.6111426374999995 7.664999999999999l-3.5277906999999997 2.03697375c-0.0349971125 0.019801249999999996 -0.06574015 0.04637324999999999 -0.09046616249999999 0.07805524999999999 -0.0247260125 0.031745875 -0.04294316249999999 0.06802687499999999 -0.053616674999999996 0.10679899999999998 -0.010673512499999998 0.03877212499999999 -0.013586212499999998 0.07920499999999998 -0.008572024999999999 0.11912687499999998 0.005014187499999999 0.039921874999999996 0.01785945 0.0784385 0.037788449999999994 0.11331424999999999l1.2219606874999998 2.1164342499999997c0.040509525 0.07019862499999999 0.10723334999999999 0.12136249999999998 0.18549299999999996 0.14237737499999997 0.07825326249999999 0.020951 0.16163568749999999 0.009964499999999998 0.23180237499999998 -0.030532249999999997l3.5277906999999997 -2.0376125v4.0757998749999995c0 0.081057375 0.032186612499999996 0.15872937499999998 0.0894761 0.21602524999999997 0.0572894875 0.057295874999999996 0.1349870375 0.089488875 0.21601886249999996 0.089488875h2.4439213749999995c0.08099349999999998 0 0.15872937499999998 -0.032193 0.21602524999999997 -0.089488875 0.05723199999999999 -0.057295874999999996 0.089425 -0.134967875 0.089425 -0.21602524999999997v-4.0757998749999995l3.5290298749999995 2.0376125c0.034811875 0.020120625 0.07320074999999998 0.033151125 0.11305874999999999 0.038388874999999996 0.03985799999999999 0.00523775 0.080290875 0.002555 0.11912687499999998 -0.007856624999999999 0.0774165 -0.021461999999999995 0.14327162499999999 -0.07262587499999999 0.18325737499999997 -0.14237737499999997l1.221992625 -2.1164342499999997c0.04049674999999999 -0.07013475 0.051483249999999994 -0.153491625 0.030532249999999997 -0.23180237499999998 -0.021014874999999995 -0.078246875 -0.07217875 -0.14493237499999997 -0.14237737499999997 -0.18549299999999996L10.720907749999999 7.664999999999999l3.5290298749999995 -2.0382257Z" stroke-width="0.67"></path>
</svg>
