<svg xmlns="http://www.w3.org/2000/svg" fill="none" viewBox="-0.835 -0.835 40 40" id="App-Window-Cloud--Streamline-Ultimate.svg" height="40" width="40">
    <desc>App Window Cloud Streamline Icon: https://streamlinehq.com</desc>
    <path fill="#ee55ee" d="M36.73291666666667 11.523674937500001V31.38300691666667c0 0.8103600833333333 -0.32197200000000004 1.5875008333333334 -0.8948457916666668 2.1605343333333336 -0.5730335000000001 0.5728737916666667 -1.35017425 0.8948457916666668 -2.160374625 0.8948457916666668H4.652367633333333c-0.40121927500000004 0 -0.7985256958333333 -0.079055625 -1.1692087375 -0.23253533333333334 -0.3706830416666667 -0.15363941666666667 -0.7074919458333334 -0.37866845833333335 -0.9911978291666668 -0.6623104583333334C1.9189754791666667 32.97050775 1.5970833333333334 32.193367 1.5970833333333334 31.38300691666667V11.523674937500001h35.13583333333334Z" stroke-width="1.67"></path>
    <path fill="#7777ff" d="M4.652367633333333 34.43838704166667h3.0553002708333334L30.622316125 11.523674937500001H1.5970833333333334V31.38300691666667c0 0.8103600833333333 0.32189214583333337 1.5875008333333334 0.8948777333333334 2.1605343333333336 0.5729696166666667 0.5728737916666667 1.3500943958333336 0.8948457916666668 2.1604065666666665 0.8948457916666668Z" stroke-width="1.67"></path>
    <path fill="#ffffff" d="M36.73291666666667 11.523706879166667H1.5970833333333334V6.9407644583333346c0 -0.8103121708333334 0.32189214583333337 -1.58743695 0.8948777333333334 -2.1604065666666665 0.5729696166666667 -0.5729855875 1.3500943958333336 -0.8948777333333334 2.1604065666666665 -0.8948777333333334H33.677696250000004c0.810200375 0 1.587341125 0.32189214583333337 2.160374625 0.8948777333333334 0.5728737916666667 0.5729696166666667 0.8948457916666668 1.3500943958333336 0.8948457916666668 2.1604065666666665v4.582942420833334Z" stroke-width="1.67"></path>
    <path stroke="#191919" stroke-linecap="round" stroke-linejoin="round" d="M33.677696250000004 3.891325483333333H4.652367633333333c-0.40121927500000004 0 -0.7985256958333333 0.07903965416666667 -1.1692087375 0.23258324583333337 -0.3706830416666667 0.15352762083333332 -0.7074919458333334 0.3785886041666667 -0.9911978291666668 0.6622944875000001C1.9189754791666667 5.359188804166667 1.5970833333333334 6.136313583333334 1.5970833333333334 6.946625754166667V31.388916125c0 0.8103600833333333 0.32189214583333337 1.5875008333333334 0.8948777333333334 2.160374625 0.28370588333333335 0.28380170833333335 0.6205147875 0.50883075 0.9911978291666668 0.6623104583333334 0.3706830416666667 0.15363941666666667 0.7679894625000001 0.23269504166666669 1.1692087375 0.23269504166666669H33.677696250000004c0.810200375 0 1.587341125 -0.32197200000000004 2.160374625 -0.8950055 0.5728737916666667 -0.5728737916666667 0.8948457916666668 -1.350014541666667 0.8948457916666668 -2.160374625V6.946625754166667c0 -0.8103121708333334 -0.32197200000000004 -1.58743695 -0.8948457916666668 -2.1604225375 -0.5730335000000001 -0.5729696166666667 -1.35017425 -0.8948777333333334 -2.160374625 -0.8948777333333334Z" stroke-width="1.67"></path>
    <path stroke="#191919" stroke-linecap="round" stroke-linejoin="round" d="M1.5970833333333334 11.529775795833334h35.13583333333334" stroke-width="1.67"></path>
    <path fill="#ffffff" stroke="#191919" stroke-linecap="round" stroke-linejoin="round" d="M29.9261475 24.16035725c-0.010221333333333334 -0.5703184583333333 -0.13527295833333333 -1.1326515000000001 -0.36764858333333333 -1.6534603750000003 -0.232375625 -0.5209685833333333 -0.567284 -0.9897125416666668 -0.9846018750000001 -1.378442625 -0.4174775833333334 -0.388570375 -0.9089001250000002 -0.6891414583333334 -1.4452007083333334 -0.8836662083333334 -0.5361408750000001 -0.19468445833333334 -1.1059802083333334 -0.2791701666666667 -1.675500125 -0.24882558333333332 -0.5065948333333333 -1.011432875 -1.2861312083333334 -1.8609215000000001 -2.250450125 -2.45216175 -0.964478625 -0.59124025 -2.075090375 -0.900755 -3.2063045000000003 -0.8934084166666667 -1.5153126666666668 -0.021560625 -2.981914291666667 0.535182625 -4.101341941666667 1.5569965416666667 -1.1193318250000002 1.0216542083333335 -1.8072435291666669 2.431559375 -1.9236709041666669 3.9425599166666667 -0.4628028083333333 -0.10333129166666666 -0.9427742625000001 -0.10269245833333333 -1.4053215375 0.001756791666666667 -0.46256324583333336 0.10444925000000001 -0.8962033125000001 0.31015358333333337 -1.2696652791666667 0.6024198333333334 -0.37346196666666664 0.2921065416666667 -0.6774667791666668 0.663588125 -0.8901024541666667 1.0874540416666667 -0.21263567500000002 0.42386591666666673 -0.3285998958333333 0.8895754166666668 -0.33957185833333337 1.3637494583333334 0 3.177397291666667 3.454012125 3.1224576250000005 3.454012125 3.1224576250000005h12.526691183333334c1.0381041666666668 -0.11578854166666666 2.000346875 -0.5998645 2.7120072083333335 -1.364548 0.7116603333333333 -0.7646835000000001 1.1256243333333333 -1.7590275833333333 1.1666693750000001 -2.80288125Z" stroke-width="1.67"></path>
    <path stroke="#191919" d="M11.526405950000001 8.092628870833334c-0.10128702500000002 0 -0.19843760416666667 -0.040246500000000004 -0.2700508208333333 -0.11185971666666668 -0.07162918750000001 -0.07162918750000001 -0.11185971666666668 -0.16876379583333334 -0.11185971666666668 -0.2700508208333333 0 -0.10128702500000002 0.04023052916666667 -0.19843760416666667 0.11185971666666668 -0.2700508208333333 0.07161321666666667 -0.07162918750000001 0.16876379583333334 -0.11185971666666668 0.2700508208333333 -0.11185971666666668" stroke-width="1.67"></path>
    <path stroke="#191919" d="M11.526613570833334 8.092628870833334c0.10128702500000002 0 0.19842163333333335 -0.040246500000000004 0.2700508208333333 -0.11185971666666668 0.07161321666666667 -0.07162918750000001 0.11185971666666668 -0.16876379583333334 0.11185971666666668 -0.2700508208333333 0 -0.10128702500000002 -0.040246500000000004 -0.19843760416666667 -0.11185971666666668 -0.2700508208333333 -0.07162918750000001 -0.07162918750000001 -0.16876379583333334 -0.11185971666666668 -0.2700508208333333 -0.11185971666666668" stroke-width="1.67"></path>
    <path stroke="#191919" d="M6.943367704166667 8.092628870833334c-0.10128702500000002 0 -0.19843760416666667 -0.040246500000000004 -0.2700508208333333 -0.11185971666666668 -0.07162918750000001 -0.07162918750000001 -0.11185971666666668 -0.16876379583333334 -0.11185971666666668 -0.2700508208333333 0 -0.10128702500000002 0.04023052916666667 -0.19843760416666667 0.11185971666666668 -0.2700508208333333 0.07161321666666667 -0.07162918750000001 0.16876379583333334 -0.11185971666666668 0.2700508208333333 -0.11185971666666668" stroke-width="1.67"></path>
    <path stroke="#191919" d="M6.943575325000001 8.092628870833334c0.10128702500000002 0 0.19842163333333335 -0.040246500000000004 0.2700508208333333 -0.11185971666666668 0.07161321666666667 -0.07162918750000001 0.11185971666666668 -0.16876379583333334 0.11185971666666668 -0.2700508208333333 0 -0.10128702500000002 -0.040246500000000004 -0.19843760416666667 -0.11185971666666668 -0.2700508208333333 -0.07162918750000001 -0.07162918750000001 -0.16876379583333334 -0.11185971666666668 -0.2700508208333333 -0.11185971666666668" stroke-width="1.67"></path>
    <path stroke="#191919" d="M16.10946016666667 8.092628870833334c-0.10125508333333333 0 -0.198453575 -0.040246500000000004 -0.2700667916666667 -0.11185971666666668 -0.07162918750000001 -0.07162918750000001 -0.11185971666666668 -0.16876379583333334 -0.11185971666666668 -0.2700508208333333 0 -0.10128702500000002 0.04023052916666667 -0.19843760416666667 0.11185971666666668 -0.2700508208333333 0.07161321666666667 -0.07162918750000001 0.16881170833333334 -0.11185971666666668 0.2700667916666667 -0.11185971666666668" stroke-width="1.67"></path>
    <path stroke="#191919" d="M16.10882133333333 8.092628870833334c0.10125508333333333 0 0.19851745833333334 -0.040246500000000004 0.2700667916666667 -0.11185971666666668 0.07170904166666667 -0.07162918750000001 0.11195554166666667 -0.16876379583333334 0.11195554166666667 -0.2700508208333333 0 -0.10128702500000002 -0.040246500000000004 -0.19843760416666667 -0.11195554166666667 -0.2700508208333333 -0.07154933333333334 -0.07162918750000001 -0.16881170833333334 -0.11185971666666668 -0.2700667916666667 -0.11185971666666668" stroke-width="1.67"></path>
</svg>
