<svg xmlns="http://www.w3.org/2000/svg" fill="none" viewBox="-0.835 -0.835 40 40" id="Color-Palette--Streamline-Ultimate.svg" height="40" width="40">
    <desc>Color Palette Streamline Icon: https://streamlinehq.com</desc>
    <g clip-path="url(#a)">
        <path fill="#ee55ee" d="M30.616726333333336 13.065834575000002c0.0031941666666666668 0.6718929583333334 -0.0594115 1.3406396625 -0.18302575 2.0002829916666665 -1.5970833333333334 -0.8182656458333333 -3.366651666666667 -1.2422753 -5.1611345 -1.2367334208333334 -2.162610541666667 -0.0011978125 -4.280981875 0.6131202916666667 -6.107566083333333 1.7712133291666667 -1.8265842083333332 -1.1580930375 -3.9448916583333338 -1.7724111416666668 -6.107534141666667 -1.7712133291666667 -1.794402979166667 -0.005541879166666667 -3.5639872833333337 0.418467775 -5.160878966666667 1.2367334208333334 -0.12364619166666668 -0.6594836208333335 -0.18494225 -1.3291406625000002 -0.18329725416666667 -2.0002829916666665 0 -8.815452816666667 9.543195779166668 -14.325141171666667 17.17757352916667 -9.917488229166667 3.5432890833333333 2.0457200125 5.725863166666667 5.826191941666667 5.725863166666667 9.917488229166667Z" stroke-width="1.67"></path>
        <path fill="#78eb7b" d="M19.16723591666667 15.600613445833336C16.43877875 17.309029458333335 14.563196025 20.094821916666668 14.006420833333333 23.265671166666667c-3.2189214583333334 -1.6124153333333335 -5.484416108333333 -4.653581416666667 -6.107566083333333 -8.1995536 1.5969076541666667 -0.8182496750000001 3.3664759875 -1.2422593291666668 5.160878966666667 -1.2367334208333334 2.1620355916666667 0 4.2799597416666675 0.6137431541666667 6.1075022 1.7712293000000001Z" stroke-width="1.67"></path>
        <path fill="#ffef5e" d="M19.16723591666667 34.94641925C17.345123541666666 36.11596337500001 15.224787795833336 36.736110833333335 13.059605950000002 36.73291666666667c-8.815452816666667 -0.012137833333333334 -14.31228305375 -9.562696166666667 -9.894011104166667 -17.191164708333332 1.1111387875 -1.9185762083333335 2.7554319041666666 -3.473336833333333 4.7331321375 -4.475618420833333 0.623149975 3.5459562125000006 2.8886605958333336 6.587122295833333 6.107566083333333 8.199537629166668 -0.8362008916666668 4.583309750000001 1.2092316458333334 9.212775208333335 5.1609428500000005 11.680748083333333Z" stroke-width="1.67"></path>
        <path fill="#e3e3e3" d="M24.325815083333335 23.265671166666667c-3.23792675 1.6692715 -7.083703416666666 1.6692715 -10.321710020833335 0C14.561023991666667 20.094821916666668 16.436542833333334 17.309189166666666 19.165 15.600613445833336c2.7282974583333335 1.7085757208333332 4.604071833333333 4.494208470833334 5.1608150833333335 7.6650577208333335Z" stroke-width="1.67"></path>
        <path fill="#d480ff" d="M30.435137958333335 15.066117566666668c-0.623341625 3.5459721833333333 -2.888644625 6.587138266666667 -6.107566083333333 8.1995536 -0.5570626666666667 -3.170689541666667 -2.432677333333334 -5.956322291666667 -5.160974791666667 -7.6650577208333335 1.8265842083333332 -1.1580930375 3.944955541666667 -1.7724271125000002 6.107725791666667 -1.7712293000000001 1.7941634166666667 -0.0055259083333333335 3.5638914583333334 0.4184837458333333 5.1608150833333335 1.2367334208333334Z" stroke-width="1.67"></path>
        <path fill="#c77f67" d="M24.510278208333332 25.281190333333335c0.008464541666666667 3.9286652916666673 -2.012325 7.583430791666668 -5.344319958333333 9.665228916666667 -3.9515834375 -2.467972875 -5.997000004166667 -7.097438333333334 -5.1607991125 -11.680748083333333 3.2380704875 1.6694312083333331 7.083687445833333 1.6694312083333331 10.3219336125 0 0.122176875 0.6642269583333333 0.18318545833333333 1.3391543750000001 0.18318545833333333 2.015519166666667Z" stroke-width="1.67"></path>
        <path fill="#ff808c" d="M36.724292416666664 25.281190333333335c0 6.324769416666667 -5.1267972083333335 11.452045750000002 -11.451726333333333 11.451726333333333 -2.1650061666666667 0.0031941666666666668 -4.2852939999999995 -0.6169532916666667 -6.107566083333333 -1.7864974166666667 3.9518230000000005 -2.467972875 5.997207625000001 -7.097438333333334 5.160974791666667 -11.680748083333333 3.21876175 -1.6124153333333335 5.484224458333333 -4.653741125 6.107566083333333 -8.199537629166668C34.297204875000006 17.003507416666668 36.73291666666667 20.959003708333334 36.724292416666664 25.281190333333335Z" stroke-width="1.67"></path>
        <path stroke="#191919" stroke-linecap="round" stroke-linejoin="round" d="M30.616726333333336 13.065834575000002c0.0031941666666666668 0.6718929583333334 -0.0594115 1.3406396625 -0.18302575 2.0002829916666665 -1.5970833333333334 -0.8182656458333333 -3.366651666666667 -1.2422753 -5.1611345 -1.2367334208333334 -2.162610541666667 -0.0011978125 -4.280981875 0.6131202916666667 -6.107566083333333 1.7712133291666667 -1.8265842083333332 -1.1580930375 -3.9448916583333338 -1.7724111416666668 -6.107534141666667 -1.7712133291666667 -1.794402979166667 -0.005541879166666667 -3.5639872833333337 0.418467775 -5.160878966666667 1.2367334208333334 -0.12364619166666668 -0.6594836208333335 -0.18494225 -1.3291406625000002 -0.18329725416666667 -2.0002829916666665 0 -8.815452816666667 9.543195779166668 -14.325141171666667 17.17757352916667 -9.917488229166667 3.5432890833333333 2.0457200125 5.725863166666667 5.826191941666667 5.725863166666667 9.917488229166667Z" stroke-width="1.67"></path>
        <path stroke="#191919" stroke-linecap="round" stroke-linejoin="round" d="M19.16723591666667 15.600613445833336C16.43877875 17.309029458333335 14.563196025 20.094821916666668 14.006420833333333 23.265671166666667c-3.2189214583333334 -1.6124153333333335 -5.484416108333333 -4.653581416666667 -6.107566083333333 -8.1995536 1.5969076541666667 -0.8182496750000001 3.3664759875 -1.2422593291666668 5.160878966666667 -1.2367334208333334 2.1620355916666667 0 4.2799597416666675 0.6137431541666667 6.1075022 1.7712293000000001Z" stroke-width="1.67"></path>
        <path stroke="#191919" stroke-linecap="round" stroke-linejoin="round" d="M19.16723591666667 34.94641925C17.345123541666666 36.11596337500001 15.224787795833336 36.736110833333335 13.059605950000002 36.73291666666667c-8.815452816666667 -0.012137833333333334 -14.31228305375 -9.562696166666667 -9.894011104166667 -17.191164708333332 1.1111387875 -1.9185762083333335 2.7554319041666666 -3.473336833333333 4.7331321375 -4.475618420833333 0.623149975 3.5459562125000006 2.8886605958333336 6.587122295833333 6.107566083333333 8.199537629166668 -0.8362008916666668 4.583309750000001 1.2092316458333334 9.212775208333335 5.1609428500000005 11.680748083333333Z" stroke-width="1.67"></path>
        <path stroke="#191919" stroke-linecap="round" stroke-linejoin="round" d="M24.325815083333335 23.265671166666667c-3.23792675 1.6692715 -7.083703416666666 1.6692715 -10.321710020833335 0C14.561023991666667 20.094821916666668 16.436542833333334 17.309189166666666 19.165 15.600613445833336c2.7282974583333335 1.7085757208333332 4.604071833333333 4.494208470833334 5.1608150833333335 7.6650577208333335Z" stroke-width="1.67"></path>
        <path stroke="#191919" stroke-linecap="round" stroke-linejoin="round" d="M24.327092750000002 23.265671166666667c3.2189214583333334 -1.6124153333333335 5.484224458333333 -4.653581416666667 6.107566083333333 -8.1995536 -1.596923625 -0.8182496750000001 -3.366651666666667 -1.2422593291666668 -5.160974791666667 -1.2367334208333334 -2.1627702500000003 -0.0011978125 -4.2811415833333335 0.6131362625 -6.107725791666667 1.7712293000000001 2.728457166666667 1.7087354291666665 4.604071833333333 4.494368179166667 5.1611345 7.6650577208333335Zm0 0c-3.238246166666667 1.6692715 -7.083863125000001 1.6692715 -10.3219336125 0 -0.8362008916666668 4.583309750000001 1.209215675 9.212775208333335 5.1607991125 11.680748083333333 3.3319949583333335 -2.081798125 5.3527845 -5.7365636250000005 5.344319958333333 -9.665228916666667 0 -0.6763647916666666 -0.06100858333333333 -1.3512922083333334 -0.18318545833333333 -2.015519166666667Z" stroke-width="1.67"></path>
        <path stroke="#191919" stroke-linecap="round" stroke-linejoin="round" d="M36.724292416666664 25.281190333333335c0 6.324769416666667 -5.1267972083333335 11.452045750000002 -11.451726333333333 11.451726333333333 -2.1650061666666667 0.0031941666666666668 -4.2852939999999995 -0.6169532916666667 -6.107566083333333 -1.7864974166666667 3.9518230000000005 -2.467972875 5.997207625000001 -7.097438333333334 5.160974791666667 -11.680748083333333 3.21876175 -1.6124153333333335 5.484224458333333 -4.653741125 6.107566083333333 -8.199537629166668C34.297204875000006 17.003507416666668 36.73291666666667 20.959003708333334 36.724292416666664 25.281190333333335Z" stroke-width="1.67"></path>
    </g>
    <defs>
        <clipPath id="a"><path fill="#ffffff" d="M0 0h38.33v38.33H0z" stroke-width="1.67"></path></clipPath>
    </defs>
</svg>
