<svg xmlns="http://www.w3.org/2000/svg" fill="none" viewBox="-0.835 -0.835 40 40" id="Business-Deal-Handshake-1--Streamline-Ultimate.svg" height="40" width="40">
    <desc>Business Deal Handshake 1 Streamline Icon: https://streamlinehq.com</desc>
    <path fill="#e3e3e3" d="M19.165319416666666 34.441421500000004c8.436912125000001 0 15.276421500000001 -6.839669083333335 15.276421500000001 -15.276421500000001 0 -8.436928095833334 -6.839509375 -15.276405529166666 -15.276421500000001 -15.276405529166666 -8.436864212500002 0 -15.276325675 6.839477433333333 -15.276325675 15.276405529166666 0 8.436752416666668 6.8394614625 15.276421500000001 15.276325675 15.276421500000001Z" stroke-width="1.67"></path>
    <path fill="#ffdda1" d="M32.15008604166667 13.404272504166668v10.693479079166668l-9.181152958333334 1.7414596666666669c0.012616958333333336 -0.07059108333333335 0.018047041666666666 -0.14214041666666666 0.015332 -0.21384945833333333h0.7638849583333334c0.4256227083333334 0.0015970833333333334 0.8432600000000001 -0.11642737500000001 1.2049993749999999 -0.34049816666666666 0.36189908333333337 -0.2242305 0.6538459166666667 -0.545723375 0.8419823333333334 -0.9274262916666667 0.1890946666666667 -0.38042525 0.26926825 -0.8060479583333334 0.231417375 -1.229275041666667 -0.037691166666666664 -0.42322708333333336 -0.19180970833333333 -0.827928 -0.44526683333333333 -1.169065l-4.903684666666667 -6.2786456500000005 -3.1470527083333333 1.0387749416666667c-0.43376783333333335 0.13734916666666666 -0.90362975 0.10668516666666666 -1.3158369583333334 -0.0862425 -0.4122231791666667 -0.19260825 -0.7370859 -0.533266125 -0.9101139083333334 -0.9542413208333334 -0.17302800833333334 -0.4208793708333333 -0.1814446375 -0.8914919166666667 -0.023844454166666668 -1.3184402041666667 0.15760018333333334 -0.4269642583333334 0.4699737125 -0.7791051625000001 0.8750259875 -0.9865822583333334l0.7942295416666667 -0.397194625 4.49131775 -2.2303428458333334c0.44878041666666674 -0.22649835833333334 0.9395641250000001 -0.3583695291666667 1.4415274166666667 -0.3873725625 0.5019632916666668 -0.028843325 1.0044057083333333 0.04583629166666667 1.4763438333333334 0.21932745416666669l7.790891916666666 2.8261347833333335Z" stroke-width="1.67"></path>
    <path fill="#ffdda1" d="M25.797367666666666 24.359194125000002c-0.188296125 0.38170291666666667 -0.48008324999999996 0.7031957916666668 -0.8419823333333334 0.9274262916666667 -0.36189908333333337 0.22391108333333334 -0.7793766666666667 0.34209525 -1.2049993749999999 0.34049816666666666h-0.7638849583333334c0.0025553333333333335 0.07170904166666667 -0.002715041666666667 0.14325837500000002 -0.015332 0.21384945833333333 -0.034017875 0.401985875 -0.16162483333333333 0.7903965416666667 -0.3725995416666667 1.134088875 -0.21097470833333334 0.34385204166666666 -0.49956766666666674 0.6335629583333333 -0.8424614583333333 0.845655625 -0.34289379166666667 0.212252375 -0.7309850416666667 0.34145641666666665 -1.1326515000000001 0.37691166666666664 -0.40166645833333336 0.03577466666666667 -0.8062076666666668 -0.023317416666666667 -1.1810431250000002 -0.172005875l-0.27501775 -0.10700458333333335v0.9624024166666667c-0.0030344583333333335 0.42626154166666674 -0.13591179166666667 0.8413435000000001 -0.3807446666666667 1.1901465 -0.244832875 0.3486432916666667 -0.590282 0.6148770833333334 -0.9900319583333334 0.7624475833333334 -0.3999096666666667 0.1475705 -0.8352745833333334 0.16992966666666667 -1.2479609166666668 0.06404304166666666 -0.4128460416666667 -0.10604633333333334 -0.7836887916666667 -0.3350680833333333 -1.0628749291666668 -0.6570400833333333l-5.487338770833333 -6.142701916666667h-3.8191053750000004V14.932106304166668l7.042418812500001 -2.8261347833333335c0.519084025 -0.2040593375 1.081193475 -0.27326095833333336 1.6342634333333335 -0.2010887625 0.5529262208333334 0.07217219583333334 1.0787020250000001 0.28322675833333333 1.5279775375 0.6135515041666667l0.5652077916666667 0.4582830625 -0.79438925 0.397194625c-0.40511615833333336 0.20747709583333335 -0.71734595 0.5596180000000001 -0.8749461333333334 0.9865662875000001 -0.15775989166666668 0.4269642583333334 -0.14918355416666668 0.8975768041666667 0.023844454166666668 1.3186158833333335 0.17302800833333334 0.4209432541666667 0.4978907291666667 0.7614414208333334 0.9100340541666667 0.9542093791666666 0.41236691666666664 0.19276795833333335 0.882069125 0.22343195833333335 1.3159966666666667 0.08608279166666667l3.146893 -1.038743 4.903684666666667 6.278613708333333c0.2542556666666667 0.341137 0.40885333333333335 0.7458379166666668 0.4473430416666667 1.1693844166666667 0.03833 0.4235465 -0.04136445833333333 0.8496483333333334 -0.23029941666666667 1.2305527083333334Z" stroke-width="1.67"></path>
    <path fill="#ffdda1" d="m24.91913154166667 21.106733916666666 0.6643866666666667 0.8523633749999999c0.253457125 0.34129670833333337 0.40757566666666667 0.7459976250000001 0.44526683333333333 1.1692247083333334 0.037691166666666664 0.42322708333333336 -0.042322708333333334 0.8486900833333334 -0.2312576666666667 1.229275041666667 -0.188296125 0.38170291666666667 -0.4802429583333334 0.7031957916666668 -0.8419823333333334 0.9272665833333333 -0.36189908333333337 0.2242305 -0.7793766666666667 0.34225495833333336 -1.2051590833333334 0.340657875h-0.76372525c0.002395625 0.07170904166666667 -0.002715041666666667 0.14325837500000002 -0.015332 0.21384945833333333l9.181152958333334 -1.7414596666666669v-4.486686208333333c-2.3622459583333337 0.7113409166666668 -4.782785458333334 1.2117071250000002 -7.233350124999999 1.4955088333333335Z" stroke-width="1.67"></path>
    <path fill="#ffdda1" d="M24.918971833333334 21.106574208333335c-1.8088565833333334 0.21113441666666669 -3.6280942083333336 0.31670162500000004 -5.449088625000001 0.3162225 -4.506921254166667 0.024435375 -8.990237616666667 -0.6495337916666667 -13.2905442 -1.9981109583333336v4.673065833333334h3.8191053750000004l5.484224458333333 6.141104833333334c0.2793458458333334 0.32197200000000004 0.6502684500000001 0.5511534583333334 1.0632742000000002 0.6570400833333333 0.41300575 0.105886625 0.8485303750000001 0.08336775 1.248120625 -0.06420275 0.400069375 -0.14804962500000002 0.7455185 -0.41412370833333334 0.9901916666666667 -0.763246125 0.2446731666666667 -0.34896270833333337 0.37723108333333333 -0.7643640833333334 0.3801058333333333 -1.1907853333333334v-0.9608053333333334l0.27485804166666666 0.106844875c0.3749951666666667 0.14884816666666667 0.7793766666666667 0.20778054166666668 1.1812028333333335 0.17232529166666666 0.40182616666666665 -0.03577466666666667 0.789598 -0.16481900000000002 1.1326515000000001 -0.37707137500000004 0.34289379166666667 -0.212252375 0.63148675 -0.5018035833333333 0.8424614583333333 -0.845655625 0.21097470833333334 -0.3436923333333334 0.3384219583333334 -0.732103 0.3725995416666667 -1.134088875 0.012616958333333336 -0.07059108333333335 0.017887333333333335 -0.14214041666666666 0.015332 -0.21384945833333333h0.76372525c0.4257824166666667 0.0015970833333333334 0.8432600000000001 -0.11642737500000001 1.2051590833333334 -0.340657875 0.36173937500000003 -0.22407079166666669 0.6536862083333334 -0.5455636666666667 0.841822625 -0.9272665833333333 0.18893495833333335 -0.3805849583333334 0.26926825 -0.8060479583333334 0.23157708333333332 -1.229275041666667 -0.037850875 -0.42322708333333336 -0.19196941666666667 -0.827928 -0.4454265416666667 -1.1692247083333334l-0.6613522083333334 -0.8523633749999999Z" stroke-width="1.67"></path>
    <path stroke="#191919" stroke-linecap="round" stroke-linejoin="round" d="m22.986181583333334 14.931914654166667 -2.3068271666666664 0.7485369875000001" stroke-width="1.67"></path>
    <path stroke="#191919" stroke-linecap="round" stroke-linejoin="round" d="M32.15008604166667 13.404272504166668v10.693479079166668l-9.181152958333334 1.7414596666666669c0.012616958333333336 -0.07059108333333335 0.018047041666666666 -0.14214041666666666 0.015332 -0.21384945833333333h0.7638849583333334c0.4256227083333334 0.0015970833333333334 0.8432600000000001 -0.11642737500000001 1.2049993749999999 -0.34049816666666666 0.36189908333333337 -0.2242305 0.6538459166666667 -0.545723375 0.8419823333333334 -0.9274262916666667 0.1890946666666667 -0.38042525 0.26926825 -0.8060479583333334 0.231417375 -1.229275041666667 -0.037691166666666664 -0.42322708333333336 -0.19180970833333333 -0.827928 -0.44526683333333333 -1.169065l-4.903684666666667 -6.2786456500000005 -3.1470527083333333 1.0387749416666667c-0.43376783333333335 0.13734916666666666 -0.90362975 0.10668516666666666 -1.3158369583333334 -0.0862425 -0.4122231791666667 -0.19260825 -0.7370859 -0.533266125 -0.9101139083333334 -0.9542413208333334 -0.17302800833333334 -0.4208793708333333 -0.1814446375 -0.8914919166666667 -0.023844454166666668 -1.3184402041666667 0.15760018333333334 -0.4269642583333334 0.4699737125 -0.7791051625000001 0.8750259875 -0.9865822583333334l0.7942295416666667 -0.397194625 4.49131775 -2.2303428458333334c0.44878041666666674 -0.22649835833333334 0.9395641250000001 -0.3583695291666667 1.4415274166666667 -0.3873725625 0.5019632916666668 -0.028843325 1.0044057083333333 0.04583629166666667 1.4763438333333334 0.21932745416666669l7.790891916666666 2.8261347833333335Z" stroke-width="1.67"></path>
    <path stroke="#191919" stroke-linecap="round" stroke-linejoin="round" d="M25.797367666666666 24.359194125000002c-0.188296125 0.38170291666666667 -0.48008324999999996 0.7031957916666668 -0.8419823333333334 0.9274262916666667 -0.36189908333333337 0.22391108333333334 -0.7793766666666667 0.34209525 -1.2049993749999999 0.34049816666666666h-0.7638849583333334c0.0025553333333333335 0.07170904166666667 -0.002715041666666667 0.14325837500000002 -0.015332 0.21384945833333333 -0.034017875 0.401985875 -0.16162483333333333 0.7903965416666667 -0.3725995416666667 1.134088875 -0.21097470833333334 0.34385204166666666 -0.49956766666666674 0.6335629583333333 -0.8424614583333333 0.845655625 -0.34289379166666667 0.212252375 -0.7309850416666667 0.34145641666666665 -1.1326515000000001 0.37691166666666664 -0.40166645833333336 0.03577466666666667 -0.8062076666666668 -0.023317416666666667 -1.1810431250000002 -0.172005875l-0.27501775 -0.10700458333333335v0.9624024166666667c-0.0030344583333333335 0.42626154166666674 -0.13591179166666667 0.8413435000000001 -0.3807446666666667 1.1901465 -0.244832875 0.3486432916666667 -0.590282 0.6148770833333334 -0.9900319583333334 0.7624475833333334 -0.3999096666666667 0.1475705 -0.8352745833333334 0.16992966666666667 -1.2479609166666668 0.06404304166666666 -0.4128460416666667 -0.10604633333333334 -0.7836887916666667 -0.3350680833333333 -1.0628749291666668 -0.6570400833333333l-5.487338770833333 -6.142701916666667h-3.8191053750000004V14.932106304166668l7.042418812500001 -2.8261347833333335c0.519084025 -0.2040593375 1.081193475 -0.27326095833333336 1.6342634333333335 -0.2010887625 0.5529262208333334 0.07217219583333334 1.0787020250000001 0.28322675833333333 1.5279775375 0.6135515041666667l0.5652077916666667 0.4582830625 -0.79438925 0.397194625c-0.40511615833333336 0.20747709583333335 -0.71734595 0.5596180000000001 -0.8749461333333334 0.9865662875000001 -0.15775989166666668 0.4269642583333334 -0.14918355416666668 0.8975768041666667 0.023844454166666668 1.3186158833333335 0.17302800833333334 0.4209432541666667 0.4978907291666667 0.7614414208333334 0.9100340541666667 0.9542093791666666 0.41236691666666664 0.19276795833333335 0.882069125 0.22343195833333335 1.3159966666666667 0.08608279166666667l3.146893 -1.038743 4.903684666666667 6.278613708333333c0.2542556666666667 0.341137 0.40885333333333335 0.7458379166666668 0.4473430416666667 1.1693844166666667 0.03833 0.4235465 -0.04136445833333333 0.8496483333333334 -0.23029941666666667 1.2305527083333334Z" stroke-width="1.67"></path>
    <path fill="#ee55ee" d="M1.5970833333333334 11.87674215h3.0552843000000003c0.4051321291666667 0 0.7937504166666667 0.16103391250000001 1.0802511958333334 0.4475346916666667 0.28651675000000004 0.28635704166666665 0.4473909541666667 0.6749753291666667 0.4473909541666667 1.0801074583333334v10.693526991666667c0 0.4050203333333333 -0.16087420416666667 0.7937504166666667 -0.4473909541666667 1.0802671666666668 -0.28650077916666666 0.28635704166666665 -0.6751190666666667 0.4473430416666667 -1.0802511958333334 0.4473430416666667H1.5970833333333334" stroke-width="1.67"></path>
    <path stroke="#191919" stroke-linecap="round" stroke-linejoin="round" d="M1.5970833333333334 11.87674215h3.0552843000000003c0.4051321291666667 0 0.7937504166666667 0.16103391250000001 1.0802511958333334 0.4475346916666667 0.28651675000000004 0.28635704166666665 0.4473909541666667 0.6749753291666667 0.4473909541666667 1.0801074583333334v10.693526991666667c0 0.4050203333333333 -0.16087420416666667 0.7937504166666667 -0.4473909541666667 1.0802671666666668 -0.28650077916666666 0.28635704166666665 -0.6751190666666667 0.4473430416666667 -1.0802511958333334 0.4473430416666667H1.5970833333333334" stroke-width="1.67"></path>
    <path fill="#ee55ee" d="M36.73275695833333 25.625521500000005h-3.0552204166666668c-0.40518004166666666 0 -0.7937504166666667 -0.16098600000000002 -1.0802671666666668 -0.4473430416666667 -0.28651675000000004 -0.28635704166666665 -0.4473430416666667 -0.6752468333333334 -0.4473430416666667 -1.0802671666666668V13.404384299999998c0 -0.4051321291666667 0.16098600000000002 -0.7937504166666667 0.4473430416666667 -1.0801074583333334 0.28651675000000004 -0.28650077916666666 0.675087125 -0.4475346916666667 1.0802671666666668 -0.4475346916666667h3.0552204166666668" stroke-width="1.67"></path>
    <path stroke="#191919" stroke-linecap="round" stroke-linejoin="round" d="M36.73275695833333 25.625521500000005h-3.0552204166666668c-0.40518004166666666 0 -0.7937504166666667 -0.16098600000000002 -1.0802671666666668 -0.4473430416666667 -0.28651675000000004 -0.28635704166666665 -0.4473430416666667 -0.6752468333333334 -0.4473430416666667 -1.0802671666666668V13.404384299999998c0 -0.4051321291666667 0.16098600000000002 -0.7937504166666667 0.4473430416666667 -1.0801074583333334 0.28651675000000004 -0.28650077916666666 0.675087125 -0.4475346916666667 1.0802671666666668 -0.4475346916666667h3.0552204166666668" stroke-width="1.67"></path>
    <path stroke="#191919" stroke-linecap="round" stroke-linejoin="round" d="m19.165 27.916697250000002 -1.5276102083333334 -1.5276102083333334" stroke-width="1.67"></path>
    <path stroke="#191919" stroke-linecap="round" stroke-linejoin="round" d="m20.691971375 23.334026333333334 2.2913354583333336 2.2913354583333336" stroke-width="1.67"></path>
</svg>
