<svg xmlns="http://www.w3.org/2000/svg" fill="none" viewBox="-0.835 -0.835 40 40" id="Responsive-Design-Hand--Streamline-Ultimate.svg" height="40" width="40">
    <desc>Responsive Design Hand Streamline Icon: https://streamlinehq.com</desc>
    <path fill="#ffffff" d="M17.634195625 1.6005010916666669H3.8881153458333335C2.6228101041666667 1.6005010916666669 1.5970833333333334 2.6262278625 1.5970833333333334 3.8915171333333336V25.274322875000003c0 1.265369125 1.0257267708333333 2.2911757500000003 2.2910320125 2.2911757500000003h13.746080279166668c1.2652094166666668 0 2.291016041666667 -1.025806625 2.291016041666667 -2.2911757500000003V3.8915171333333336c0 -1.2652892708333334 -1.025806625 -2.291016041666667 -2.291016041666667 -2.291016041666667Z" stroke-width="1.67"></path>
    <path fill="#ee55ee" d="M19.92521166666667 6.182613029166667H1.5970833333333334v15.273562720833333h18.328128333333336V6.182613029166667Z" stroke-width="1.67"></path>
    <path fill="#7777ff" d="M18.397920875 6.182613029166667H1.5970833333333334v15.273562720833333h1.527354675l15.273482866666667 -15.273562720833333Z" stroke-width="1.67"></path>
    <path fill="#ffffff" d="M34.43471375 13.819242666666666H13.051844125c-1.2652892708333334 0 -2.2910320125 1.025742741666667 -2.2910320125 2.291016041666667v13.746255958333336c0 1.2652094166666668 1.025742741666667 2.290856333333333 2.2910320125 2.290856333333333H34.43471375c1.2652094166666668 0 2.291016041666667 -1.0256469166666666 2.291016041666667 -2.290856333333333v-13.746255958333336c0 -1.2652733 -1.025806625 -2.291016041666667 -2.291016041666667 -2.291016041666667Z" stroke-width="1.67"></path>
    <path fill="#ee55ee" d="M32.14417683333333 13.819242666666666h-15.273387041666668v18.328128333333336h15.273387041666668V13.819242666666666Z" stroke-width="1.67"></path>
    <path fill="#7777ff" d="M32.14417683333333 15.3466133125V13.819242666666666h-15.273387041666668v16.800837541666667l15.273387041666668 -15.273466895833334Z" stroke-width="1.67"></path>
    <path fill="#ffffff" d="M29.089275833333332 1.6005010916666669h-4.5818723750000006c-0.8435794166666667 0 -1.5274505 0.6838072000000001 -1.5274505 1.527354675v10.691418841666668c0 0.8435315041666668 0.6838710833333334 1.527354675 1.5274505 1.527354675h4.5818723750000006c0.8435794166666667 0 1.5274505 -0.6838231708333333 1.5274505 -1.527354675V3.127855766666667c0 -0.843547475 -0.6838710833333334 -1.527354675 -1.5274505 -1.527354675Z" stroke-width="1.67"></path>
    <path fill="#ee55ee" d="M30.616726333333336 4.655274325000001h-7.636773375v7.6367254625h7.636773375V4.655274325000001Z" stroke-width="1.67"></path>
    <path fill="#7777ff" d="M22.979952958333335 12.2919997875V4.655274325000001h7.636773375l-7.636773375 7.6367254625Z" stroke-width="1.67"></path>
    <path fill="#ffdda1" d="m35.96248366666667 36.72956279166667 0.7638849583333334 -5.008133916666667c0.029546041666666665 -0.31143125000000005 -0.04200329166666667 -0.6239804583333334 -0.204586375 -0.8911725000000001 -0.16226366666666667 -0.2671920416666667 -0.4066174166666667 -0.47497258333333336 -0.69664775 -0.5920387916666666l-8.262830041666668 -2.9645060833333337v-6.581420708333333c0 -0.6076902083333334 -0.24147900000000003 -1.1903062083333333 -0.6710944166666667 -1.6199216250000001 -0.42977512500000004 -0.42977512500000004 -1.0123911250000002 -0.6709347083333334 -1.6199216250000001 -0.6709347083333334 -0.6076902083333334 0 -1.1904659166666667 0.24115958333333334 -1.6200813333333333 0.6709347083333334 -0.42977512500000004 0.4296154166666667 -0.6710944166666667 1.0122314166666668 -0.6710944166666667 1.6199216250000001v12.510432875000001l-2.626882666666667 -3.1432197083333335c-0.1502855416666667 -0.17727625000000002 -0.3376234166666667 -0.31925695833333334 -0.548598125 -0.4160402083333334 -0.211294125 -0.09694295833333333 -0.4411144166666667 -0.14629283333333334 -0.6733303333333334 -0.14437633333333333l-1.5274505 0.02587275c-0.25792895833333335 -0.0003194166666666667 -0.5115457916666667 0.06627895833333335 -0.7360957083333334 0.19324708333333335 -0.22439020833333337 0.12728754166666667 -0.41220720833333335 0.31031329166666666 -0.5447651250000001 0.5316690416666666 -0.1325579166666667 0.22135575000000002 -0.20538491666666667 0.4733755 -0.21145383333333334 0.73114475 -0.005909208333333334 0.25792895833333335 0.055099375000000006 0.5129831666666667 0.17727625000000002 0.7404078333333334l2.7675857083333337 5.008133916666667" stroke-width="1.67"></path>
    <path stroke="#191919" stroke-linecap="round" stroke-linejoin="round" d="m35.96248366666667 36.72956279166667 0.7638849583333334 -5.008133916666667c0.029546041666666665 -0.31143125000000005 -0.04200329166666667 -0.6239804583333334 -0.204586375 -0.8911725000000001 -0.16226366666666667 -0.2671920416666667 -0.4066174166666667 -0.47497258333333336 -0.69664775 -0.5920387916666666l-8.262830041666668 -2.9645060833333337v-6.581420708333333c0 -0.6076902083333334 -0.24147900000000003 -1.1903062083333333 -0.6710944166666667 -1.6199216250000001 -0.42977512500000004 -0.42977512500000004 -1.0123911250000002 -0.6709347083333334 -1.6199216250000001 -0.6709347083333334 -0.6076902083333334 0 -1.1904659166666667 0.24115958333333334 -1.6200813333333333 0.6709347083333334 -0.42977512500000004 0.4296154166666667 -0.6710944166666667 1.0122314166666668 -0.6710944166666667 1.6199216250000001v12.510432875000001l-2.626882666666667 -3.1432197083333335c-0.1502855416666667 -0.17727625000000002 -0.3376234166666667 -0.31925695833333334 -0.548598125 -0.4160402083333334 -0.211294125 -0.09694295833333333 -0.4411144166666667 -0.14629283333333334 -0.6733303333333334 -0.14437633333333333l-1.5274505 0.02587275c-0.25792895833333335 -0.0003194166666666667 -0.5115457916666667 0.06627895833333335 -0.7360957083333334 0.19324708333333335 -0.22439020833333337 0.12728754166666667 -0.41220720833333335 0.31031329166666666 -0.5447651250000001 0.5316690416666666 -0.1325579166666667 0.22135575000000002 -0.20538491666666667 0.4733755 -0.21145383333333334 0.73114475 -0.005909208333333334 0.25792895833333335 0.055099375000000006 0.5129831666666667 0.17727625000000002 0.7404078333333334l2.7675857083333337 5.008133916666667" stroke-width="1.67"></path>
    <path stroke="#191919" stroke-linecap="round" stroke-linejoin="round" d="M7.706486062500001 27.565498625H3.8881153458333335c-0.607626325 0 -1.1903541208333335 -0.24147900000000003 -1.6200014791666668 -0.6710944166666667C1.8384505375 26.464788791666667 1.5970833333333334 25.882013083333334 1.5970833333333334 25.274322875000003V3.8915171333333336c0 -0.6076103541666668 0.24136720416666665 -1.1903541208333335 0.6710305333333333 -1.6200014791666668 0.42964735833333334 -0.42964735833333334 1.0123751541666666 -0.6710145625 1.6200014791666668 -0.6710145625h13.746080279166668c0.6076902083333334 0 1.1904659166666667 0.24136720416666665 1.6200813333333333 0.6710145625 0.4294557083333333 0.42964735833333334 0.6709347083333334 1.0123911250000002 0.6709347083333334 1.6200014791666668v6.8730640958333336" stroke-width="1.67"></path>
    <path stroke="#191919" stroke-linecap="round" stroke-linejoin="round" d="M1.5970833333333334 21.45601604166667h6.109402729166667" stroke-width="1.67"></path>
    <path stroke="#191919" stroke-linecap="round" stroke-linejoin="round" d="M16.870789791666667 13.819242666666666v12.982530708333334" stroke-width="1.67"></path>
    <path stroke="#191919" stroke-linecap="round" stroke-linejoin="round" d="M29.089275833333332 1.6005010916666669h-4.5818723750000006c-0.8435794166666667 0 -1.5274505 0.6838072000000001 -1.5274505 1.527354675v10.691418841666668c0 0.8435315041666668 0.6838710833333334 1.527354675 1.5274505 1.527354675h4.5818723750000006c0.8435794166666667 0 1.5274505 -0.6838231708333333 1.5274505 -1.527354675V3.127855766666667c0 -0.843547475 -0.6838710833333334 -1.527354675 -1.5274505 -1.527354675Z" stroke-width="1.67"></path>
    <path stroke="#191919" stroke-linecap="round" stroke-linejoin="round" d="M22.979952958333335 12.2919039625h7.636773375" stroke-width="1.67"></path>
    <path stroke="#191919" stroke-linecap="round" stroke-linejoin="round" d="M22.979952958333335 4.655274325000001h7.636773375" stroke-width="1.67"></path>
    <path stroke="#191919" stroke-linecap="round" stroke-linejoin="round" d="M1.598648475 6.182613029166667H19.926808750000003" stroke-width="1.67"></path>
    <path stroke="#191919" stroke-linecap="round" stroke-linejoin="round" d="M32.143697708333335 17.6375495v8.400498625" stroke-width="1.67"></path>
    <path stroke="#191919" stroke-linecap="round" stroke-linejoin="round" d="M33.67210645833334 13.819242666666666h0.7635655416666668c0.6076902083333334 0 1.1904659166666667 0.241383175 1.6199216250000001 0.6710305333333333 0.42977512500000004 0.42964735833333334 0.671254125 1.0123911250000002 0.671254125 1.6199855083333334v11.455080208333335" stroke-width="1.67"></path>
    <path stroke="#191919" stroke-linecap="round" stroke-linejoin="round" d="M13.051844125 32.147371c-0.6076103541666668 0 -1.19033815 -0.24131929166666669 -1.6200014791666668 -0.6709347083333334 -0.42964735833333334 -0.42977512500000004 -0.6710305333333333 -1.0123911250000002 -0.6710305333333333 -1.6199216250000001v-13.746255958333336c0 -0.6075943833333334 0.241383175 -1.19033815 0.6710305333333333 -1.6199855083333334 0.42966332916666666 -0.42964735833333334 1.0123911250000002 -0.6710305333333333 1.6200014791666668 -0.6710305333333333h6.8730481249999995" stroke-width="1.67"></path>
</svg>
