<svg xmlns="http://www.w3.org/2000/svg" fill="none" viewBox="-0.835 -0.835 40 40" id="Idea-Strategy--Streamline-Ultimate.svg" height="40" width="40">
    <desc>Idea Strategy Streamline Icon: https://streamlinehq.com</desc>
    <path fill="#78eb7b" d="M6.388205566666667 36.73243754166667c0.9475814833333334 0 1.8739057875 -0.28092695833333337 2.6617949083333334 -0.8074853333333335 0.7879050916666667 -0.5263986666666667 1.4019996041666667 -1.2747919166666668 1.764617375 -2.150153291666667 0.3626337416666667 -0.8755210833333334 0.4575004916666667 -1.83888175 0.2726540666666667 -2.768224541666667 -0.18487836666666668 -0.9293427916666667 -0.6411810458333334 -1.7831435416666668 -1.3112373583333334 -2.45312 -0.6700563125 -0.6701361666666666 -1.5237452666666669 -1.126422875 -2.453135970833334 -1.3113651250000002 -0.9293747333333333 -0.18478254166666666 -1.892719429166667 -0.08991579166666668 -2.7681766291666667 0.27278183333333333 -0.8754731708333334 0.3625379166666667 -1.6237226833333334 0.9766164583333334 -2.1501852333333336 1.764617375C1.8780901458333334 30.067329666666666 1.5970833333333334 30.993797708333336 1.5970833333333334 31.941187541666668c0 1.2707992083333333 0.5047741583333334 2.489373791666667 1.4032932416666668 3.3878928750000004 0.8985031125000001 0.8985190833333334 2.117141579166667 1.403357125 3.387828991666667 1.403357125Z" stroke-width="1.67"></path>
    <path fill="#c9f7ca" d="M6.388205566666667 30.281977666666666c0.99332195 0.001756791666666667 1.9613461 0.31334775000000004 2.7691987625000003 0.8911725000000001 0.8078686333333333 0.5779844583333333 1.4153033083333333 1.3936149166666667 1.7376426375 2.333179041666667 0.1829139541666667 -0.5018035833333333 0.27904239999999997 -1.031077 0.2842808333333333 -1.5651416666666667 0 -1.2704797916666668 -0.5047901291666668 -2.4892140833333336 -1.4032932416666668 -3.3877331666666666 -0.8985031125000001 -0.8985190833333334 -2.117141579166667 -1.403357125 -3.387828991666667 -1.403357125 -1.2706874125 0 -2.4893258791666666 0.5048380416666667 -3.387828991666667 1.403357125C2.101857491666667 29.45197345833333 1.5970833333333334 30.670707750000002 1.5970833333333334 31.941187541666668c0.005238433333333334 0.5340646666666666 0.10136687916666667 1.0633380833333332 0.2842808333333333 1.5651416666666667 0.3223393291666667 -0.9395641250000001 0.9297740041666667 -1.7551945833333333 1.7376426375 -2.333179041666667 0.8078366916666668 -0.57782475 1.7758768125000002 -0.8894157083333333 2.7691987625000003 -0.8911725000000001Z" stroke-width="1.67"></path>
    <path stroke="#191919" stroke-linecap="round" stroke-linejoin="round" d="M6.388205566666667 36.73243754166667c0.9475814833333334 0 1.8739057875 -0.28092695833333337 2.6617949083333334 -0.8074853333333335 0.7879050916666667 -0.5263986666666667 1.4019996041666667 -1.2747919166666668 1.764617375 -2.150153291666667 0.3626337416666667 -0.8755210833333334 0.4575004916666667 -1.83888175 0.2726540666666667 -2.768224541666667 -0.18487836666666668 -0.9293427916666667 -0.6411810458333334 -1.7831435416666668 -1.3112373583333334 -2.45312 -0.6700563125 -0.6701361666666666 -1.5237452666666669 -1.126422875 -2.453135970833334 -1.3113651250000002 -0.9293747333333333 -0.18478254166666666 -1.892719429166667 -0.08991579166666668 -2.7681766291666667 0.27278183333333333 -0.8754731708333334 0.3625379166666667 -1.6237226833333334 0.9766164583333334 -2.1501852333333336 1.764617375C1.8780901458333334 30.067329666666666 1.5970833333333334 30.993797708333336 1.5970833333333334 31.941187541666668c0 1.2707992083333333 0.5047741583333334 2.489373791666667 1.4032932416666668 3.3878928750000004 0.8985031125000001 0.8985190833333334 2.117141579166667 1.403357125 3.387828991666667 1.403357125Z" stroke-width="1.67"></path>
    <path fill="#ff808c" d="M14.373750000000001 27.15009725h9.582180583333333v9.582340291666668H14.373750000000001v-9.582340291666668Z" stroke-width="1.67"></path>
    <path fill="#ffbfc5" d="M14.373750000000001 36.73243754166667v-9.582340291666668h9.582180583333333L14.373750000000001 36.73243754166667Z" stroke-width="1.67"></path>
    <path stroke="#191919" stroke-linecap="round" stroke-linejoin="round" d="M14.373750000000001 27.15009725h9.582180583333333v9.582340291666668H14.373750000000001v-9.582340291666668Z" stroke-width="1.67"></path>
    <path fill="#ee55ee" d="M31.941506958333335 27.15009725 27.15041666666667 36.73243754166667h9.582180583333333l-4.7910902916666664 -9.582340291666668Z" stroke-width="1.67"></path>
    <path fill="#ee5555" d="M31.941506958333335 27.15009725 27.15041666666667 36.73243754166667h4.7910902916666664v-9.582340291666668Z" stroke-width="1.67"></path>
    <path stroke="#191919" stroke-linecap="round" stroke-linejoin="round" d="M31.941506958333335 27.15009725 27.15041666666667 36.73243754166667h9.582180583333333l-4.7910902916666664 -9.582340291666668Z" stroke-width="1.67"></path>
    <path stroke="#191919" stroke-linecap="round" stroke-linejoin="round" d="M21.560465291666667 19.164840291666668H16.769375" stroke-width="1.67"></path>
    <path fill="#ffef5e" d="M23.955930583333334 10.381201375c-0.03609408333333333 -1.2592522958333334 -0.5525908333333334 -2.4569849416666667 -1.4432842083333333 -3.3477581708333335 -0.890693375 -0.8908051708333333 -2.088505875 -1.407190125 -3.3478060833333334 -1.4433640625000002 -1.2594599166666667 0.0357906375 -2.4572724166666666 0.5520637958333333 -3.3481734125 1.44293285C14.925813795833335 7.923881045833334 14.409540637500001 9.1218213125 14.373750000000001 10.381201375c0.017983158333333332 0.8162852625 0.2483624291666667 1.6137888249999999 0.6684272875 2.3139022458333334 0.42008082916666667 0.7001293916666667 1.0153776708333333 1.2787047708333334 1.7271977125 1.6786942916666667V15.970833333333335h4.7910902916666664v-1.5970354208333335c0.7116603333333333 -0.40022908333333335 1.3067335833333336 -0.9788683458333333 1.7266067916666668 -1.6789338541666667 0.4200329166666667 -0.7000814791666667 0.6504920416666667 -1.4974413041666668 0.6688585 -2.3136626833333334Z" stroke-width="1.67"></path>
    <path fill="#fff9bf" d="M19.164840291666668 9.04607165c0.9451539166666667 0.027501775 1.8625185833333333 0.3262202416666667 2.642693791666667 0.8605404416666667 0.7800155000000001 0.5343361708333333 1.389941625 1.2817232583333333 1.7571110833333334 2.153075954166667 0.23461154166666667 -0.5299761333333334 0.3673291666666667 -1.0993842541666667 0.39128541666666666 -1.6784866708333332 -0.03609408333333333 -1.2592522958333334 -0.5525908333333334 -2.4569849416666667 -1.4432842083333333 -3.3477581708333335 -0.890693375 -0.8908051708333333 -2.088505875 -1.407190125 -3.3478060833333334 -1.4433640625000002 -1.2593002083333333 0.0361739375 -2.456953 0.5525588916666667 -3.347726229166667 1.4433640625000002 -0.8908051708333333 0.8907732291666667 -1.407190125 2.088505875 -1.4433640625000002 3.3477581708333335 0.024052075000000003 0.5795975125 0.15678567083333333 1.1495007291666668 0.3912694458333334 1.6800837541666669 0.36661047916666667 -0.8718797333333334 0.9764088375 -1.6198258 1.7566479291666666 -2.154497358333334 0.7800155000000001 -0.5346715583333334 1.6976995833333333 -0.8334698791666666 2.643172916666667 -0.8607161208333334Z" stroke-width="1.67"></path>
    <path stroke="#191919" stroke-linecap="round" stroke-linejoin="round" d="M23.955930583333334 10.381201375c-0.03609408333333333 -1.2592522958333334 -0.5525908333333334 -2.4569849416666667 -1.4432842083333333 -3.3477581708333335 -0.890693375 -0.8908051708333333 -2.088505875 -1.407190125 -3.3478060833333334 -1.4433640625000002 -1.2594599166666667 0.0357906375 -2.4572724166666666 0.5520637958333333 -3.3481734125 1.44293285C14.925813795833335 7.923881045833334 14.409540637500001 9.1218213125 14.373750000000001 10.381201375c0.017983158333333332 0.8162852625 0.2483624291666667 1.6137888249999999 0.6684272875 2.3139022458333334 0.42008082916666667 0.7001293916666667 1.0153776708333333 1.2787047708333334 1.7271977125 1.6786942916666667V15.970833333333335h4.7910902916666664v-1.5970354208333335c0.7116603333333333 -0.40022908333333335 1.3067335833333336 -0.9788683458333333 1.7266067916666668 -1.6789338541666667 0.4200329166666667 -0.7000814791666667 0.6504920416666667 -1.4974413041666668 0.6688585 -2.3136626833333334Z" stroke-width="1.67"></path>
    <path stroke="#191919" stroke-linecap="round" stroke-linejoin="round" d="M6.388333333333334 27.15009725v-3.992548625c0 -0.21177325 0.08413435 -0.41492225 0.23389285416666666 -0.5647286666666668 0.1497265625 -0.14964670833333335 0.3528436208333333 -0.23381300000000002 0.5646328416666667 -0.23381300000000002H31.142486166666668c0.21177325 0 0.41492225 0.08416629166666667 0.5647286666666668 0.23381300000000002 0.14964670833333335 0.14980641666666666 0.23381300000000002 0.3529554166666667 0.23381300000000002 0.5647286666666668v3.992548625" stroke-width="1.67"></path>
    <path stroke="#191919" stroke-linecap="round" stroke-linejoin="round" d="M19.165 19.164840291666668v7.186715291666667" stroke-width="1.67"></path>
    <path stroke="#191919" stroke-linecap="round" stroke-linejoin="round" d="M19.165 1.5975784291666668v1.5970354208333335" stroke-width="1.67"></path>
    <path stroke="#191919" stroke-linecap="round" stroke-linejoin="round" d="m25.376216791666668 4.170415795833334 -1.1291379166666666 1.129105975" stroke-width="1.67"></path>
    <path stroke="#191919" stroke-linecap="round" stroke-linejoin="round" d="M27.948958333333334 9.582691650000001h-1.5970833333333334" stroke-width="1.67"></path>
    <path stroke="#191919" stroke-linecap="round" stroke-linejoin="round" d="m12.954469954166669 4.170415795833334 1.129105975 1.129105975" stroke-width="1.67"></path>
    <path stroke="#191919" stroke-linecap="round" stroke-linejoin="round" d="M10.3818242375 9.582691650000001h1.5970354208333335" stroke-width="1.67"></path>
</svg>
